<?xml version="1.0" standalone="no"?>
<!DOCTYPE svg PUBLIC "-//W3C//DTD SVG 1.1//EN" "http://www.w3.org/Graphics/SVG/1.1/DTD/svg11.dtd" >
<svg xmlns="http://www.w3.org/2000/svg">
<metadata>Generated by IcoMoon</metadata>
<defs>
<font id="zodic" horiz-adv-x="1024">
<font-face units-per-em="1024" ascent="960" descent="-64" />
<missing-glyph horiz-adv-x="1024" />
<glyph unicode="&#x20;" d="" horiz-adv-x="512" />
<glyph unicode="&#xe600;" d="M855.957 404.721c-12.793 34.771-15.638 81.16-20.121 104.372s1.854 150.111-31.124 183.091c-32.915 32.946-96.089 42.094-102.949 52.106-4.327 6.305-1.115 22.994 1.854 34.554 28.928 14.184 48.956 43.95 48.956 78.688 0 48.429-38.633 87.712-86.26 87.712-1.823 0-3.491-0.433-5.316-0.525-1.792 0.063-3.46 0.495-5.254 0.495-47.659 0-86.324-39.282-86.324-87.712 0-34.739 20.090-64.503 48.956-78.688 3.029-11.559 6.181-28.248 1.886-34.554-6.861-9.983-70.035-19.132-102.981-52.106-1.886-1.886-3.614-4.172-5.254-6.614-1.639 2.441-3.369 4.728-5.254 6.614-32.946 32.946-96.121 42.094-102.981 52.106-4.296 6.305-1.147 22.994 1.854 34.554 28.868 14.184 48.956 43.95 48.956 78.688 0 48.429-38.663 87.712-86.292 87.712-1.823 0-3.491-0.433-5.285-0.525-1.763 0.093-3.491 0.525-5.285 0.525-47.659 0-86.292-39.282-86.292-87.712 0-34.739 20.058-64.503 48.956-78.688 2.968-11.559 6.15-28.248 1.854-34.554-6.861-9.983-70.035-19.132-102.949-52.106-32.946-32.946-26.639-159.879-31.124-183.091-4.512-23.211-7.325-69.601-20.15-104.372-12.793-34.771-1.854-65.923 12.825-82.365 14.649-16.472 34.803-9.18 45.771 12.793s-24.726 36.407-16.472 60.422c8.221 24.076 53.931 253.557 62.215 238.473 2.905-5.254 15.516-77.080 15.113-166.153-0.68-167.669-16.937-403.42-16.937-420.172 0-25.622-42.094-56.775-31.124-82.396s76.649 7.046 80.541 47.627c3.926 40.579 14.649 151.968 14.649 151.968l27.477 172.087 0.927-5.501 0.896 5.501 27.477-172.087c0 0 10.756-111.388 14.649-151.968s69.571-73.247 80.541-47.627c10.972 25.622-31.124 56.775-31.124 82.396 0 16.751-16.226 252.506-16.937 420.202-0.372 89.074 12.239 160.898 15.113 166.153 4.389 8.004 19.286-52.634 33.533-115.001-0.278-4.14-0.618-7.665-1.051-9.952-4.48-23.211-7.325-69.601-20.121-104.372s-1.854-65.923 12.793-82.396c10.075-11.279 22.686-11.157 33.193-2.999 10.507-8.252 23.149-8.377 33.224 2.999 14.62 16.472 25.559 47.627 12.764 82.396-12.764 34.771-15.67 81.16-20.121 104.372-0.463 2.286-0.741 5.811-1.020 9.952 14.248 62.369 29.145 122.977 33.533 115.001 2.875-5.254 15.484-77.080 15.113-166.153-0.68-167.699-16.967-403.451-16.967-420.202 0-25.622-42.094-56.775-31.124-82.396 10.942-25.622 76.617 7.046 80.541 47.627 3.895 40.579 14.649 151.968 14.649 151.968l27.506 172.087 0.865-5.501 0.927 5.501 27.477-172.087c0 0 10.756-111.388 14.68-151.968 3.863-40.579 69.539-73.247 80.511-47.627s-31.124 56.775-31.124 82.396c0 16.751-16.256 252.506-16.937 420.202-0.433 89.074 12.239 160.898 15.083 166.153 8.315 15.083 54.023-214.398 62.244-238.473 8.283-24.045-27.477-38.415-16.472-60.422 10.972-21.974 31.154-29.299 45.741-12.825 14.743 16.472 25.653 47.627 12.857 82.396zM515.895 395.573c2.905-8.529 0.217-15.826-3.895-22.716-4.11 6.954-6.798 14.184-3.895 22.716 0.865 2.596 2.223 7.697 3.895 14.465 1.667-6.767 3.029-11.868 3.895-14.465z" />
<glyph unicode="&#xe602;" d="M52.192 549.184c54.496 0 89.248 42.048 117.184 76.032 27.936 33.824 46.56 54.336 69.792 54.336 12.224 0 22.016-13.184 43.392-50.368 24.8-43.2 62.208-108.352 143.552-108.352 83.936 0 118.592 65.952 141.44 109.504 9.984 19.072 22.496 42.752 30.304 42.752 13.504 0 33.76-32.192 48.512-55.584 27.744-43.936 62.176-98.752 127.616-98.752 63.808 0 111.36 53.216 153.504 100.224 15.136 16.896 37.664 41.984 48.448 47.776 26.912 2.048 48.064 24.576 48.064 52 0 28.768-23.328 52.224-52.16 52.224-48.352 0-84.16-40-122.016-82.368-20.512-22.912-58.624-65.44-75.936-65.44-9.056 2.144-29.376 34.496-39.2 49.984-27.712 44.032-65.696 104.384-136.8 104.384-70.88 0-102.016-59.328-122.656-98.528-23.2-44.16-31.872-53.696-49.056-53.696-17.952 0-28.96 14.016-53.056 55.904-24.992 43.36-59.168 102.816-133.952 102.816-74.112 0-118.176-53.408-150.304-92.448-10.944-13.184-29.12-35.328-37.216-38.016-28.544-0.32-51.648-23.584-51.648-52.192 0-28.832 23.36-52.192 52.192-52.192zM971.84 432.736c-48.352 0-84.16-40-122.016-82.336-20.512-22.944-58.624-65.472-75.936-65.472-9.056 2.176-29.376 34.496-39.2 49.984-27.712 44.032-65.696 104.384-136.8 104.384-70.88 0-102.016-59.328-122.656-98.56-23.2-44.128-31.872-53.664-49.056-53.664-17.952 0-28.96 14.016-53.056 55.904-24.928 43.36-59.136 102.848-133.92 102.848-74.080 0-118.144-53.408-150.272-92.448-10.944-13.248-29.12-35.328-37.216-38.016-28.608-0.32-51.712-23.552-51.712-52.16 0-28.768 23.36-52.192 52.192-52.192 54.496 0 89.248 42.080 117.184 76.032 27.936 33.824 46.56 54.368 69.792 54.368 12.224 0 22.016-13.216 43.392-50.4 24.8-43.2 62.208-108.32 143.552-108.32 83.936 0 118.592 65.92 141.44 109.44 9.984 19.104 22.496 42.784 30.304 42.784 13.504 0 33.76-32.192 48.512-55.584 27.744-43.968 62.176-98.752 127.616-98.752 63.808 0 111.36 53.216 153.504 100.192 15.136 16.896 37.664 41.984 48.448 47.808 26.912 2.048 48.064 24.576 48.064 52 0 28.832-23.328 52.16-52.16 52.16z" />
<glyph unicode="&#xe603;" d="M732.542-5.187c-21.735 12.407-11.628 42.789-16.973 62.518-125.357-82.633-210.485 58.241-216.638 90.73-29.379 13.961-233.709 342.060-233.709 342.060l-120.759-94.392 35.599 226.001-54.193 95.848c0 0 92.868 119.203 63.456 126.912-29.379 7.709-92.868-37.154-103.655-69.675-10.819-32.489 15.451-165.524 15.451-165.524s-63.456-95.978-68.121-133.131c-4.664-37.122-26.302-264.644 6.186-287.869s261.535 145.473 283.205 130.022c21.703-15.516 47.908-299.401 51.049-318.836 3.174-19.435-20.084-80.462-20.084-80.462s376.040 0 413.227 0c37.122 0 15.516 75.863 15.516 75.863s-27.857-12.439-49.56-0.065zM689.234 937.362c-145.473 77.385-198.434-126.394-198.434-126.394s214.76-149.133 215.148-144.47c0.324 4.664 128.792 193.478-16.714 270.863zM868.2 313.618c-26.335-6.186-162.349-69.060-173.525-86.067 10.431-23.776 33.947-110.004 42.951-136.987s231.734 187.454 231.734 187.454-74.89 41.818-101.16 35.599zM792.143 96.363c-12.698-2.236-26.659-15.192-26.659-15.192s-34.27-30.124-26.723-56.167c7.547-26.173 41.203-9.912 49.625 0 8.422 9.88 16.422 73.595 3.757 71.36zM818.607 115.149c0 0-3.466-159.757-18.269-189.98 20.181 0 44.216 0 67.311 0 23.063 0-16.941 204.168-22.221 208.217s-26.821-18.237-26.821-18.237zM893.175 178.801c-7.547 2.883-34.854-27.662-34.854-27.662s36.085-100.254 35.729-222.016c108.222 1.361 0 0 108.222 1.361 3.466 59.18-101.549 245.403-109.097 248.318zM945.487 221.721c-9.88 0.616-35.178-32.812-35.178-32.812s30.417-27.597 59.051-81.563c5.021 3.628 13.669 15.16 16.066 28.441s-30.092 85.386-39.939 85.937zM981.346 201.216c4.082 7.418 13.475 49.852 4.729 55.715-8.746 5.798-26.594-24.682-26.594-24.682s17.816-38.353 21.865-31.032zM580.947 458.701c-0.486 1.198-0.745 2.009-0.745 2.009s26.205 93.743 14.641 108.319c-14.446 18.302-69.61 88.236-69.61 88.236s-71.198-2.753-69.61-27.825c1.555-25.103 9.263-150.138 9.263-150.138l32.522-20.148c0 0 0-284.76 27.825-307.985 72.753-136.178 164.034-92.835 179.518-61.901 6.089 12.18-11.953 72.332-35.955 140.776v0c-1.068 3.045-2.138 6.089-3.271 9.198-3.369 9.297-6.673 18.561-10.139 28.019-0.68 1.976-1.393 3.822-2.074 5.798-28.376 77.158-59.18 153.636-69.383 178.611-0.68 1.685-1.295 3.207-1.814 4.405-0.68 1.393-0.874 1.847-1.165 2.623zM480.175 216.409c-5.862 45.803-10.301 116.482-10.69 227.199l-31.647 19.499-0.841 14.381-9.297 150.073c-0.68 11.045 3.207 21.767 10.883 30.319 20.181 22.286 66.533 26.367 85.548 27.145l14.188 0.616 8.778-11.142 69.642-88.236c6.316-8.098 19.467-24.747-7.256-123.803 37.381-91.087 63.521-159.692 82.049-212.298 47.001 34.659 130.67 67.991 169.929 82.665 39.777 14.868 97.921 139.287-26.788 225.352-128.403 65.011-448.762 314.172-498.289 318.836-49.56 4.6-181.105-134.719-176.44-164.099 4.082-25.946 197.204-316.764 320.228-496.507z" />
<glyph unicode="&#xe604;" d="M976.502 727.802c-39.023 38.991-193.847 180.733-227.567 214.454-24.417 24.417-1.683-39.277 12.732-76.3-91.414 32.387-203.404-0.191-275.132-88.111-20.544-25.211-32.324-54.995-38.102-86.271-6.763 30.228-15.082 62.996-19.432 74.046-6.445 16.257-27.052 7.112-19.242-8.097 7.81-15.177 23.75-175.399 14.289-165.999-58.964 21.242-57.217-36.991-30.069-85.35 7.684-13.685 22.132-31.244 39.753-49.883-48.771-77.506-359.338-169.239-385.408-288.723s97.003-159.174 285.515-143.9c105.195 11.526 335.398 13.558 342.319-88.684 55.947 110.402-178.923 142.217-321.141 121.705s-254.557 32.768-257.731 106.242c-3.175 73.41 324.793 222.678 366.134 263.797 7.271-7.207 14.351-13.558 21.465-20.068-60.551-29.848-300.693-154.125-281.006-236.871 22.513-94.653 286.944-55.661 380.994-60.139 94.081-4.446 156.919-65.632 148.854-123.993 73.442 59.534-39.023 166.317-141.9 161.746-102.877-4.636-288.214-0.921-303.296 52.105-12.891 45.47 164.667 158.38 215.883 189.846 26.989-23.020 51.406-40.452 68.838-49.47 41.31-21.242 71.189-6.985 59.25 42.675 81.349 16.543 139.646-10.35 152.061-7.684 6.604 1.938 12.447 5.525 11.24 16.67-2.444 7.303-38.834 13.432-73.665 18.067 41.85 14.226 81.539 41.436 114.911 82.365 64.139 78.618 78.206 179.685 44.77 259.606 29.275-11.876 113.355-44.738 94.685-23.782zM534.259 330.901c0 0-75.982 10.859-120.85-43.691-44.865-54.582 15.304-102.083 49.566-111.514 34.197-9.43 112.846-14.701 116.942 39.563 3.525 47.787-68.457 37.34-93.287 38.293-64.965 4.731 47.628 77.348 47.628 77.348zM554.421 295.306c-20.417 1.493 15.019 24.29 15.019 24.29s-23.878 3.397-37.944-13.717c-14.099-17.146 4.763-32.101 15.558-35.054 10.732-2.984 35.403-4.636 36.705 12.447 1.080 15.019-21.528 11.748-29.339 12.034z" />
<glyph unicode="&#xe607;" d="M883.982 288.803c-0.656 69.718 5.546 225.524 7.545 279.526 1.969 54.003-76.546 119.606-76.546 119.606s5.934 23.676 21.201 21.858 18.488-4.682 28.507 1.253c5.009 2.982 7.962 16.311 13.061 19.562 5.129 3.25-2.863 13.538-2.863 13.538s7.842-1.312 8.409 1.848c0.894 4.711-5.129 8.856-3.22 16.311 1.848 7.455 14.91 3.728 17.236 12.584-3.728 16.341-19.74 47.681-10.556 51.080 9.214 3.399 22.722-1.133 34.799 3.429 12.047 4.563 13.985 20.039 3.728 41.001s-54.033 48.457-93.663 48.457c-96.644 5.576-160.786-76.427-115.013-154.375 21.59-42.88 5.069-77.173-39.66-71.596s-222.781-121.692-276.217-115.192c-26.51 3.191-41.151 3.191-49.053-0.089-0.894-0.089-1.848-0.179-2.774-0.328l-30.356 77.858c14.761-0.298 43.387 1.908 62.113 21.38 26.092 27.076 40.256 69.42-45.504 105.471-11.182 4.145-12.286 36.499 2.237 60.473-35.008 8.975-43.775-36.618-30.743-60.533 13.002-23.916 28.716-38.109 35.366-55.881s-33.368-23.855-33.368-23.855l-25.167 36.946 33.398 11.093-80.214 76.277 0.119-0.298-0.686-110.481 31.221 16.401 9.095-43.715c0 0-32.115-24.601-40.346-7.515-8.17 17.057-7.485 38.258-15.685 64.231s-47.144 51.259-64.947 19.83c27.344-6.173 49.918-29.402 45.117-40.346-33.487-86.804 6.829-105.918 44.431-105.918 26.718 0 48.068 18.816 58.207 29.7l29.938-76.666c-5.487-3.638-8.975-8.38-8.975-13.687 0-8.737 9.095-16.013 21.679-18.876l58.536-150.141c-58.982 7.216-129.297-26.39-129.297-26.39s-147.636 114.805-218.725 23.259c129.834-45.117 153.123-91.605 153.123-159.921 0-68.375 16.401-252.868 241.924-258.355 225.494-5.487 278.93 226.21 281.525 327.386s82.033 254.448 82.928 210.703c11.511-18.279-7.276-294.854 51.11-300.161 31.429-5.487 72.401-3.698 99.716-3.25 11.212 47.949-82.003 16.788-82.689 86.505zM389.875 180.827c-76.666 13.389-62.084 99.328 34.62 156.611l48.605-124.645c-23.259-22.454-50.902-37.632-83.225-31.967zM588.501 376.681c-22.961-36.052-70.941-113.671-102.698-150.29l-46.577 119.337c7.753 3.996 15.834 7.842 24.452 11.421-10.436 14.253-24.273 22.812-39.69 27.702l-60.027 153.778c1.848 0.238 3.787 0.238 5.517 0.626 59.46-20.874 197.225 26.48 253.225 68.465 49.232 2.743-11.271-194.989-34.203-231.040z" />
<glyph unicode="&#xe608;" d="M892.941 56.048c0 0 14.944 54.053 9.103 73.535-4.685 15.537-46.67 110.332-71.578 171.116-7.531 20.874-13.194 39.169-13.373 48.717-0.594 30.155 38.933 107.011 30.125 158.336-8.865 51.267-100.813 118.516-88.42 129.1 12.394 10.615 128.033 5.426 137.077 17.702 9.103 12.276 24.788 26.567 14.203 45.099s-113.268 67.278-118.604 72.556c-5.278 5.308-13.254 97.255-75.166 88.39 19.451-122.934-4.388-168.033-109.678-206.936-15.033-15.093-10.763-72.022-4.003-97.464 24.759-136.335-170.79-75.996-232.583-76.915-63.275 3.588-96.633 11.001-154.453-27.22-42.609-28.109-74.424-8.955-96.663 9.577-38.933-61.141 68.879-58.086 63.008-75.017-17.346-33.743-7.115-99.717-1.868-110.302 6.494-12.987 8.807-32.824 6.79-39.377-7.947-25.647-70.718-87.114-70.718-119.138 0-32.053 4.537-110.124 4.537-110.124s-4.774-45.248 4.774-45.248c9.517 0 61.318 1.75 73.684 1.75s-6.198 41.036-31.579 43.646c0 9.755 5.812 105.913 5.812 105.913l74.631 89.724c0 0 8.599-88.004 20.488-105.499 11.919-17.465 53.402-96.692 53.402-96.692s-2.61-33.209 5.219-33.209 50.911 1.126 66.536 1.126c15.596 0-3.499 42.935-27.606 40.355-9.132 14.322-29.652 93.638-35.73 111.132s-7.709 78.427-6.879 104.579c0.77 26.182 27.012-19.332 150.123-18.532 123.051 0.8 163.081 18.532 163.081 18.532s26.804-205.986 28.673-220.9c2.49-16.249-2.668-33.831 5.723-33.831 8.421 0 58.324-0.326 72.734-0.326 14.44 0 2.787 47.53-30.867 47.471-6.553 15.834-11.713 113.504-11.713 113.504l53.728 98.649c0 0 83.022-84.357 94.735-106.506 11.741-22.12 6.198-81.719 6.198-81.719s-11.060-12.987-14.263-21.497c8.035-12.898 28.317-28.376 46.167-46.255 23.454 5.219 25.144 35.937 19.57 53.402-5.604 17.553-14.38 28.792-14.38 28.792zM590.886 712.135c66.892 36.056 19.628 112.467 5.485 103.63 7.679-30.125 3.499-77.833-40.652-74.87-44.239 2.996-45.722 91.089 27.991 110.568 73.654 19.422 134.705-122.37-12.097-170.109 96.129-7.087 146.269 37.153 136.247 153.326s-252.42 92.57-256.511-38.339c-4.21-130.939 111.814-96.604 139.538-84.209z" />
<glyph unicode="&#xe60d;" d="M965.184 744.288c-76.928 101.76-214.016 144.896-333.568 104.928-51.136-17.152-92.256-48.384-122.496-89.344-29.6 37.312-68.704 65.92-116.768 82.016-119.52 40.032-256.608-3.072-333.536-104.864-74.624-98.848-64.704-192.128-43.328-252.992 23.552-66.848 76.768-131.712 116.288-141.632 31.328-7.68 63.328 11.136 71.264 42.624 6.88 27.328-6.656 55.136-31.040 67.040-9.952 8.64-44.928 46.72-52.832 99.328-5.984 39.712 4.992 77.216 33.408 114.816 46.208 61.088 131.328 88.064 202.432 64.352 63.36-21.28 98.24-78.496 98.24-161.056v-482.24c0-32.48 26.272-58.72 58.752-58.72 32.512 0 58.752 26.24 58.752 58.72v489.44c0 82.624 34.88 139.808 98.24 161.088 71.2 23.744 156.224-3.232 202.432-64.32 28.416-37.632 39.328-75.2 33.376-114.784-7.936-52.672-42.88-90.752-52.8-99.328-24.384-11.936-37.952-39.68-31.072-67.072 7.936-31.552 39.808-50.592 71.296-42.624 39.52 9.92 92.704 74.784 116.288 141.632 21.376 60.928 31.296 154.24-43.328 252.992z" />
<glyph unicode="&#xe60e;" d="M702.657 309.321c0 0-70.137 16.237-77.627 39.995-7.459 23.757 13.107 54.391 29.652 46.103 16.513-8.288 22.314-42.511 53.070-54.36s102.703 87.97 110.193 113.538c7.551 25.568 11.848 40.27 11.848 40.27s255.592 166.884 0 417.72c-20.35 15.837-194.939 104.085-324.408-64.734-14.365-23.665-142.912-265.321 52.271-321.032 227.813-65.041 255.654 249.085 123.268 208.814 38.368-50.799 30.971-131.709-60.437-97.853-62.063 39.012 6.814 125.171 6.814 125.171s39.505 66.729 115.012 32.136c43.801-20.074 157.615-185.485-43.494-295.555-330.087-99.051-306.392 209.489-306.392 209.489s-41.928 60.377-79.805 31.983c31.953-28.423 61.573-67.466 17.74-66.268-60.346 23.665-219.71-49.234-249.698-78.086 104.3-24.095 334.199-439.757 355.010-641.419 20.136 1.196 35.114 230.914-12.83 331.499-23.849 33.057-122.041 99.265-29.742 210.501 18.908-2.364-87.264-80.051 91.132-172.133-17.74-34.286-40.27-155.651 18.908-189.966s110.777 156.448 199.513 174.19z" />
<glyph unicode="&#xe60f;" d="M924.448 129.536c20.8 2.24 102.56 105.696 99.456 127.232s-134.144 208.064-134.144 208.064-9.248 180.32-166.56 225.12c-206.592 479.648-565.888 220.576-519.616-13.792 283.712 251.328 355.424-65.504 355.424-65.504s-207.392 136.512-219.744 32.384c-12.352-104.128 171.168-156.544 252.864-178.208 1.568-9.184-181.92 38.464-206.592 39.424s-385.536-122.304-385.536-122.304l4.864-441.728 429.248 8.128c0 0 121.792 181.184 158.016 195.808 36.256 14.56 35.488-21.632 33.952-61.056 23.168 5.536 25.44 67.264 25.44 67.264s47.072-36.992 11.552-90.176c55.52 5.376 36.672 116 53.024 122.368 16.416 6.304 187.52-55.296 208.352-53.024z" />
<glyph unicode="&#xe610;" d="M1008 173.312c-114.421-58.993-262.539 41.881-262.539 41.881s262.539-60.264 232.996 136.586c-49.197-150.102-220.224-75.051-220.224-75.051s257.145 8.618 179.645 268.243c6.107-183.365-169.849-209.188-169.849-209.188s-17.422 73.222 23.374 137.795c40.796 64.573 99.727 139.035 75.082 185.814-24.583 46.779-41.106 56.296-41.106 56.296s28.83 151.652-164.393 108.562c-30.752-16.027 137.547-55.149 98.146-125.302-12.276-34.441-115.382 51.46-115.382 51.46s47.988-129.177 96.007-137.795c47.957-8.618 36.952-67.456 27.063-83.669-5.301-8.618-16.337-26.722-25.606-41.912-13.764 78.585-68.231 122.326-154.597 144.274 25.854 5.828 45.198 28.83 45.198 56.327 0 31.899-25.978 57.815-57.846 57.815-26.536 0-48.794-18.104-55.521-42.563-6.727 24.459-28.954 42.563-55.521 42.563-31.868 0-57.815-25.916-57.815-57.815 0-22.847 13.423-42.439 32.643-51.832-77.531-23.033-122.667-89.249-138.88-148.738-1.736-6.386-2.542-13.485-3.596-20.367-7.378 12.059-29.76 48.701-38.068 62.217-9.951 16.306-20.956 75.113 27.032 83.731s95.976 137.795 95.976 137.795-103.044-85.901-115.351-51.46c-39.401 70.153 128.867 109.275 98.115 125.302-193.161 43.090-164.362-108.562-164.362-108.562s-16.523-9.548-41.137-56.296 34.255-121.241 75.082-185.814c40.765-64.573 23.374-137.795 23.374-137.795s-175.956 25.823-169.818 209.188c-77.531-259.625 179.645-268.243 179.645-268.243s-171.058-75.051-220.224 75.051c-29.543-196.912 232.996-136.586 232.996-136.586s-148.087-100.874-262.539-41.912c81.22-141.546 307.613 15.035 307.613 15.035s-60.729-120.776-213.311-123.256c129.208-119.35 290.47 144.987 318.339 129.89 61.783-28.086 129.425-26.35 176.173-6.51 0.31 0.031 0.434-0.217 0.713-0.186 40.796 2.046 142.848-240.777 305.598-119.381-180.854 0.434-210.769 119.381-210.769 119.381s226.424-156.488 307.644-14.973zM573.938 706.171c10.199 0 18.476-8.308 18.476-18.445 0-10.168-8.277-18.476-18.476-18.476-10.168 0-18.476 8.308-18.476 18.476 0 10.137 8.308 18.445 18.476 18.445zM462.896 706.171c10.199 0 18.476-8.308 18.476-18.445 0-10.168-8.277-18.476-18.476-18.476s-18.476 8.308-18.476 18.476c0 10.137 8.277 18.445 18.476 18.445zM535.808 641.536c-12.276 1.891-23.901 2.511-35.247 2.635 8.494 7.347 14.787 17.112 17.856 28.272 3.565-13.020 11.501-24.242 22.227-31.837-1.705 0.217-3.131 0.682-4.836 0.93z" />
<glyph unicode="&#xe612;" d="M813.191 253.794c17.615 1.233 179.975 5.724 198.507 93.735 1.486 6.957-2.467 24.794-11.669 13.567-109.958-66-209.449 26.628-209.449 26.628s174.346 161.38 146.896 313.019c-27.45 151.703-261.408 285.6-330.792 237.215 106.511-58.094 166.851-198.475 166.851-198.475s-81.306-14.516-166.851 62.933c-30.676-172.638 176.306-183.959 211.41-188.798 23.276-3.194-48.986-134.309-74.539-159.609-3.036-2.973-4.586-6.135-5.123-9.456-30.518 17.678-124.632 67.613-226.368 67.613s-195.945-49.935-226.431-67.613c-0.601 3.289-2.119 6.483-5.092 9.456-25.647 25.3-97.909 156.415-74.602 159.609 35.072 4.807 242.022 16.16 211.378 188.798-85.481-77.448-166.819-62.933-166.819-62.933s60.339 140.381 166.819 198.475c-69.352 48.385-303.342-85.513-330.76-237.215-27.418-151.671 146.832-313.019 146.832-313.019s-99.491-92.628-209.417-26.628c-9.203 11.227-13.124-6.61-11.701-13.567 18.532-88.011 180.987-92.502 198.538-93.735 18.975-1.36 46.773-30.707 37.095-43.61-9.076-12.112-162.771-9.962-225.83 15.559-4.238 1.739-14.579 2.15-5.092-10.057 39.183-54.173 243.698-56.102 242.212-63.565-1.518-7.59-135.89-138.041-64.356-211.251 4.522-4.617 18.405-9.867 20.872 4.206 35.325 115.935 99.68 189.431 127.383 192.53 25.078 2.783 166.756-7.305 168.969-7.21 2.15-0.158 3.795 0.063 3.858 0.285 29.695 2.119 140.033 9.709 165.111 6.926 27.671-3.099 92.059-76.594 127.32-192.53 2.53-14.010 16.476-8.76 20.904-4.206 71.566 73.116-62.838 203.598-64.387 211.251-1.486 7.4 203.029 9.392 242.243 63.565 9.487 12.27-0.854 11.796-5.060 10.057-63.059-25.584-216.754-27.671-225.925-15.559-9.709 12.934 18.121 42.25 37.064 43.61z" />
<glyph unicode="&#xe615;" d="M894.56 337.728c-2.784-2.464-225.568-198.912-475.104-193.472 30.208 39.392 48.96 88.192 48.96 141.664 0 129.152-105.056 234.176-234.208 234.176-129.152 0.032-234.208-105.024-234.208-234.176 0-115.168 83.648-210.592 193.28-230.048 80.64-36.8 161.024-52.224 238.080-52.224 296.928 0 543.52 218.752 556.544 230.528 28.608 25.824 30.784 69.792 5.12 98.304-25.824 28.704-69.824 30.944-98.464 5.248zM234.208 191.136c-52.288 0-94.784 42.432-94.784 94.784 0 52.288 42.496 94.752 94.784 94.752s94.784-42.464 94.784-94.752c0-52.32-42.496-94.784-94.784-94.784zM129.44 577.92c2.784 2.464 225.568 198.88 475.136 193.44-30.208-39.392-48.992-88.16-48.992-141.632 0-129.152 105.056-234.176 234.24-234.176 129.12 0 234.176 105.024 234.176 234.176 0 115.136-83.68 210.56-193.28 230.016-80.672 36.896-161.024 52.256-238.080 52.256-296.96 0-543.552-218.752-556.544-230.528-28.64-25.824-30.784-69.792-5.12-98.272 25.856-28.768 69.856-31.008 98.464-5.28zM789.824 724.512c52.256 0 94.752-42.464 94.752-94.784s-42.496-94.784-94.752-94.784c-52.32 0-94.816 42.464-94.816 94.784 0 52.288 42.496 94.784 94.816 94.784z" />
<glyph unicode="&#xe617;" d="M808.435 631.314c-70.82 0-133.256-34.818-172.619-87.717-19.713 42.435-39.042 100.23-39.042 164.554 0 79.013-64.068 132.136-159.434 132.136-48.867 0-99.43-14.785-134.184-43.043-42.563 32.514-104.263 50.755-154.41 50.755-39.874 0-74.597-10.785-100.358-31.17-22.081-17.473-48.387-50.499-48.387-108.743 0-26.21 21.249-47.395 47.427-47.395s47.427 21.185 47.427 47.395c0 23.105 6.496 39.362 38.242 44.003 56.388 8.449 120.872-28.258 125.736-44.003v-387.384c0-26.178 21.249-47.395 47.427-47.395s47.395 21.217 47.395 47.395v387.384c0 16.705 38.594 37.282 83.653 37.282 20.769 0 39.49-4.544 51.331-12.321 9.409-6.24 13.217-13.537 13.217-24.962 0-137.129 67.044-246.575 91.942-282.514-0.192-3.328-0.992-6.528-0.992-9.921 0-33.794 8.481-65.284 22.305-93.766-29.058-44.195-110.503-144.841-251.568-147.881-26.178-0.576-46.979-22.177-46.435-48.451 0.576-25.858 21.697-46.403 47.427-46.403 0.32 0 0.672 0 0.992 0 161.77 3.424 262.896 102.438 311.635 166.538 36.514-28.194 81.637-45.731 131.208-45.731 118.951 0 215.629 96.71 215.629 215.597 0 118.951-96.614 215.757-215.565 215.757zM808.435 294.877c-66.564 0-120.744 54.179-120.744 120.776 0 66.564 54.179 120.744 120.744 120.744 66.628 0 120.808-54.179 120.808-120.744 0-66.596-54.179-120.776-120.808-120.776z" />
<glyph unicode="&#xe618;" d="M993.568 755.712c-122.496 312.192-367.552-62.112-392.736-62.112-16.704 0-54.816 0-78.624 0-12.032 0-20.448 0-20.448 0-23.776 0-61.888 0-78.592 0-25.152 0-270.208 374.304-392.736 62.112s164.512-339.072 164.512-339.072-142.688 142.688-78.912 231.68c63.776 88.928 214.848-68.832 214.848-68.832s-75.52-130.912-50.336-177.92c25.184-47.008 83.904-38.592 95.648-77.216 11.744-38.56 16.672-205.76 16.672-205.76 5.216-12.928 38.24-77.824 115.968-87.968 0.8-0.128 1.632-0.064 2.432-0.032 0.256-0.032 0.512 0.032 0.736 0 0.256 0.032 0.512-0.032 0.736 0 0.8-0.032 1.632-0.096 2.432 0.032 77.696 10.144 110.752 75.040 115.968 87.968 0 0 4.896 167.2 16.672 205.76 11.744 38.624 70.432 30.208 95.616 77.216s-50.304 177.92-50.304 177.92 151.072 157.792 214.848 68.832c63.776-88.96-78.912-231.648-78.912-231.648s287.040 26.848 164.512 339.040z" />
<glyph unicode="&#xe61a;" d="M903.969 635.814c12.763 43.128 52.919 110.355-40.884 222.604-93.89 112.307-318.039 53.939-228.84-107.878 14.745 114.755 120.030 103.449 178.864 32.842 22.088-29.49 5.536-76.96 5.536-76.96s-106.887 24.507-110.821-113.735c-1.573-29.752-39.077-74.833-42.225-77.077-66.586-46.654-235.426 9.383-391.619-1.72-139.174-1.486-203.575-79.233-174.727-173.241 18.038-8.392 26.925 70.578 36.28 66.615 9.383-3.934-16.29-48.111-11.103-66.615 5.187-18.533 24.419-76.756 17.018-100.68-7.401-23.953-65.945-81.243-65.945-111.113s4.255-102.632 4.255-102.632-4.487-42.225 4.429-42.225c8.917 0 57.203 1.602 68.713 1.602s-5.77 38.262-29.461 40.68c0 9.092 5.449 98.757 5.449 98.757l69.558 83.691c0 0 8.014-82.031 19.116-98.349 11.132-16.319 49.771-90.161 49.771-90.161s-2.419-30.977 4.866-30.977 47.353-0.612 61.923-0.612-3.147 41.729-25.615 39.311c-8.51 13.346-27.625 87.305-33.337 103.594-5.654 16.348-2.71 52.598-1.952 77.048s27.48 5.77 142.264 6.586c114.755 0.728 140.253 12.763 140.253 12.763s30.044-190.841 31.763-204.741c2.302-15.153-2.477-31.53 5.391-31.53 7.897 0 56.3 0.145 69.763 0.145s0.641 43.885-30.714 43.827c-6.12 14.657-10.927 105.722-10.927 105.722l50.092 91.967c0 0 77.397-78.65 88.325-99.252 10.928-20.661 5.77-76.202 5.77-76.202s-10.315-12.152-13.376-20.048c7.518-12.006 26.459-26.459 43.099-43.099 21.855 4.866 23.429 33.482 18.213 49.771-5.187 16.29-13.346 26.722-13.346 26.722s13.959 50.384 8.479 68.596-66.178 153.599-80.748 195.445c-14.57 41.904 69.879 181.516 69.879 181.516s116.241-64.43 147.509-35.027c20.253 18.504-53.677 110.908-40.942 154.066z" />
<glyph unicode="&#xe61c;" d="M713.301 637.259c0-49.503-40.13-89.633-89.633-89.633s-89.633 40.13-89.633 89.633c0 49.503 40.13 89.633 89.633 89.633s89.633-40.13 89.633-89.633zM330.139 485.626c208.385-218.028 435.298-36.043 463.405-6.892 57.795 69.999 62.474 245.883-6.323 333.303 15.619-297.955-141.263-339.31-246.136-267.951-130.45 101.553 33.292 310.475 198.268 171.52 1.929 40.058 11.983 210.693-5.944 228.588-295.711 105.347-611.656-240.508-403.27-458.568zM795.441 862.054c30.257-19.602 108.319-166.557 70.252-314.428-25.451-79.895-112.018-209.871-342.851-199.406-244.239 8.948-415.759 266.339-211.579 506.119-24.661-15.682-314.965-105.031-314.965-105.031v-705.81c0 0 289.039 112.081 345.064 194.948 0-44.832-2.245-156.85 22.416-203.896 24.598-47.014 156.819-107.497 187.234-71.707 30.384 35.885 162.288 235.259 162.288 235.259s80.654 38.066 125.803 176.516c100.003 54.254 317.083 310.444-43.663 487.434z" />
<glyph unicode="&#xe61f;" d="M749.953 478.979c5.009 68.271-188.141 131.535-188.141 131.535s-4.022 52.716 23.308 71.602c-18.327 33.295-51.624-86.572-51.624-86.572s-18.327 24.986-44.964 0c-9.989 0-13.319 96.561-39.956 94.91 11.667-39.956 6.659-96.561 6.659-96.561s-146.506-44.964-169.814-99.891 46.616-259.717 223.089-268.053 236.462 184.785 241.443 253.030zM720.572 559.877c12.52-5.007 32.738-36.786 41.874-36.786s124.877 90.727 133.188 115.713c8.311 24.986 0.053 30.393-10.762 48.693-28.316-16.648-176.793-122.613-164.301-127.621zM750.060 734.539c21.55-16.648 68.991-75.757 68.991-75.757h3.33c17.794 10.335 48.294 36.627 61.613 35.801s-125.729 241.415-276.363 209.77c121.519-44.964 133.986-107.375 99.891-127.354-34.123-19.978-96.561 21.656-128.206 63.264-11.641-103.22 149.222-89.076 170.747-105.724zM848.911 396.934c-19.418-9.483-37.932-17.101-52.288-20.138-14.571-3.037-22.829-0.986-28.769 1.545-3.063 1.412-3.862 1.785-7.086 3.649-2.477 1.359-3.783 2.078-3.783 2.078l-22.695-48.214c0 0 1.412-0.559 3.969-1.572 1.705-0.666 8.524-3.33 15.396-4.928 6.952-1.731 15.956-2.717 25.838-2.238 9.856 0.666 20.138 3.17 30.074 6.766 19.685 7.432 38.358 18.939 57.297 31.725 9.51 6.393 19.046 13.212 28.555 20.191 10.762 7.965 18.726 14.145 28.662 23.787 9.43 8.897 17.474 17.927 24.986 27.437 7.752 9.323 14.517 18.993 20.751 28.449 12.6 18.993 22.722 37.452 30.633 53.541 15.876 32.258 23.468 54.847 23.468 54.847s-10.655-21.362-30.527-50.718c-9.989-14.597-22.269-31.165-36.733-47.548-7.219-8.178-14.944-16.409-23.255-24.027-8.124-7.752-17.181-15.342-25.918-21.576-7.965-6.1-19.765-13.079-28.662-17.715-10.043-5.407-20.138-10.628-29.914-15.342zM996.19 358.656c-4.315-4.315-10.655-7.484-17.101-11.454-6.1-4.209-14.118-6.899-21.816-10.548-7.858-3.543-16.808-5.993-25.599-9.163-18.193-5.194-37.771-9.775-57.697-12.786-39.743-6.286-80.259-8.178-109.319-6.766-7.086 0.666-13.878 0.932-19.206 1.758-4.527 0.826-11.96 1.811-10.362 2.024-0.133 0-0.293-0.213-0.506-0.559-0.107-0.506-2.397 1.304-3.117 1.652-2.024 1.252-3.117 1.865-3.117 1.865l-26.797-46.056c0 0 1.199-0.533 3.436-1.412 1.545-0.559 1.678-0.826 5.009-1.838 3.222-0.986 7.032-1.971 11.348-2.797 10.388-2.051 13.931-0.906 21.896-1.199 7.192 0.053 14.517 0.986 22.882 1.652 32.524 3.703 73.946 12.546 114.115 25.812 20.085 6.446 39.69 14.571 57.537 22.988 8.738 4.847 17.368 8.79 25.013 13.798 7.538 5.194 15.050 9.217 20.964 14.731 6.047 5.194 11.827 9.43 15.769 14.784 3.889 5.088 8.311 8.577 10.095 13.052 4.209 8.018 6.606 12.6 6.606 12.6s-3.063-4.076-8.471-11.241c-2.078-3.942-7.139-6.739-11.561-10.895zM799.898 99.873c-2.903 8.258-5.009 17.474-9.323 25.758-3.676 8.631-8.045 17.101-13.052 25.119-19.286 32.897-45.79 60.041-64.41 79.805-4.527 4.847-8.684 9.217-12.386 13.079-3.33 3.676-6.899 7.618-6.899 8.151-0.425 0.559-0.799 0.986-1.252 1.359-0.693 1.332-1.359 2.451-1.785 3.33-1.038 1.865-1.598 2.85-1.598 2.85l-45.017-28.502c0 0 0.693-0.852 2.078-2.504 0.639-0.826 1.518-1.865 2.557-3.063 1.678-1.758 3.756-3.889 5.993-6.18 5.248-5.329 8.897-7.618 13.638-11.348 4.555-3.33 9.615-7.032 15.183-11.081 21.576-15.663 49.999-35.748 72.321-61.506 5.86-6.286 11.028-12.999 15.663-19.978 5.301-6.659 8.364-14.145 12.52-21.122 3.222-7.219 5.993-14.517 8.338-21.576 1.492-7.219 3.33-14.011 4.209-20.538 0.373-6.606 0.613-12.653 0.932-17.98 0.16-5.381-0.986-10.016-1.252-13.905-0.932-7.805-1.492-12.28-1.492-12.28s1.385 4.315 3.729 11.8c0.986 3.862 2.982 8.364 3.889 13.878 0.719 5.567 1.598 11.8 2.531 18.673 0.373 6.952-0.293 14.464-0.453 22.615-1.066 7.991-2.531 16.515-4.662 25.146zM633.467 186.046c-1.359 5.381-2.61 10.362-3.703 14.784-0.401 1.971-0.719 3.862-1.092 5.567-0.453 1.918-0.666 3.436-0.401 3.117 0.16 0.107-0.266 0.266 0 2.93 0.053 1.731 0.107 2.744 0.107 2.744l-53.222-1.758c0 0 0.186-0.932 0.506-2.717 0.107-0.879 0.932-5.834 2.77-12.12 0.986-3.49 1.918-5.461 2.797-7.352 0.879-2.051 1.918-4.289 2.957-6.633 2.133-4.262 4.529-9.057 7.139-14.305 10.362-20.297 23.521-46.349 32.684-74.186 4.768-13.852 8.097-28.049 10.442-41.608 2.024-13.638 2.717-26.531 2.451-37.719-0.666-11.081-1.518-20.538-3.117-26.957-1.306-6.5-2.024-10.282-2.024-10.282s1.545 3.516 4.209 9.59c3.010 6.1 5.967 15.13 9.243 26.371 2.77 11.348 5.061 24.879 6.1 39.637 0.666 14.731 0.559 30.607-1.199 46.349-3.063 31.565-10.975 62.492-16.648 84.548zM261.581 523.117c9.163 0 29.408 31.779 41.874 36.786s-135.985 110.945-164.274 127.594c-10.841-18.3-19.126-23.707-10.788-48.693 8.311-24.986 124.051-115.687 133.188-115.687zM201.646 658.782h3.33c0 0 47.441 59.109 68.991 75.757s182.414 2.504 170.747 105.724c-31.645-41.634-94.057-83.242-128.206-63.264-34.123 19.978-21.63 82.417 99.891 127.354-150.635 31.645-289.657-210.596-276.338-209.772s43.845-25.465 61.586-35.801zM54.048 465.499c6.286-9.457 13.052-19.151 20.751-28.449 7.512-9.51 15.61-18.513 25.039-27.463 9.935-9.564 17.847-15.823 28.609-23.733 9.562-7.006 19.046-13.825 28.555-20.218 18.993-12.759 37.665-24.293 57.351-31.699 9.935-3.623 20.165-6.1 30.020-6.766 9.883-0.506 18.966 0.48 25.838 2.184 6.926 1.625 13.745 4.235 15.45 4.955 2.61 1.012 3.916 1.572 3.916 1.572l-22.695 48.187c0 0-1.304-0.693-3.783-2.051-3.222-1.811-3.969-2.238-7.032-3.623-5.993-2.557-14.251-4.635-28.822-1.572-14.358 3.037-32.817 10.602-52.288 20.138-9.643 4.687-19.738 9.909-29.994 15.317-8.844 4.635-20.697 11.667-28.609 17.713-8.79 6.207-17.847 13.825-25.918 21.576-8.364 7.618-16.062 15.876-23.255 24.027-14.464 16.382-26.797 32.951-36.786 47.548-19.738 29.381-30.393 50.744-30.393 50.744s7.538-22.589 23.414-54.847c7.965-16.062 18.114-34.549 30.633-53.541zM280.786 261.404c7.91 0.293 11.534-0.852 21.843 1.199 4.315 0.826 8.124 1.811 11.348 2.797 3.33 1.012 3.49 1.332 5.007 1.838 2.291 0.879 3.49 1.412 3.49 1.412l-26.797 46.056c0 0-1.092-0.613-3.17-1.865-0.719-0.346-2.957-2.078-3.117-1.652-0.213 0.346-0.32 0.559-0.478 0.559 1.652-0.213-5.807-1.199-10.335-2.024-5.354-0.826-12.12-1.092-19.206-1.758-29.141-1.412-69.551 0.478-109.321 6.766-19.978 3.010-39.503 7.592-57.75 12.786-8.764 3.17-17.741 5.621-25.545 9.163-7.752 3.703-15.716 6.34-21.869 10.548-6.34 3.916-12.759 7.139-17.101 11.454-4.369 4.155-9.43 6.979-11.667 10.815-5.354 7.192-8.471 11.294-8.471 11.294s2.451-4.582 6.659-12.653c1.705-4.422 6.18-7.938 10.097-13.052 3.889-5.274 9.723-9.51 15.769-14.757 5.914-5.542 13.452-9.483 20.91-14.731 7.645-5.007 16.276-8.95 25.013-13.825 17.9-8.391 37.452-16.489 57.537-22.962 40.169-13.265 81.591-22.109 114.144-25.838 8.444-0.586 15.823-1.518 23.015-1.572zM377.772 228.346c1.359 1.652 2.051 2.504 2.051 2.504l-45.017 28.502c0 0-0.559-0.986-1.518-2.85-0.559-0.879-1.172-1.997-1.865-3.33-0.453-0.373-0.826-0.772-1.252-1.359 0.053-0.533-3.543-4.475-6.819-8.151-3.729-3.889-7.885-8.311-12.413-13.079-18.593-19.765-45.124-46.909-64.463-79.805-5.007-8.071-9.376-16.489-13.026-25.119-4.262-8.284-6.34-17.501-9.35-25.758-2.078-8.631-3.543-17.181-4.687-25.066-0.16-8.124-0.719-15.663-0.425-22.589 0.906-6.872 1.731-13.132 2.557-18.7 0.826-5.487 2.825-10.043 3.862-13.878 2.344-7.538 3.729-11.8 3.729-11.8s-0.559 4.475-1.492 12.28c-0.266 3.889-1.412 8.524-1.199 13.878 0.293 5.327 0.559 11.401 0.879 17.954 0.879 6.5 2.797 13.372 4.209 20.538 2.451 7.032 5.141 14.305 8.338 21.55 4.155 6.979 7.219 14.517 12.573 21.177 4.582 6.979 9.777 13.665 15.61 19.925 22.322 25.758 50.771 45.843 72.321 61.533 5.567 4.022 10.708 7.752 15.237 11.081 4.741 3.729 8.311 6.020 13.638 11.348 2.238 2.344 4.209 4.422 5.993 6.207 1.012 1.119 1.838 2.158 2.531 3.010zM395.754 212.444c0.266-2.744-0.213-2.823 0-2.93 0.266 0.32 0.053-1.199-0.399-3.117-0.373-1.705-0.693-3.596-1.145-5.567-1.092-4.422-2.291-9.403-3.649-14.784-5.727-22.056-13.638-52.955-16.702-84.521-1.678-15.743-1.865-31.645-1.145-46.323 1.038-14.837 3.383-28.316 6.126-39.637 3.197-11.294 6.1-20.351 9.217-26.398 2.664-6.1 4.155-9.59 4.155-9.59s-0.719 3.756-1.971 10.309c-1.678 6.34-2.451 15.849-3.17 26.904-0.213 11.215 0.48 24.134 2.451 37.719 2.397 13.612 5.674 27.81 10.495 41.634 9.11 27.864 22.269 53.888 32.684 74.186 2.61 5.248 5.007 10.043 7.165 14.305 1.012 2.344 1.997 4.582 2.93 6.633 0.826 1.865 1.758 3.889 2.77 7.379 1.838 6.259 2.717 11.188 2.823 12.067 0.346 1.758 0.506 2.744 0.506 2.744l-53.222 1.731c0 0 0-0.959 0.079-2.744z" />
<glyph unicode="&#xe620;" d="M837.137 333.778c-39.748 39.716-139.498 134.852-137.654 216.901 1.754 55.818-54.925 148.829-73.553 157.297-4.188 1.879-8.345 4.188-12.284 6.556-12.347 6.682-8.345 20.197-7.788 21.214 1.323 3.016 3.234 4.557 5.634 5.235 32.265-7.636 40.98-7.882 37.193 14.194 1.231 0.647 7.73 2.863 9.514 5.049 1.786 2.154-1.017 3.355-1.017 3.355s2.092-0.554 4.126 1.385-0.399 11.577-0.399 11.577 11.177-0.093 14.317 3.109-13.484 30.111-11.916 34.021c1.694 3.878 5.664 5.049 6.897 5.85 1.199 0.8 5.85 11.361-3.602 31.65-3.048 6.498-7.018 13.578-12.869 20.258 9.884 4.988 23.061 26.139 24.076 36.392 1.292 13.7-68.319 50.524-145.289 1.447-8.621-4.465-15.365-10.838-20.506-18.348-5.143 7.511-11.853 13.884-20.506 18.348-76.969 49.077-146.552 12.254-145.258-1.447 1.017-10.251 14.163-31.403 24.076-36.392-5.881-6.682-9.852-13.763-12.869-20.258-9.514-20.258-4.802-30.788-3.602-31.618 1.231-0.8 5.204-1.972 6.866-5.85 1.571-3.941-15.027-30.85-11.885-34.052s14.317-3.109 14.317-3.109-2.433-9.637-0.399-11.547c1.972-1.94 4.126-1.385 4.126-1.385s-2.802-1.199-1.048-3.385 8.251-4.402 9.482-5.049c-3.787-22.043 4.925-21.829 37.193-14.194 2.339-0.647 4.309-2.216 5.603-5.235 0.554-1.017 4.585-14.531-7.758-21.214-4.002-2.369-8.16-4.68-12.315-6.556-18.595-8.467-75.246-101.509-73.585-157.297 1.94-82.049-97.845-177.185-137.592-216.901-39.716-39.748-12.532-98.583 2.555-105.295 15.055-6.712 140.117-82.788 140.117-82.788s61.73-142.948 48.185-139.562c-14.686-0.954-60.038-22.752-60.038-22.752s-11.822-25.369-8.436-32.174c3.385-6.774 132.172 2.648 138.394 7.235 6.187 4.557-1.417 22.383-1.417 22.383s-36.237 128.077-20.904 123.398c6.219-1.94 15.209 8.436 16.933-5.080-0.861-22.782 14.686-39.379 36.115-41.411 6.035 0.523 22.814 43.258 33.651 82.326 10.838-39.070 27.587-81.802 33.651-82.326 21.4 1.94 36.977 18.595 36.115 41.411 1.725 13.515 10.746 3.202 16.933 5.080 15.333 4.68-20.904-123.43-20.904-123.43s-7.604-17.766-1.417-22.383 135.006-14.010 138.362-7.235c3.355 6.804-8.404 32.174-8.404 32.174s-45.413 21.797-60.038 22.752c-13.484-3.326 48.153 139.562 48.153 139.562s125.092 76.139 140.148 82.788c15.055 6.744 42.242 65.578 2.524 105.326zM494.436 765.64c0 0 0 0 5.696-2.709 3.756-1.048 7.943 2.524 11.885 9.206 3.941-6.682 8.128-10.251 11.885-9.206 5.696 2.709 5.696 2.709 5.696 2.709 3.109-6.004 7.359-31.159 10.746-48.366-13.085-4.25-22.907-18.565-28.264-35.994-5.356 17.427-15.179 31.743-28.295 35.994 3.296 17.243 7.574 42.365 10.652 48.366zM626.086 224.264c0-12.378-60.068-21.736-74.94-12.561-9.113 6.067-28.264 0.123-39.133-5.294-10.901 5.418-30.049 11.361-39.133 5.294-14.81-9.177-74.94 0.185-74.94 12.561 0 16.933 0 65.979 0 65.979s50.216-11.853 63.518 34.698c13.302 46.551-38.67 185.159 42.272 283.25 3.54 4.434 6.219 9.669 8.283 15.424 2.033-5.758 4.712-10.991 8.283-15.424 80.942-98.121 28.97-236.7 42.272-283.25 13.363-46.551 63.486-34.698 63.486-34.698s0.032-49.046 0.032-65.979z" />
<glyph unicode="&#xe622;" d="M908.525 864.286c-92.241 156.924-211.601 46.121-234.897 12.375-23.266-33.746-37.755-127.029-37.755-127.029s54.455-15.626 55.37-27.021c0.979-11.459-61.842-24.307-61.842-24.307s-0.947-9.502-8.081-26.169c-9.028-22.35-95.146-65.282-98.965-91.326-5.682-38.513 49.057-29.958 49.435-47.541-0.379-9.407-1.135-27.969-1.357-32.925-2.967-1.199-16.889-14.332-15.215-25.949 1.957-13.322 15.153-17.678 15.153-17.678s-17.583-17.551-13.132-26.612c4.451-9.060 27.401-7.608 31.695-11.428s4.861-23.55-1.925-29.958c-6.819-6.377-28.506-20.93-17.11-53.255 11.364-32.326 22.855-43.785 145.497-28.537 44.069-118.57-94.136-165.479-143.666-182.62-21.813-7.576-44.763-45.994-59.853-86.149-15.090 40.154-37.976 78.604-59.853 86.149-49.435 17.11-187.671 64.020-143.634 182.62 122.703-15.215 134.132-3.82 145.497 28.537 11.396 32.357-10.291 46.847-17.11 53.255-6.787 6.408-6.156 26.171-1.925 29.958s27.243 2.368 31.695 11.428c4.451 9.060-13.132 26.612-13.132 26.612s13.259 4.356 15.153 17.678c1.673 11.649-12.311 24.781-15.215 25.949-0.221 4.956-0.979 23.518-1.389 32.925 0.474 17.615 55.149 9.060 49.467 47.541-3.82 26.012-89.937 68.977-98.965 91.326-7.134 16.636-8.113 26.169-8.113 26.169s-62.756 12.849-61.778 24.244c0.915 11.428 55.37 27.023 55.37 27.023s-14.269 93.315-37.566 127.061c-23.297 33.778-142.719 144.581-234.897-12.375-124.662-212.073-116.044-344.943-72.292-534.508 8.46-36.493 31.978-101.838 47.573-136.942 24.307 27.938 100.133 86.843 167.342 497.731-13.891-385.507-158.345-511.4-153.957-518.692 72.070-120.399 202.098-222.459 405.016-235.465 0.663-0.063 1.137-0.442 1.894-0.379 0.379 0 0.663 0.063 1.010 0.063s0.663-0.063 0.979-0.063c0.694-0.063 1.169 0.316 1.894 0.379 202.919 13.038 332.947 115.096 405.016 235.465 4.388 7.261-140.067 133.185-153.957 518.692 67.208-410.888 143.003-469.794 167.342-497.731 15.595 35.135 39.144 100.449 47.573 136.942 43.658 189.597 52.276 322.466-72.385 534.539z" />
<glyph unicode="&#xe624;" d="M686.756 196.914v483.454c68.796 15.336 122.688 41.926 160.409 80.081 52.254 52.904 54.325 107.476 54.203 117.896-0.402 31.137-25.199 54.943-56.306 56.058-31.444 0.896-57.603-24.054-60.046-55.068-2.628-33.95-59.303-98.046-254.589-98.046-199.368 0-264.67 67.651-271.411 103.702-4.021 31.013-31.662 54.234-63.26 50.553-32.002-3-55.501-31.352-52.502-63.386 0.649-6.464 14.903-125.007 185.796-179.797v-496.381c-190.185-51.513-205.49-179.054-206.141-185.825-2.937-31.042 19.325-57.603 50.244-61.777 30.826-4.173 59.861 17.934 65.364 48.605 6.432 36.020 71.516 104.044 271.473 104.044 195.287 0 251.962-64.096 254.589-95.726-0.402-32.094 25.354-58.5 57.479-58.84 0.217 0 0.495 0 0.68 0 31.785 0 57.819 25.632 58.191 57.51 0.094 10.39-1.948 64.962-54.203 117.865-33.794 34.29-80.917 59.18-139.971 75.073zM445.432 215.188v454.236c26.25-2.689 53.922-4.545 84.935-4.545 13.79 0 26.899 0.587 40.009 1.144v-450.712c-19.356 1.33-39.328 2.167-60.354 2.167-22.849 0.031-44.37-0.773-64.59-2.287z" />
<glyph unicode="&#xe628;" d="M808.774 573.036c0 0 21.566 82.973 0 118.364-21.503 35.327-147.547 93.789-147.547 93.789s58.43 130.716-126.044 139.932c101.501-53.854 70.718-115.324 70.718-115.324l-119.932-39.999c0 0-49.182 127.58-289.015 143.004 135.324-7.679 247.736-13.472 304.598-107.261 29.919 9.28 41.919 20.319 73.598 26.463-8.032 72.83-103.708 103.133-139.996 111.549-36.318 8.48-239.801 37.887-303.831-11.36-29.247-13.856-123.484-142.332-123.996-210.009-0.608-67.678-5.728-574.926-5.728-614.925s49.246-169.147 81.533-169.147c32.287 0 396.628 0 481.201 0 49.214 1.504-378.164 495.921-167.547 627.276-113.82-195.258 130.652-430.515 172.155-464.337 41.503-33.791 179.866-49.214 198.298-46.111 18.431 3.136 73.822 115.324 73.822 129.148 0 13.856-118.364 83.101-127.58 95.325s-110.141-10.304-110.141 34.303c0 44.607 96.317 67.134 133.212 54.845 36.895-12.32 129.116-93.789 150.651-95.325 21.566-1.568 133.692 138.396 138.332 172.219s-216.761 127.58-216.761 127.58zM331.029 605.643c-7.328-4.288-16.127-9.6-24.927-17.151-9.152-7.168-17.567-16.959-26.015-27.551-7.296-11.424-14.496-24.095-17.663-38.943-4.352-14.464-3.903-30.783-2.912-47.327 1.825-16.671 6.497-33.791 12.352-51.038 5.76-18.719 11.616-37.694 17.503-56.67 6.208-18.335 8.416-39.647 12.576-59.102 4.512-19.839 5.344-39.327 7.072-58.046 2.144-18.687 2.592-36.831 2.208-54.046 0.255-17.215 0-33.471-1.44-48.382-1.504-29.951-6.144-54.59-8.672-71.742-3.136-17.151-5.824-26.783-5.824-26.783s-0.511 9.92-1.344 27.263c-0.672 17.279-2.752 41.887-5.344 71.101-2.88 29.119-5.696 63.23-11.904 99.005-2.496 17.983-5.504 36.511-9.664 54.59-4.448 18.367-6.24 36.639-12.992 55.614-5.376 18.783-10.688 37.599-15.968 56.062-6.4 19.583-9.792 40.031-10.88 60.158-0.384 20.191 1.92 40.223 9.088 57.758 5.824 18.015 17.055 32.447 27.711 44.223 22.879 22.879 47.711 32.159 64.222 37.727 16.927 5.12 27.039 5.44 27.039 5.44s-9.44-3.648-24.223-12.16zM288.373 693.832c-21.247-9.696-45.823-22.015-66.814-39.423-10.368-8.672-20.031-18.687-26.367-29.823-4.32-5.152-5.024-11.68-8-17.311-0.992-6.848-2.304-11.2-3.104-20.031-1.535-15.392-3.968-33.023-7.136-48.734-2.752-16.031-7.36-31.327-11.52-46.079-8.703-29.535-19.486-56.222-30.655-78.142-10.912-22.047-22.399-39.359-31.999-50.366-4.736-5.6-9.44-9.184-12.64-11.328-3.616-1.568-5.536-2.304-5.536-2.304s1.44 1.312 4.192 3.808c2.304 3.008 4.864 7.681 7.808 13.888 5.696 12.576 11.904 31.327 18.463 54.078 6.272 22.815 12.928 49.566 18.847 78.334 3.104 14.368 5.408 29.376 7.968 44.448 2.624 15.328 4.16 29.567 5.472 46.014 0.8 7.136 3.072 18.495 5.184 27.294 4.064 8.575 6.592 18.271 12.512 25.471 9.696 16.191 23.839 27.263 37.023 36.895 13.504 9.44 27.679 15.808 41.055 21.407 13.472 5.28 26.495 9.024 38.527 11.904 48.446 11.232 81.277 8.416 81.277 8.416s-31.391-9.632-74.558-28.415z" />
<glyph unicode="&#xe62a;" d="M984.864 317.308c47.14 57.615 112.632 460.922-214.748 597.103-327.338 136.181-484.47-68.091-481.872-151.895-109.993-39.262-133.583-162.37-133.583-162.37s-159.772-78.566-154.534-172.846c5.238-94.279 120.468-99.517 120.468-99.517l34.946-48.020 6.956 48.020c0 0 172.175 79.446 180.053 10.015s-151.182-93.818-151.182-93.818l-32.306 23.549 9.847-43.955c0 0-35.156-11.062-19.443-45.045 31.426-52.377 136.181 18.353 136.181 18.353s-81.122-306.136 151.853-238.338c-144.059 73.328-13.115 185.961-13.115 185.961s28.829-293.314 314.265-115.23c-225.223-23.591-173.6 89.922-149.255 115.23 24.303 25.309 149.255 155.247 149.255 155.247s65.493-97.632-94.279-217.304c209.51-55.855 219.985 326.5 219.985 326.5s49.78-183.321-81.206-306.429c298.551 65.493 149.255 439.971 149.255 439.971s55.059-18.269 52.461-225.181zM196.394 610.621c-5.028 18.982 9.386 34.066 24.429 36.664s69.851-13.576 85.731-22.082c15.881-8.506-105.132-33.563-110.16-14.582z" />
<glyph unicode="&#xe62c;" d="M523.774 531.861c-37.278-87.579 152.784-95.017 238.512-137.88s124.855-132.324 145.317-132.324c106.218 141.643-59.592 335.438-59.592 335.438s-63.324 18.638-76.437 80.14c-13.052 61.502 44.716 152.814 35.395 106.218-9.261-46.567 57.798-70.822 65.266-102.483 7.437-31.663-1.851-83.874-1.851-83.874s180.743-109.952 68.968-368.982c42.864-173.335-52.124-173.335-52.124-173.335s31.634-61.502-57.798-61.502c-89.46 0-141.584 0-221.755 0s-22.401 67.088 12.994 67.088 64.207-1.118 78.26 0c-4.674-0.294-107.453 7.967-85.579 77.082-131.207-10.76-301.984 42.187-301.984 42.187s-82.992-198.971-144.495-197.118c-61.502 1.851-111.156-3.675-106.57 29.399 10.113 66.146 101.073 2.764 109.421 128.619 5.586 72.674 46.567 126.739 46.567 126.739s-113.655 76.437-76.378 296.28c-12.876-1.059-48.45-7.437-59.651 14.935-11.172 22.343 0 48.42 0 48.42s-47.478 64.354-26.987 101.632c20.462 37.308 104.513 48.332 143.642 52.065 15.933 151.904 83.052 149.316 187.416 104.572 171.395 20.462 215.551-244.274 139.438-353.314z" />
<glyph unicode="&#xe62d;" d="M943.402 197.5c-7.219 35.122-41.642 57.928-76.642 50.65-35.181-7.158-57.807-41.491-50.589-76.642 1.607-8.219-68.544-102.179-118.526-79.766-49.952 22.443-53.713 113.765-21.382 155.467 70.788 91.048 230.623 321.853 185.705 497.186-17.772 69.363-65.147 122.408-138.392 154.133-110.944 44.948-204.692 42.127-278.816-8.583-103.968-71.092-130.688-213.517-137.391-291.402-0.424 0-0.759 0.152-1.183 0.152-125.957 0-228.44-102.483-228.44-228.44 0-125.927 102.483-228.409 228.44-228.409 125.927 0 228.409 102.483 228.409 228.409 0 77.977-39.397 146.854-99.237 188.101 1.122 54.895 16.985 179.579 82.829 224.467 36.031 24.324 88.501 22.869 155.073-4.186 46.131-19.927 57.928-47.526 62.781-66.542 20.654-80.524-43.098-231.745-162.382-385.211-89.593-115.282-74.004-240.723 41.581-335.592 68.483-42.946 172.634-19.259 213.245 5.277 64.086 38.549 132.599 114.371 114.917 200.931zM306.186 271.807c-54.319 0-98.478 44.19-98.478 98.449 0 54.319 44.159 98.509 98.478 98.509s98.478-44.19 98.478-98.509c-0.030-54.259-44.19-98.449-98.478-98.449z" />
<glyph unicode="&#xe630;" d="M905.128 529.308h48.18v60.893c10.502 11.928 17.107 27.435 17.107 44.601 0 37.472-30.403 67.817-67.846 67.817s-67.817-30.345-67.817-67.817c0-1.833 0.436-3.491 0.553-5.324h-226.785v116.025h-0.815c0.233 2.706 0.815 5.295 0.815 8.059-0.087 52.98-42.971 95.922-95.98 95.922-0.174 0-0.349-0.058-0.524-0.058s-0.349 0.058-0.524 0.058c-52.951 0-95.922-42.971-95.922-95.922 0-2.822 0.582-5.411 0.786-8.059h-0.786v-115.967h-226.785c0.145 1.804 0.553 3.462 0.553 5.324 0 37.472-30.374 67.817-67.846 67.817-37.443 0-67.788-30.345-67.788-67.817 0-17.165 6.604-32.672 17.107-44.601v-60.893h48.151c-28.512-64.035-80.357-198.041-71.425-307.957 12.219-150.327 164.991-150.327 233.418-141.745 68.428 8.553 172.7 91.616 149.105 211.424-16.089 81.549-107.123 182.272-163.595 238.278h491.072c-56.471-56.064-147.476-156.785-163.536-238.278-23.624-119.75 80.619-202.871 149.047-211.424 68.486-8.582 221.229-8.582 233.389 141.745 8.961 109.887-42.855 243.863-71.309 307.899zM366.488 292.254c1.251-63.569-190.652-122.222-233.36-76.983-38.083 40.207 21.995 264.811 35.756 314.067h52.951c39.247-49.43 143.694-185.53 144.654-237.084zM890.959 215.242c-42.796-45.271-234.612 13.44-233.418 76.983 1.018 51.554 105.436 187.654 144.741 237.055h52.893c13.819-49.227 73.811-273.83 35.785-314.038z" />
<glyph unicode="&#xe631;" d="M968.672 282.596l-105.792 329.856h-26.816v18.048c52.448 12.928 53.344 64.64 53.344 64.64s-19.872-23.328-53.344-32.384v14.305h-20.928v-17.76c-0.864-0.032-1.664-0.257-2.561-0.288-47.68-1.152-69.184 77.952-129.184 77.952-55.872 0-118.304-33.248-158.624-37.856v90.016c28.512 4.448 50.368 28.832 50.368 58.592 0.064 32.832-26.624 59.488-59.488 59.488s-59.52-26.656-59.52-59.488c0-31.36 24.384-56.8 55.2-59.104v-88.832c-40.352 6.368-100.224 37.183-154.111 37.183-60 0-81.44-79.104-129.152-77.952-3.872 0.128-7.424 0.736-11.072 1.216v16.832h-20.928v-11.936c-28.384 10.304-44.8 30.016-44.8 30.016s0.896-45.792 44.8-61.888v-20.768h-26.785l-107.68-329.92h-61.6c0 0 44.192-84.416 202.464-84.416s202.464 84.416 202.464 84.416h-55.328l-105.76 329.888h-26.848v15.871c4.224-0.448 8.64-0.704 13.408-0.704 77.984 0 89.601 49.44 132.672 49.44 38.753 0 84.16-48.128 140.128-57.855 2.4-0.672 14.144 0.128 10.592-0.736l-1.792-184.864-35.552-72 1.216-216.896h-97.728v-38.399l-78.56-129.152h446.816l-96 130.912v36.671h-85.503v214.912l-36 75.648-0.032 183.584c3.232 0.032 3.104-0.672 6.816 0.32 55.968 9.727 101.376 57.855 140.128 57.855 43.104 0 54.688-49.44 132.672-49.44 1.76 0 3.232 0.192 4.864 0.257v-15.36h-26.752l-107.68-329.888h-61.633c0 0 44.192-84.416 202.464-84.416s202.464 84.384 202.464 84.384h-55.328zM196.064 282.596h-112.416l100.8 308.896h11.616v-308.896zM228.576 591.523l99.072-308.896h-110.656v308.896h11.584zM815.136 282.596h-112.448l100.8 308.896h11.616v-308.896zM836.064 282.596v308.928h11.552l99.072-308.896-110.624-0.032z" />
<glyph unicode="&#xe634;" d="M56.96 391.84h223.040c31.456 0 56.96 25.472 56.96 56.896l-0.064 11.264c-0.48 43.552-1.472 134.272 48.736 185.088 27.264 27.552 67.232 40.96 122.176 40.96 79.904 0 130.112-28.32 158.112-89.024 24.672-53.696 24.672-118.112 24.64-148.256 0-31.424 25.504-56.896 56.928-56.896h219.424c31.456 0 56.96 25.472 56.96 56.896s-25.504 56.928-56.96 56.928h-164.224c-2.944 39.616-11.104 90.4-33.376 138.944-32.608 70.912-104.48 155.36-261.536 155.36-85.76 0-154.112-25.152-203.2-74.816-64.672-65.344-78.528-156.352-81.184-219.424h-166.432c-31.456 0-56.96-25.472-56.96-56.928 0-31.52 25.504-56.992 56.96-56.992zM967.072 306.368h-910.112c-31.456 0-56.96-25.504-56.96-56.896 0-31.456 25.504-56.96 56.96-56.96h910.112c31.424 0 56.928 25.504 56.928 56.96s-25.504 56.896-56.928 56.896z" />
<glyph unicode="&#xe637;" d="M558.465 222.44c0 0-17.462-15.043-36.306-15.043-18.875 0-36.337 15.043-36.337 15.043v-135.329l-179.423-151.628h431.519l-179.423 151.628-0.031 135.329zM565.092 346.84c0-22.271-19.222-40.325-42.932-40.325s-42.932 18.054-42.932 40.325c0 22.271 19.222 40.325 42.932 40.325s42.932-18.054 42.932-40.325zM561.92 265.938c0-22.271-19.222-40.325-42.932-40.325s-42.932 18.054-42.932 40.325c0 22.271 19.222 40.325 42.932 40.325s42.932-18.054 42.932-40.325zM556.958 904.234c0-20.017-16.226-36.243-36.243-36.243s-36.243 16.226-36.243 36.243c0 20.017 16.226 36.243 36.243 36.243s36.243-16.226 36.243-36.243zM559.847 867.992c0 0-14.509-19.158-39.163-19.158s-40.325 19.158-40.325 19.158v-103.86h79.457l0.031 103.86zM558.685 387.165v215.759c0 0-20.854 20.885-39.729 20.885s-39.729-17.995-39.729-17.995v-218.649c0 0 22.613 16.802 41.77 16.802s37.687-16.802 37.687-16.802zM261.145 689.354c0 0 75.657-103.609 107.565-106.529 29.271-2.638 119.719 66.047 152.382 79.017 32.694-12.97 128.482-82.975 157.753-80.337 31.908 2.92 102.635 103.169 102.635 103.169s40.168-33.070 50.061-23.177c9.861 9.893-34.797 69.596-48.711 69.596s-93.966-56.844-110.235-56.844c-35.080 0-116.171 66.644-147.074 73.961-1.13 0.377-7.663 0.377-8.794 0-30.872-7.318-111.994-73.961-147.074-73.961-16.237 0-98.615 59.735-112.527 59.735s-56.248-62.624-46.419-72.516c9.83-9.83 50.438 27.889 50.438 27.889zM35.523 276.364l210.546-204.139 210.546 204.139zM243.18 591.901v-285.606h27.826v283.502l173.675-290.411 32.977-0.534-220.282 368.015-217.958-368.267h31.249zM775.795 66.824l210.546 204.202h-421.092zM800.794 300.83v283.565l154.925-290.098 32.757-0.566-201.344 367.733-231.965-368.078h33.479l184.259 293.113v-285.669z" />
<glyph unicode="&#xe638;" d="M954.368 487.072h-242.88c22.432 223.264 147.392 307.392 154.688 312.128 32.544 20.032 42.752 62.592 23.008 95.328-20 32.896-62.752 43.232-95.648 23.424-8.608-5.152-196.672-123.2-221.984-430.88h-156.832c-25.376 307.68-213.408 425.696-221.984 430.88-32.672 19.712-74.88 9.312-94.912-23.040-20.16-32.384-10.144-75.136 22.080-95.648 5.856-3.808 132.224-87.552 154.72-312.192h-204.992c-38.496 0-69.632-31.168-69.632-69.664 0-38.432 31.136-69.632 69.632-69.632h204.576c-23.36-199.072-143.584-235.552-148.288-236.8-37.376-8.992-60.448-46.592-51.456-83.968 7.68-31.904 36.192-53.408 67.648-53.408 5.376 0 10.816 0.672 16.32 1.952 9.856 2.432 227.616 58.528 256.096 372.32h157.248c28.448-313.792 246.208-369.888 256.128-372.32 5.44-1.28 10.88-1.952 16.16-1.952 30.944 0 58.752 20.992 66.848 52.384 9.536 36.736-12.768 74.528-49.44 84.672-5.632 1.568-125.984 38.048-149.344 237.12h242.272c38.464 0 69.632 31.2 69.632 69.632 0 38.496-31.168 69.664-69.664 69.664z" />
<glyph unicode="&#xe639;" d="M690.806 385.17c-101.443 1.056-286.857-84.003-332.682-64.386s-7.616 197.414-190.886 187.59c34.881-97.059-9.856-111.267-9.856-111.267s-62.146-52.418-145.061 91.587c-81.827-257.448 269.416-211.591 269.416-211.591s22.945-90.531 160.389-107.971c10.496-7.136 28.065-72.802 36.929-84.227s92.835 3.456 92.835 3.456 50.114 2.176 51.298 46.913c149.445-18.561 314.282 119.972 320.842 146.149 6.496 26.177-1.76 33.825-1.76 33.825s-150.021 68.834-251.464 69.922zM771.512 224.333c-20.513 0-37.057 15.488-37.057 34.657s16.641 34.689 37.057 34.689c20.513 0 37.121-15.52 37.121-34.689s-16.609-34.657-37.121-34.657zM742.199 635.482c0 0-22.881 90.531-160.325 107.971-10.56 7.136-28.065 72.802-36.929 84.259-8.864 11.392-92.867-3.488-92.867-3.488s-50.178-2.176-51.266-46.913c-149.445 18.561-314.314-119.972-320.874-146.149-6.56-26.209 1.728-33.857 1.728-33.857s150.053-68.706 251.528-69.858c101.443-1.056 286.857 84.003 332.682 64.386s7.616-197.414 190.886-187.59c-34.913 97.059 9.824 111.235 9.824 111.235s62.178 52.418 145.061-91.587c81.795 257.416-269.448 211.591-269.448 211.591zM252.456 619.001c-20.513 0-37.057 15.52-37.057 34.689s16.577 34.657 37.057 34.657c20.481 0 37.089-15.488 37.089-34.657s-16.609-34.689-37.089-34.689z" />
<glyph unicode="&#xe63a;" d="M379.772 231.857c0 0-16.487 108.233-64.687 115.26 22.944-54.687 0-83.487 0-83.487l-64.687 36.488c0 0 22.944 51.744 0 76.43-8.799-17.028-34.085-28.199-34.085-28.199s14.085 70.573-11.802 79.973c-3.454-21.833-25.857-51.804-25.857-51.804l-25.857 124.66c0 0 142.889 94.659 45.858 238.718-12.313-126.432-89.403-149.345-98.773-151.718-48.23 10.631-5.886 141.117-5.886 141.117s-151.688-139.375 17.598-234.003c-95.199-184.632 58.831-322.205 58.831-322.205s-44.116 2.973-52.915 25.857c-32.314-32.344 50.573-78.802 50.573-78.802s-13.544-7.688-24.686-24.686c-11.202-16.998 84.057-125.080 192.861-54.116 8.108 5.316 80.003-68.201 270.461-52.945 29.1 2.192 98.082-13.784 110.575 5.856 12.493 19.7-7.808 62.285-33.845 73.096 20.752 8.799 69.282-63.336 67.931-42.464-21.623 151.388-371.607 206.975-371.607 206.975zM608.971 20.648c-13.004 0-23.394 10.481-23.394 23.334 0 12.913 10.451 23.364 23.394 23.364 12.913 0 23.304-10.511 23.304-23.364s-10.451-23.334-23.304-23.334zM912.377 386.548c95.259 184.632-58.801 322.205-58.801 322.205s44.116-2.973 52.945-25.887c32.314 32.344-50.603 78.832-50.603 78.832s13.514 7.658 24.656 24.686c11.142 16.998-84.118 125.050-192.861 54.086-8.108-5.316-80.003 68.201-270.431 52.915-29.16-2.162-98.082 13.874-110.575-5.826s7.808-62.255 33.785-73.096c-20.661-8.799-69.192 63.426-67.901 42.524 21.653-151.448 371.637-207.005 371.637-207.005s16.517-108.233 64.687-115.26c-22.944 54.717 0 83.487 0 83.487l64.687-36.458c0 0-22.944-51.744 0-76.43 8.739 17.058 34.085 28.199 34.085 28.199s-14.085-70.573 11.742-79.943c3.514 21.743 25.917 51.744 25.917 51.744l25.797-124.63c0 0-142.889-94.659-45.798-238.748 12.313 126.432 89.403 149.375 98.773 151.718 48.17-10.631 5.886-141.117 5.886-141.117s151.718 139.375-17.628 234.004zM415.059 814.464c-12.913 0-23.394 10.511-23.394 23.394s10.511 23.334 23.394 23.334 23.334-10.481 23.334-23.334c0.030-12.883-10.421-23.394-23.334-23.394z" />
<glyph unicode="&#xe63f;" d="M485.34 479.090c0 0 4.901-9.866 9.457-10.965 33.054-7.792 180.318-41.286 222.672-14.799 22.622 15.050-60.263 85.87-60.263 85.87s97.872-45.182 114.525-28.655c60.577 97.527-95.547 257.956-135.23 295.817-9.96 11.217-17.312 2.796-17.312 2.796l-185.251-128.35 51.403-201.715zM656.452 661.23c16.244 0 29.377-13.165 29.377-29.377 0-16.244-13.133-29.409-29.377-29.409-16.213 0-29.377 13.165-29.377 29.409 0 16.213 13.165 29.377 29.377 29.377zM437.834 487.667c20.297-1.131 14.453 21.397 14.453 21.397l-46.658 185.251 198.070 129.669c0 0 13.196 8.735 0.66 16.621-31.545 26.895-123.919 103.245-155.025 100.732-37.672-3.016-28.623-102.428-55.739-96.396-283.186-13.51-383.698-502.118-370.533-518.111 13.165-16.024 23.91-27.304 48.166-9.080 24.727-53.696-32.457-175.385-51.528-225.154-4.964-15.050 7.666-11.060 16.37-3.645 43.736 43.705 74.716 59.226 92.248 57.53 17.501-1.728 57.938-17.061 81.408-30.163 11.217-8.263 24.225-5.97 12.348 10.965-183.051 385.331 129.732 369.245 215.759 360.384zM538.66 398.373c0 0-4.839 9.834-9.457 10.965-32.991 7.792-180.255 41.286-222.64 14.83-22.591-15.050 60.232-85.87 60.232-85.87s-97.872 45.119-114.462 28.592c-60.64-97.527 95.516-257.956 135.199-295.817 9.96-11.217 17.312-2.796 17.312-2.796l185.251 128.381-51.434 201.715zM367.548 216.232c-16.213 0-29.377 13.165-29.377 29.377 0 16.244 13.165 29.44 29.377 29.44 16.244 0 29.377-13.196 29.377-29.44 0-16.213-13.133-29.377-29.377-29.377zM987.993 788.511c-43.736-43.705-74.748-59.226-92.28-57.53s-57.938 17.061-81.377 30.163c-11.248 8.263-24.225 5.97-12.379-10.965 182.988-385.363-129.795-369.276-215.822-360.384-20.297 1.1-14.422-21.428-14.422-21.428l46.627-185.251-198.070-129.669c0 0-13.196-8.735-0.66-16.621 31.545-26.864 123.951-103.245 155.025-100.763 37.609 3.079 28.592 102.491 55.707 96.396 283.217 13.573 383.729 502.118 370.533 518.143-13.196 15.993-23.942 27.272-48.166 9.049-24.727 53.696 32.457 175.416 51.591 225.154 4.964 15.081-7.635 11.060-16.307 3.708z" />
<glyph unicode="&#xe642;" d="M1024 448.513l-75.576 38.513v-29.281h-29.378c-1.871 380.17-430.177 410.259-430.177 410.259l-51.46 75.995-35.254-17.336 67.537-97.335-104.34-168.777c-4.778 0.484-9.459 1.259-14.398 1.259-72.702 0-131.652-52.622-131.652-117.544 0-36.803 19.338-69.248 48.974-90.781-31.573-12.203-268.276-108.117-268.276-108.117v-66.569l149.731-22.050c0 0 49.199-130.554 33.801-193.766s-138.885-88.198-138.885-88.198l0.065-45.939c0 0 268.34 0 305.337 0s71.314 83.614 36.997 161.934c10.363 19.661 20.597 41.71 30.734 64.018l57.723-101.435c-19.273-26.505-59.175-81.387-59.175-81.387l24.697-36.997 53.978 80.16c0 0 411.711 26.214 424.076 424.044h29.313v-29.249l75.608 38.579zM500.491 826.36c85.454-8.135 325.513-58.853 349.727-368.613l-412.486-1.227c27.313 21.532 44.873 52.687 44.873 87.779 0 51.234-36.965 94.365-88.166 110.442l106.051 171.618zM503.462 77.027l-67.247 119.255c24.439 52.073 26.246 105.406 26.246 105.406l353.311 43.583c0 0 8.781-9.943 29.281-12.332-46.296-251.166-305.563-267.21-341.592-255.911zM772.609 377.618l-371.422 23.857-5.423 32.735c1.582 0.581 3.326 0.775 4.875 1.356l450.807 3.68c0.549-11.236 0.775-22.211 0.678-32.768-29.927-7.49-79.514-28.861-79.514-28.861z" />
<glyph unicode="&#xe643;" d="M976.989 854.893c-0.291 7.070-1.484 14.226-4.248 20.887-3.025 7.302-7.361 13.79-12.772 19.317-0.116 0.174-0.174 0.349-0.291 0.495v0c-5.615 5.644-12.364 10.095-19.782 13.179-7.448 3.084-15.272 4.713-23.244 4.713-0.029 0-0.029 0-0.058 0h-324.694c-33.601 0-60.889-27.259-60.889-60.889 0-33.659 27.288-60.889 60.889-60.889h177.431l-290.86-289.959-104.526 108.484c-23.331 24.146-61.908 24.903-86.083 1.542-24.233-23.302-24.961-61.82-1.629-86.083l105.952-109.88-327.778-326.788c-23.797-23.68-23.855-62.286-0.116-86.083 11.87-11.957 27.463-17.891 43.085-17.891 15.535 0 31.099 5.935 42.998 17.775l326.265 325.276 119.597-124.077c11.928-12.393 27.841-18.647 43.87-18.647 15.156 0 30.43 5.615 42.212 17.047 24.204 23.302 24.903 61.879 1.6 86.083l-120.964 125.561 292.722 291.791v-172.922c0-33.659 27.288-60.919 60.948-60.919 33.601 0 60.86 27.259 60.86 60.919v319.661c-0.029 0.844-0.436 1.484-0.495 2.298z" />
<glyph unicode="&#xe644;" d="M94.578 132.321c0-12.648-12.648-131.087 20.436-131.087s15.046 69.033 35.046 61.37c20-7.726 207.348-83.955 244.98-81.463s38.13 52.74 37.974 63.457c26.604-20.934 66.541-12.212 67.507-1.464 0.966 28.722-51.588 45.263-52.896 69.126-1.34 23.862 188.875 51.899 144.733 131.057-38.94 76.603-163.237 96.416-173.953 124.608-10.716 28.224-14.922 118.035-14.922 118.035s40.124 13.24 49.407 34.454c9.283 21.215-18.567 39.375-18.567 39.375s10.031 0.498 25.451 1.308l205.137-265.883 0.779 22.741c10.779 99.811 118.721 106.789 121.15 176.072 2.679 74.235-34.423 63.613-34.423 108.253 0 0.125 0 0.312 0 0.467h0.187c0 0.436 0 0.872-0.093 1.308h96.229v-29.439l83.051 35.794-83.051 26.947v-20.561h-95.357c5.67 32.274 35.887 29.937 33.457 97.257-2.554 74.173-126.291 76.821-121.836 198.781-0.654-0.903-1.153-1.777-1.807-2.648l0.436 2.648-223.142-278.78-43.114 4.517c-17.414 11.931-35.171 24.111-46.79 32.087 0.405 0.498-1.931 16.916 4.517 19.377 29.345-0.903 37.009 0.591 29.719 20.903 0.935 0.841 6.168 4.268 7.29 6.698s-1.495 3.022-1.495 3.022 1.931-0.093 3.302 2.118c1.402 2.212-2.43 10.934-2.43 10.934s9.751 2.149 11.869 5.794c2.118 3.645-17.134 26.043-16.417 30.124 0.716 4.050 3.956 5.95 4.86 6.978s3.084 12.025-8.817 29.501c-3.801 5.576-8.505 11.589-14.828 16.76 7.695 6.729 22.741 21.277 21.775 31.246-1.308 13.333-75.793 42.929-133.736-19.159-57.943-62.117 14.081-125.574 14.081-125.574l4.424 3.676c6.729-9.128 13.24-15.358 11.028-18.567 0 0-63.768-25.919-70.435-55.264s-16.23-97.724-16.23-112.303c0-14.579-26.728-23.426-20.124-51.276s86.198-86.198 89.749-90.466c3.551-4.268-29.626-28.909-19.314-78.254 13.645-65.231 68.785-73.768 84.703-100.279 15.919-26.542 28.037-117.35 17.539-130.808 0 0-182.364 29.096-201.834 59.75-19.034 21.9-55.201 9.408-55.201-3.271zM433.357 252.413c29.221-4.86 80.808-35.545 80.808-35.545s-62.366-16.479-69.126-25.794c-4.922 14.705-10.218 53.55-11.682 61.338zM642.076 855.766c-2.087-66.541 98.004-92.802 98.004-141.773 0-40.996-12.056-53.083-20-73.862-16.698-4.081-36.386-13.458-48.473-17.726-14.050-4.953-102.615-7.352-174.888-3.302 0 0-8.878 2.554-16.012 6.447s-21.183 6.481-21.183 6.481l182.551 223.734zM642.107 349.763l-163.268 212.27c59.375 3.115 159.841 8.629 182.582 11.371 14.641 1.777 35.171 8.629 52.772 17.912 4.86-39.594 25.856-43.364 25.856-97.35 0-49.563-102.646-75.793-97.942-144.203z" />
<glyph unicode="&#xe647;" d="M893.048 621.037c-101.126 6.88-78.309-103.494-66.948-145.673 11.329-42.115-99.686 47.843-126.76 17.217-17.057 47.715-261.296-26.274-310.259 37.058-10.817 19.905 0 56.58 0 56.58s72.645 23.425 70.82 61.508c13.185-17.569 103.494-38.306 111.687-22.657 8.193 15.617 0 27.074 0 27.074s-90.886 63.332-118.247 106.791c49.539 34.914 36.002 52.675 32.45 76.901-12.801 61.956-100.39 49.091-100.39 49.091s54.243-45.571 42.051-57.7c-10.497-10.433-40.291 2.496-54.883 22.433-3.616-0.192-6.592-8.161-10.305-9.985-27.074-13.281-11.425-63.716-11.585-78.021-31.458 0.704-94.854-72.645-137.577-72.645s-123.88 41.443-123.88 41.443 6.4 79.013 19.233 103.942c12.801 24.866 96.806 78.277 96.806 78.277l-2.368 15.329c0 0-102.246-61.572-114.375-99.334-12.097-37.762-17.825-90.438-17.825-90.438s-27.746 20.705-32.706 5.056c-4.96-15.681 27.042-39.874 27.042-39.874s-32.002-59.812-14.945-112.519c17.089-52.675 56.932-98.246 56.932-98.246l3.392 21.857c0 0-36.162 38.018-43.971 80.005-7.808 41.955 16.385 101.798 16.385 101.798s91.142-63.364 178.251-41.283c-0.096-13.569 3.328-189.388-68.644-209.037-12.929 9.729-43.267 46.083-52.515 42.179-9.217-3.968-70.948-105.479-110.791-108.999 19.201-16.385 18.401-16.673 22.145-22.433 11.585 17.025 94.918 89.222 94.918 89.222s6.752-34.37 20.641-57.252c15.809-25.986 43.875-41.187 42.723-47.203-2.112-11.201-85.413 0-85.413 0s-88.582-123.336-92.454-138.441c-3.936-15.137-1.568-55.747-1.568-55.747h31.33l11.393 46.307c0 0 59.204 116.071 78.341 103.942 138.825-29.186 415.77 0.672 430.011 4.288-10.657-52.675 34.146-80.453 37.026-91.142 2.848-10.657-4.32-29.186-9.985-37.026-5.728-7.808-119.463-9.249-131.016-18.497s-33.41-36.322-40.611-47.683c13.473-7.136 19.265-9.985 27.778-14.625 3.552 16.417 49.859 38.114 49.859 38.114l116.743 8.545c0 0 24.93 49.123 36.994 38.434 23.489-21.345-108.871-166.634-108.871-166.634s24.93-0.352 37.026 0.416c9.249 19.233 122.6 119.175 124.712 151.913 2.080 32.706-36.546 52.067-30.050 101.158 6.368 49.123 96.102 103.942 38.434 184.204 25.634 14.433 43.427-45.699 89.702-46.211 46.275-0.544 56.964 37.698 56.964 54.179s-36.354 107.591 0 101.158c8.193-2.56 34.562-66.692 56.228-76.837 44.003-20.673 73.317-7.168 91.878 7.264-61.892-2.336-29.89 125.576-130.952 132.456zM413.146 80.555l43.619-21.761 5.216 28.834-28.642 14.273zM555.523 3.686l-10.113-28.162 58.34 0.256-9.889 28.066zM28.642 139.503l-8.897-28.162 51.235 0.288-8.705 28.034zM48.899 352.316l-23.585 21.665-25.314-14.913 35.906-33.026z" />
<glyph unicode="&#xe649;" d="M250.696 425.711c6.432 1.504 12.928 2.592 19.617 3.264 13.184 1.728 26.689 1.664 40.193 1.248l17.121-0.512 1.44 17.505c0.352 4.224 1.824 10.624 4.128 16.609 2.24 6.080 5.152 12.288 8.512 18.209 6.72 11.936 15.072 23.201 24.641 32.929 18.593 20.001 42.849 33.697 68.45 33.761h10.944l3.136 8.992c4.16 11.936 13.184 22.305 25.505 30.017 12.224 7.808 26.881 13.376 42.113 17.185 30.657 7.904 63.458 10.368 96.387 10.88-32.129 7.872-65.698 10.624-99.651 7.232-16.961-2.048-34.177-5.92-50.786-13.888-13.504-6.656-26.241-17.409-35.137-31.329-14.912-0.192-29.697-3.712-43.041-9.664-15.968-7.2-30.017-17.377-42.145-29.025-12-11.84-22.209-25.121-30.721-39.617-4.256-7.296-8.032-14.848-11.264-23.009-1.344-3.52-2.528-7.168-3.616-10.88-25.569-0.608-51.426-4.256-75.97-13.152-29.281-11.232-56.354-28.929-76.61-52.45-20.833-22.913-35.073-50.306-44.865-78.306-9.312-28.289-14.816-57.57-14.24-86.691 7.072 28.129 17.025 55.074 30.113 79.874 12.864 24.897 29.057 47.649 48.738 65.986 19.681 18.241 42.657 32.033 67.81 39.905 6.464 1.632 12.64 3.776 19.201 4.928zM142.596 440.336c19.009 12.64 39.457 22.273 61.314 27.617 21.857 5.28 44.513 7.584 67.426 6.272l16.257-0.896 2.24 17.953c0.384 2.944 1.696 8.256 3.712 13.248 2.080 5.12 4.8 10.272 7.808 15.36 6.112 10.144 13.664 19.777 22.145 28.033 8.32 8.48 17.601 15.808 27.553 20.993 2.528 1.184 4.992 2.752 7.616 3.488 2.592 0.736 5.12 2.144 7.776 2.592 5.28 1.408 10.56 1.984 15.968 2.368l11.616 1.056 2.4 7.968c5.216 17.537 20.865 30.657 41.441 37.409 20.449 7.168 43.681 8.992 67.106 8.96-22.113 8.352-46.241 11.936-71.202 8.96-12.448-1.792-25.185-5.6-36.929-12.864-8.736-5.632-16.449-13.472-22.209-22.497-5.024-0.096-10.016-0.448-14.912-1.504-4-0.512-7.616-2.016-11.424-3.008-3.872-0.992-7.328-2.72-10.912-4.224-14.144-6.336-26.657-15.136-37.665-25.121-10.848-10.208-20.193-21.697-28.193-34.273-3.936-6.304-7.552-12.928-10.688-20.129-1.056-2.816-2.176-5.568-3.136-8.48-8.064-0.192-16.129-0.576-24.193-1.568-13.088-1.376-26.145-4.096-38.849-8-25.217-8.16-49.218-20.769-69.026-38.081-19.937-17.121-35.809-38.081-47.777-60.546-11.552-22.625-20.097-46.657-22.849-71.33 20.385 44.961 50.146 84.131 87.587 110.243zM52.002 447.216c-9.28-22.337-15.008-45.921-14.72-69.442 14.688 44.097 40.033 83.267 74.69 107.715 17.441 11.968 36.673 20.801 57.25 25.345 10.24 2.272 20.737 4.128 31.361 4.896 10.624 0.928 21.441 0.8 32.257 0.416l16.065-0.64 2.464 17.665c0.224 1.44 1.728 7.808 3.872 12.48 2.016 4.96 4.768 9.952 7.648 14.752 5.92 9.536 13.312 18.113 21.825 25.121 4.256 3.456 8.512 7.072 13.344 9.632 4.608 3.040 9.728 4.96 14.784 7.136 5.248 1.632 10.496 3.328 16.097 4 5.472 1.344 11.264 0.96 16.897 1.696l11.68 1.504 2.112 6.944c3.808 12.544 19.969 22.369 38.433 27.265 18.465 5.344 38.753 7.328 59.33 8.608-19.585 7.104-40.481 10.304-62.242 9.6-10.848-0.672-22.081-2.496-33.313-7.296-8.224-3.52-16.481-9.472-22.785-17.313-4.672 0.192-9.312 0.288-14.016-0.512-7.424-0.576-14.688-2.208-22.017-4.128-7.104-2.336-14.304-4.736-20.865-8.48-3.424-1.632-6.752-3.36-9.824-5.568-3.136-2.080-6.464-3.936-9.248-6.464-5.376-4.288-10.304-9.024-14.976-14.016-45.889 14.976-232.551 83.843-144.709 189.51 99.683 120.036 214.919 112.292 214.919 112.292s77.346-60.962 104.099-43.873c-55.010 44.673-14.88 49.89-14.88 49.89s46.113 2.976 90.019-45.377c6.688 43.905-89.955 93.539-107.811 95.939-17.889 2.4-41.665 11.904-75.138-15.584-58.754 17.057-212.679-27.521-290.025-133.124-80.835-147.557 59.010-244.488 110.979-274.089-14.848-6.912-28.865-15.52-40.865-26.561-18.817-16.865-33.057-37.825-42.689-59.938zM934.653 609.845c-58.498 32.193-92.675 11.872-127.364-4.544-9.984-2.912-107.171 17.921-167.141 7.52-57.986-10.016-180.614-63.458-188.646-66.978-0.096-0.064-0.256-0.128-0.352-0.192-0.096 0-0.448-0.192-0.448-0.192h0.032c-17.953-7.808-106.019-60.994-104.035-114.020-4.736-4.096-10.976-9.088-16.577-13.6-43.905-35.297-117.444-94.243-103.235-165.445 18.081-90.627 123.14-136.132 127.588-138.020 0 0-1.984-83.875 131.716-113.156 144.773-31.713 234.023 98.147 234.023 98.147s-185.446-84.259-212.199-24.769c-13.92 27.777 97.155 50.594 91.203 70.402-48.674 16.673-124.932-2.976-122.948-16.865-11.904 39.681-102.115 30.753-102.115 30.753s-87.555 37.729-100.643 102.851c-8.576 42.881 50.882 90.531 86.371 119.012 17.729 14.208 28.097 22.817 33.569 31.937 22.689-5.312 44.577-8.64 48.514-9.408 0.032 0.16 0.064 0.32 0.128 0.48 4.832-14.016 17.569-24.993 43.201-28.929 57.25-5.184 67.65 27.169 72.834 21.601 50.178-68.066 153.989-11.936 153.989-11.936s-126.020 13.792-108.899 68.066c17.025 54.274 92.579 34.945 108.899 22.689 11.872 49.442-114.148 49.026-116.388 34.561-29.537 33.985-57.602 36.257-82.435 23.041-3.936 1.216-8.512 2.528-13.536 3.872 19.841 8.416 84.419 34.529 144.741 44.833 72.386 12.448 174.021-19.329 173.573-41.057-0.512-21.761 62.978-71.938 109.507-68.546-36.673 38.689-42.081 66.498-22.753 77.442 19.329 10.912 88.707-26.305 117.988-77.442 8.48 38.209-29.665 105.635-88.163 137.892z" />
<glyph unicode="&#xe64d;" d="M556.416 453.919c180.728 233.793 361.997-60.393 390.226-42.344 28.199 18.079-4.505 267.699-222.532 263.194-217.937-4.505-281.213-263.194-281.213-263.194l-74.538-9.039c0 0 23.725 88.112 44.056 90.364-24.085 15.796-30.332 8.289-44.056 3.394-22.974-7.147-62.135-93.758-62.135-93.758h-44.056c0 0 8.679 54.987 35.016 75.679-5.916 11.592-21.743 11.622-35.016 9.069-32.764-7.147-48.561-83.997-72.285-97.181-49.311-35.707-146.462 113.308 36.158 150.276 210.459 43.665 349.023 112.167 230.4 262.023-102.046 128.744-315.899-42.164-273.344-146.853 14.685-12.043 178.836 130.276 186.374 31.623 9.039-57.99-216.856-91.115-259.77-134.42-206.315-141.177 60.993-283.465 60.993-283.465s24.295-111.266 80.183-131.026c14.986-1.922 25.136 9.61 33.875 12.433-52.254 58.171-45.738 96.31-40.662 99.403 5.075 3.123 55.918-8.739 62.105-14.685 6.216-5.916 5.376-62.675 62.135-97.121 11.562-5.646 38.41-5.646 41.803 0-32.494 46.639-26.848 77.090-23.725 81.355s89.343 2.973 91.475-3.394c2.132-6.337 59.882-210.069 320.764-159.256s189.347 297.069 170.908 293.646c-18.439-3.364-53.456-181.869-198.957-199.918-82.436-7.928-169.586 83.066-175.262 92.046-5.646 9.039 139.525-8.769 127.062 77.721 9.13 23.935 82.436 29.521 77.931 44.266-4.475 14.715-84.148-3.123-83.006 31.923-9.039 130.936-179.016 30.151-160.907 57.24z" />
<glyph unicode="&#xe64e;" d="M1006.623 262.204l-144.233 103.334c-12.769 9.153-29.474 10.433-43.331 3.296-13.921-7.136-22.625-21.441-22.625-37.090v-63.492c-27.618 6.624-64.324 20.769-64.324 42.659v385.016c0 92.934-96.198 136.073-156.874 136.073-40.675 0-78.533-15.329-106.663-43.235-0.032-0.032-0.096-0.096-0.16-0.128-29.794 28.45-69.348 43.363-107.751 43.363-40.611 0-78.469-15.329-106.567-43.235-0.224-0.16-0.416-0.48-0.64-0.672-28.738 24.002-64.644 36.994-99.846 36.994-40.643 0-78.501-15.329-106.599-43.235-21.441-21.249-47.011-59.844-47.011-122.568 0-28.642 23.169-51.747 51.779-51.747s51.747 23.169 51.747 51.747c0 57.796 38.338 62.244 50.083 62.244 24.642 0 53.411-16.289 53.411-62.244v-437.947c0-28.61 23.137-51.747 51.747-51.747s51.747 23.201 51.747 51.747v444.828c0 57.796 38.37 62.276 50.115 62.276 70.148 0 60.9-67.364 60.9-87.493s0-419.61 0-419.61c0-28.61 23.169-51.747 51.747-51.747 28.642 0 51.779 23.201 51.779 51.747v444.828c0 57.796 38.274 62.276 50.083 62.276 24.642 0 53.379-16.321 53.379-62.276v-355.35c0-98.63 100.454-138.313 167.786-147.913v-60.58c0-16.385 9.601-31.202 24.482-37.986 5.568-2.528 11.361-3.744 17.185-3.744 9.953 0 19.713 3.52 27.458 10.273l144.233 125.992c9.633 8.353 14.881 20.673 14.241 33.41-0.512 12.865-6.912 24.578-17.281 31.938z" />
<glyph unicode="&#xe64f;" d="M666.56 530.277c-60.224 51.072-151.872 1.504-184.352-20.128-27.040 23.968-90.144 57.696-136.096 14.624-2.88-2.72-4.352-6.368-4.352-10.016 0-3.36 1.216-6.752 3.744-9.408 5.184-5.6 13.92-5.856 19.456-0.64 33.088 31.008 79.776-0.32 94.208-11.392-12.864-10.143-25.408-21.312-37.568-33.281-26.592 19.008-80.224 39.584-123.136-0.672-2.88-2.72-4.352-6.368-4.352-9.984 0-3.36 1.216-6.752 3.744-9.44 5.216-5.6 13.92-5.856 19.456-0.64 31.392 29.44 69.376 10.496 84.8 0.672-11.84-12.864-23.264-26.24-34.176-39.872-25.344 14.752-80.928 30.304-124.577-10.56-2.88-2.688-4.352-6.368-4.352-10.016 0-3.328 1.216-6.784 3.744-9.44 5.216-5.536 13.92-5.856 19.456-0.608 34.016 31.872 75.136 15.328 88.672 8.544-13.856-18.624-26.656-37.408-38.368-55.648-27.232 13.825-78.528 25.024-119.424-13.312-2.88-2.72-4.352-6.368-4.352-9.984 0-3.36 1.216-6.752 3.744-9.44 5.184-5.568 13.92-5.856 19.456-0.64 32 30.016 70.080 17.184 85.888 9.888-36.704-60.672-58.624-110.496-58.624-117.632 0-18.368 58.624-82.816 81.568-82.816 7.136 0 56.928 21.952 117.632 58.624 7.328-15.744 20.096-53.888-9.888-85.888-5.216-5.568-4.928-14.24 0.64-19.456 2.656-2.496 6.048-3.712 9.408-3.712 3.68 0 7.328 1.504 10.048 4.384 38.336 40.864 27.072 92.192 13.312 119.392 18.24 11.68 37.024 24.544 55.648 38.336 6.848-13.568 23.36-54.624-8.544-88.672-5.216-5.568-4.928-14.24 0.64-19.424 2.656-2.496 6.048-3.744 9.408-3.744 3.68 0 7.328 1.504 10.048 4.384 40.864 43.616 25.344 99.2 10.496 124.577 13.728 10.912 27.072 22.304 39.872 34.176 9.92-15.424 28.768-53.44-0.672-84.8-5.216-5.568-4.896-14.24 0.672-19.456 2.624-2.464 6.016-3.712 9.376-3.712 3.68 0 7.328 1.504 10.048 4.384 40.256 42.913 19.68 96.576 0.672 123.136 11.936 12.16 23.104 24.672 33.248 37.6 11.136-14.464 42.432-61.152 11.392-94.208-5.216-5.568-4.896-14.272 0.672-19.456 2.624-2.496 6.016-3.712 9.408-3.712 3.648 0 7.328 1.472 10.016 4.384 43.072 45.984 9.312 109.024-14.624 136.064 19.904 29.664 77.088 137.6 16.864 188.64zM938.336 795.843c-37.856-27.2-32.864-193.216-32.864-193.216s-29.856 54.176 0.544 166.816c0.511 0.96 1.12 1.76 1.696 2.72-0.448-0.096-0.736-0.128-1.152-0.257 0.032 0.096 0.032 0.128 0.032 0.192-0.16-0.064-0.32-0.192-0.448-0.288-113.44-30.816-167.936-0.736-167.936-0.736s166.016-4.992 193.184 32.864c-182.144 169.248-386.048 44.896-432.192-10.432-69.728-73.76-64.992-204.992-5.344-263.232 25.312 19.232 53.344 35.008 80.896 33.281 23.488 4.256-94.688 29.824-69.344 156.64l190.528-29.632c0 0 81.728-15.712 148.64 19.2-35.424-67.040-19.552-149.408-19.552-149.408l29.6-190.496c-126.816-25.376-145.921 86.4-150.144 62.944 1.696-27.488-13.792-52.737-32.992-78.048 58.208-59.616 182.752-60.8 256.513 8.896 55.264 46.144 179.552 250.048 10.336 432.192zM209.312 165.381c-31.552 12.064-103.84-71.136-81.472-88.352s134.464-25.856 146.88-4c12.384 21.792-43.616 85.472-65.408 92.352zM153.28 166.564c0 0-32.896 83.744-53.536 94.048s-68.832-3.424-86.048-21.824c-17.216-18.368 66.624-144.928 95.232-132.544 28.608 12.512 44.352 60.32 44.352 60.32zM91.104 279.589c4 4.609 1.152 62.528 0 73.44s-73.472 16.064-79.776 10.304c-6.304-5.728-20.064-95.584-3.424-99.168 16.672-3.52 79.2 10.816 83.2 15.424zM89.984 369.605c7.456 3.424 14.336 70.56 18.912 78.016s-35.52 28.8-48.704 25.952c-13.216-2.88-51.713-77.536-41.376-86.72s63.68-20.64 71.167-17.248zM118.656 460.868c108.449 56.8 88.352 144 88.352 144s-5.728 32.128 12.608 55.072c-11.488 17.792-60.256-21.792-60.256-21.792s-112.448-14.912-84.32-148c8.032-14.368 32.128-26.976 43.616-29.28z" />
<glyph unicode="&#xe650;" d="M799.55 963.977c41.181-252.863-48.071-242.575-48.071-242.575l-241.433 8.986-237.527-8.986c0 0-89.252-10.286-48.071 242.575-291.725-413.045 93.824-350.082 99.57-364.973s-58.39-101.857-53.752-153.324c4.604-51.467 94.395-78.934 106.429-113.224 39.465-116.715-85.822-229.972 30.797-259.275 4.667-1.174 9.589-2.286 14.509-3.302-1.46-6.859-2.221-13.908-2.221-21.178 0-55.501 45.15-100.681 100.681-100.681 55.501 0 100.681 45.183 100.681 100.681 0 8.603-1.174 16.891-3.238 24.861 114.366 29.783-9.812 142.624 29.561 258.897 12.033 34.291 101.825 61.757 106.429 113.224 4.637 51.467-59.5 138.433-53.752 153.324 5.589 14.891 391.137-48.071 99.412 364.973zM520.365-24.58c-40.357 0-73.28 32.8-73.28 73.217 0 5.621 0.762 11.080 2.001 16.288 26.989-4.095 51.785-6.129 60.962-6.859v-0.254c0 0 0.762 0.032 1.969 0.127 1.114-0.097 1.938-0.127 1.938-0.127v0.254c10.985 0.794 44.26 3.524 76.869 9.525 1.619-6.033 2.793-12.351 2.793-18.955 0-40.418-32.894-73.217-73.248-73.217z" />
<glyph unicode="&#xe652;" d="M399.454 595.572c-19.491 17.731-116.69 111.217-192.254 127.7-23.3 56.297-50.76 57.673-50.76 57.673s43.943 104.336-129.044 98.863c107.825-52.296 86.317-65.322 71.371-101.616-61.578-16.227-33.829-97.263-46.695-112.594-12.834-15.33-60.393-31.589-50.792-60.393 9.634-28.805 109.841-39.814 126.324-46.695 63.146-24.676 24.676-127.668 45.287-166.074 20.611-38.438 28.837-127.7 28.837-127.7s-22.019-68.715-24.356-89.422c-4.193-27.332 0.256-46.119-3.201-65.354-13.346-15.97-24.516-40.55-24.516-40.55l63.018-1.024c0 0 6.017 28.228 0 41.158 1.376 15.138 33.637 138.006 59.337 135.285 12.706 4.129 32.645-138.006 14.786-138.006-21.443-6.881-23.332-42.503-23.332-42.503l56.681-0.864c0 0-1.824 28.324 9.505 30.501 8.257 16.515 4.353 68.203 3.809 74.668s-6.881 83.757-6.881 83.757 71.403 50.792 93.359 43.911c94.767-23.332 261.577 31.557 277.355 42.535-9.249-3.201 34.309-93.359 32.933-108.465s-42.247-84.333-49.704-101.872c-22.884-12.642-8.001-38.182-8.001-38.182l51.144-1.408c0 0 0.608 28.772 9.313 28.901 8.673 0.128 16.579 56.393 27.428 74.092 10.882 17.763 52.2 80.109 32.933 87.406s104.368-131.349 113.97-147.831c5.505-9.377 2.048-42.567-1.952-69.259-14.018-8.385-6.273-36.454-6.273-36.454h39.814c0 0 2.464 25.412 10.402 28.58 2.048 5.665 6.049 16.707 6.049 16.707s-3.329 118.803-68.683 188.125c27.428 86.478-15.138 234.757-15.138 234.757s53.576-26.052 46.695-48.040c-6.881-60.457 41.19-44.839 37.062-105.777-9.634-49.416 45.319-67.275 68.683-82.317 0 21.955-9.602 63.146-42.087 78.22 5.025 70.027-36.166 87.854-34.789 111.249 4.161 115.346-64.074 90.062-101.584 100.24-34.117 23.332-327.987 6.881-327.987 6.881s-84.749 24.772-118.066 41.19z" />
<glyph unicode="&#xe653;" d="M674.327 340.756c143.823 113.166 143.823 113.166 85.684 220.206s-275.266 143.726-36.75 318.076c-180.443 113.198-365.196-5.218-343.775-38.856 24.467-94.856-117.217-236.021-117.217-236.021s18.699-172.86 14.454-190.975c-4.245-18.083-45.921-197.878-70.356-277.437-24.435-79.462 91.777-73.402 100.948-122.304s275.266-39.731 269.206 15.361c3.046 100.916 197.262 254.525 220.206 253.845s-59.823-133.485-59.823-133.485l276.951-1.069v345.589c-0.032 0-192.725-241.595-339.529-152.929zM656.892 712.205c52.046-26.12 131.703-127.101 167.901-193.957 36.134-66.856-35.097-116.115-87.889-162.813 108.888-37.56 306.215 192.077 285.604 295.326-17.597 121.527-257.248 220.303-277.21 204.619s-110.93-75.865-88.407-143.175zM258.9 644.021c0 0 105.323 128.948 90.124 195.804-199.563 146.804-552.476-418.019-196.938-387.557-66.499 141.619 106.814 191.753 106.814 191.753z" />
<glyph unicode="&#xe657;" d="M959.616 944h-0.16c-8.832 0-206.72-3.776-351.52-251.456-29.12 7.2-59.36 11.488-90.688 11.488-34.752 0-68.32-5.12-100.288-13.984-145.056 250.048-344.064 253.952-352.928 253.952-0.064 0-0.128 0-0.192 0-35.136 0-63.2-28.128-63.84-63.2-0.576-35.136 27.584-64.288 62.784-65.472 5.792-0.192 132.48-6.912 237.344-180.64-96.352-68.32-159.552-180.512-159.552-307.36 0-207.68 168.96-376.672 376.672-376.672 207.744 0 376.768 168.96 376.768 376.672 0 130.208-66.464 245.184-167.168 312.864 103.392 166.976 226.176 174.816 233.792 175.136 35.232 0.512 63.456 29.216 63.36 64.544-0.064 35.424-28.864 64.128-64.384 64.128zM517.216 79.36c-136.704 0-247.968 111.232-247.968 247.936 0 136.736 111.264 248.032 247.968 248.032 136.8 0 248.064-111.296 248.064-248.032 0.032-136.704-111.264-247.936-248.064-247.936z" />
<glyph unicode="&#xe658;" d="M844.521 656.14c-33.993 123.951-82.266 297.335-338.42 292.941-48.779-16.069 137.666-33.459 122.317-94.351-85.594 49.372-136.034 82.298-196.391 76.806s-86.285-58.884-84.152-97.489c48.807-25.674 111.803-228.031 132.082-270.812s55.555-108.13 91.746-127.872c36.158-19.742-50.094-145.355-123.477-148.589-73.353-3.296-258.289-83.208-280.604-187.603 45.075 52.857 222.381 145.733 298.777 142.97 76.428-2.825 149.625 84.839 161.834 109.793 3.329-112.9-108.853-157-187.854-158.916-113.655-1.947-284.278-110.201-263.999-176.461 21.28 57 163.906 123.886 258.257 128.312 94.351 4.362 182.048 52.983 226.995 92.783-21.814-88.608-103.704-120.436-198.056-137.228-94.351-16.855-283.902-68.927-281.014-155.683 36.63 53.923 204.709 105.305 386.129 117.044s331.831 378.219 275.835 594.354zM632.746 897.134c0 0 148.745-83.082 75.174-216.417 16.322 130.603-75.174 216.417-75.174 216.417zM736.734 804.323c0 0 162.054-223.262-28.877-332.959 118.112 149.184 28.877 332.959 28.877 332.959zM271.289 514.583c1.475-13.153-7.157-30.164-9.322-39.486s-14.817-5.994-13.153-19.177c1.632-13.153 17.545-18.142 17.545-18.142s-12.052-7.157-11.519-17.012c2.762-17.012 33.993-2.762 36.19-9.353 2.196-6.56 1.695-1.318-0.251-14.939-1.947-13.59-26.619-17.955-11.802-52.48 19.461-45.417 224.923-19.24 274.296 71.815-176.65 159.135-180.479 392.814-215.633 388.42-35.091-4.362-65.82-151.382-66.887-185.406-1.096-33.993-36.756-55.399-41.181-81.732-4.362-26.333 32.925-15.348 41.714-22.503zM281.144 635.991c2.228 6.183 52.103-9.511 52.103-16.605 0-7.157-36.756-8.223-45.514-7.157-3.045 0.409-13.842 4.236-6.591 23.762z" />
<glyph unicode="&#xe659;" d="M990.133 579.314c0 0 17.473 4.852 16.299 12.748-7.579-4.693-25.527 10.591-25.527 10.591s-8.816 50.61-9.45 69.383c-0.634 18.804-2.473 36.848-2.473 36.848s10.686-12.462 24.354-0.381c-26.859 13.16-25.21 30.918-22.293 42.334 2.917 11.479 24.227 92.5-20.136 133.216-29.142 25.337-45.346 2.6-45.346 2.6s-4.281 7.515-9.672 7.103c-5.391-0.317-9.291-6.12-9.291-6.12s-3.076 9.355-7.928 8.023c-4.82-1.268-6.12-5.898-6.12-5.898s-5.296 28.222-64.214 52.988c-59.014 24.766-136.514-14.619-152.718-28.73-16.299-14.048-22.483-18.456-17.219-35.167 1.903-5.866 4.947-7.991 8.181-8.403-12.304-27.208-3.234-70.778-0.476-75.725 2.854-4.883 0.381-16.236-3.456-21.975-8.435-12.589-17.821-18.392-20.834-26.827-4.281-11.828 18.36-13.889 18.36-13.889l0.032-4.503c0 0-7.262-7.008-5.74-12.494 2.093-7.357 16.648-4.757 16.648-4.757s-13.984-5.169-13.318-11.987c0.666-6.786 6.469-9.767 6.469-9.767s-13.477-26.637 6.469-32.567c19.978-5.898 68.273 26.51 73.6-1.934 3.774-14.714 6.691-38.592 4.598-53.496-1.617-1.015-3.298-1.934-5.137-2.22-139.59 33.804-276.073-158.426-344.885-163.405-62.787-4.566-369.651-54.225-369.651-54.225v-444.678c0 0 693.829 0 715.138 0s5.074 103.694 6.754 158.553 114.063 216.806 129.918 218.518c15.887 1.649 1.3-377.071 1.3-377.071h72.998c0 0 2.473 434.214 0.793 559.407 26.637-9.355 40.368 6.437 39.416 13.509-19.978-12.494-24.195 11.416-24.195 11.416s33.264-10.369 34.311 10.147c-27.113-8.816-33.455 41.795-33.455 41.795s52.671-54.764 62.502 2.632c-17.155-19.248-24.607 4.408-24.607 4.408zM554.936 348.365c29.237-56.794-9.672-138.734-12.145-167.908-2.537-29.174-89.709-37.482-155.636-32.44-51.752 3.9-177.833 123.893-241.001 172.538 51.213 13.889 223.592 36.055 263.801 37.609 43.539 1.712 140.002 108.387 168.384 99.571 28.381-8.879-55.938-44.268-23.402-109.37zM830.311 598.086c0 24.861 7.896 48.866 38.37 49.691 11.955 2.6 17.917-38.56 25.908-77.945-27.81 15.919-59.997 26.859-64.277 28.254z" />
<glyph unicode="&#xe65b;" d="M1020.224 415.616c15.936 95.328-19.136 184.96-93.792 239.84-39.2 28.8-84.192 43.648-124.448 43.328v48.128c0 127.584-105.344 149.088-171.872 149.088-44.576 0-86.016-16.768-116.8-47.328-0.064-0.064-0.096-0.128-0.16-0.192-32.672 31.168-75.968 47.52-118.048 47.52-44.48 0-85.952-16.768-116.736-47.328-0.256-0.224-0.448-0.576-0.672-0.8-31.52 26.304-70.848 40.544-109.376 40.544-44.544 0-86.016-16.768-116.8-47.328-23.488-23.328-51.52-65.6-51.52-134.336 0-31.328 25.344-56.672 56.704-56.672 31.328 0 56.704 25.344 56.704 56.672 0 63.328 41.984 68.256 54.88 68.256 26.976 0 58.464-17.856 58.464-68.256v-479.68c0-31.328 25.376-56.672 56.704-56.672s56.704 25.376 56.704 56.672v487.264c0 63.328 49.408 68.128 62.976 68.128s60.064-3.616 60.064-77.12c0-91.872-1.44-478.272-1.44-478.272 0-31.328 25.344-56.672 56.704-56.672 31.328 0 56.704 25.376 56.704 56.672v487.264c0 63.328 41.984 68.224 54.88 68.224 26.976 0 58.496-17.824 58.496-68.224 0 0 1.632-517.536 1.568-551.2-46.080-27.008-90.816-44.672-124.544-51.072-30.784-5.824-51.040-35.456-45.248-66.24 5.152-27.2 28.928-46.176 55.68-46.176 3.456 0 7.040 0.384 10.56 0.992 45.504 8.64 108.896 33.44 173.376 72.864 60.672-31.072 143.584-46.048 185.568-52.064 30.592-4.128 59.744 17.184 64.128 48.128 4.416 31.040-17.088 59.744-48.128 64.192-32.256 4.64-65.824 11.968-94.464 20.064 74.176 67.936 135.52 156.16 153.184 261.792zM803.84 249.824c0.064 24.992 0.16 52.672 0.288 81.536 0.32 91.744 0.672 194.272 0.672 254.592 12.736-0.64 36.672-7.008 60.064-26.208 21.184-17.376 54.976-56.8 43.488-125.376-11.712-70.464-52.864-133.344-104.512-184.544z" />
<glyph unicode="&#xe65c;" d="M250.88 356.608c8-27.424 25.952-6.4 49.44-10.688 10.016-3.488 14.496-5.504 16-15.488 2.944-18.624-24.352-22.111-24.8-42.688-0.384-13.632 12.128-13.76 21.76-12.608-7.616-1.376-22.784-5.728-21.44-18.4 5.92-26.944 33.728-9.984 34.176-17.824 4.736-35.264-3.072-55.807 15.552-84.256 14.944-22.816 94.56 3.872 137.569 21.568 10.56 4.352 22.176-40.864 25.056-38.176 14.72 13.76 240.127 122.495 210.688 220.512-12.672 46.048-207.744 96.032-207.744 96.032s-48.992 237.152-225.344 238.112c-30.368-0.96 0.96-155.808 2.912-205.792 1.952-50.016-41.76-102.88-33.824-130.304zM830.496 855.328c-402.72 260.64-528.128-136.192-528.128-136.192s233.184-34.303 240.064-237.152c179.328-52.864 224.384-88.159 210.688-147.936-82.304-259.68-520.352-313.6-605.632-276.352-58.752 25.504-196.928 160.704 17.664 224.384-148.96 41.152-288.096-193.025 14.72-287.104 302.784-94.048 610.432 70.56 660.448 120.544 50.016 49.952 392.928 479.168-9.824 739.808zM762.048 621.024c-10.496 0-20.416 0.576-29.312 1.632 6.56-5.344 13.504-11.552 20.384-18.432 27.616-27.616 44.352-55.616 37.408-62.592-6.976-6.976-34.976 9.792-62.624 37.375-5.792 5.792-10.912 11.52-15.616 17.152 0.672-7.2 1.024-14.72 1.024-22.688 0-39.072-8-70.72-17.824-70.72-9.92 0-17.888 31.648-17.888 70.72 0 9.888 0.576 19.328 1.504 27.872-5.6-6.944-12-14.176-19.328-21.472-27.616-27.616-55.648-44.384-62.624-37.408-7.008 6.976 9.824 35.008 37.408 62.592 5.985 5.92 11.84 11.232 17.568 16-7.968-0.768-16.608-1.248-25.632-1.248-39.104 0-70.72 8-70.72 17.856 0 9.888 31.616 17.856 70.72 17.856 9.568 0 18.688-0.511 27.040-1.376-7.2 5.696-14.72 12.32-22.304 19.84-27.552 27.648-44.352 55.68-37.375 62.656 7.008 6.944 35.008-9.792 62.624-37.408 8.768-8.768 16.32-17.536 22.464-25.76-1.537 10.464-2.464 22.464-2.464 35.488 0 39.040 8 70.72 17.856 70.72s17.856-31.68 17.856-70.72c0-10.112-0.64-19.68-1.537-28.384 5.504 6.816 11.808 14.016 19.008 21.12 27.616 27.616 55.648 44.352 62.624 37.408 6.976-6.976-9.824-35.008-37.44-62.624-8.512-8.512-16.96-15.808-24.896-21.92 9.696 1.28 20.512 2.048 32.192 2.048 39.072 0 70.688-8 70.688-17.856-0.096-9.76-31.712-17.728-70.784-17.728z" />
</font>
</defs>
</svg>
