<?xml version="1.0" standalone="no"?>
<!DOCTYPE svg PUBLIC "-//W3C//DTD SVG 1.1//EN" "http://www.w3.org/Graphics/SVG/1.1/DTD/svg11.dtd" >
<svg xmlns="http://www.w3.org/2000/svg">
<metadata>Generated by IcoMoon</metadata>
<defs>
<font id="zodic" horiz-adv-x="1024">
<font-face units-per-em="1024" ascent="960" descent="-64" />
<missing-glyph horiz-adv-x="1024" />
<glyph unicode="&#x20;" d="" horiz-adv-x="512" />
<glyph unicode="&#xe600;" d="M787.414 295.135c-10.245 27.841-12.522 64.987-16.111 83.572s1.485 120.198-24.921 146.604c-26.356 26.381-76.94 33.706-82.434 41.724-3.465 5.048-0.891 18.412 1.485 27.668 23.164 11.359 39.2 35.191 39.2 63.007 0 38.779-30.934 70.233-69.070 70.233-1.46 0-2.796-0.346-4.257-0.421-1.435 0.049-2.772 0.396-4.207 0.396-38.161 0-69.12-31.454-69.12-70.233 0-27.816 16.086-51.648 39.2-63.007 2.425-9.256 4.949-22.619 1.51-27.668-5.494-7.993-56.078-15.319-82.459-41.724-1.51-1.51-2.895-3.341-4.207-5.296-1.312 1.955-2.697 3.786-4.207 5.296-26.381 26.381-76.965 33.706-82.459 41.724-3.44 5.048-0.916 18.412 1.485 27.668 23.114 11.359 39.2 35.191 39.2 63.007 0 38.779-30.959 70.233-69.095 70.233-1.46 0-2.796-0.346-4.232-0.421-1.411 0.074-2.796 0.421-4.232 0.421-38.161 0-69.095-31.454-69.095-70.233 0-27.816 16.061-51.648 39.2-63.007 2.376-9.256 4.925-22.619 1.485-27.668-5.494-7.993-56.078-15.319-82.434-41.724-26.381-26.381-21.332-128.019-24.921-146.604-3.613-18.585-5.865-55.731-16.135-83.572-10.245-27.841-1.485-52.786 10.27-65.952 11.73-13.19 27.866-7.35 36.651 10.245s-19.798 29.152-13.19 48.381c6.583 19.278 43.184 203.028 49.817 190.951 2.326-4.207 12.423-61.72 12.102-133.042-0.544-134.255-13.562-323.028-13.562-336.442 0-20.516-33.706-45.461-24.921-65.977s61.374 5.642 64.492 38.136c3.143 32.493 11.73 121.683 11.73 121.683l22 137.794 0.742-4.405 0.718 4.405 22-137.794c0 0 8.612-89.19 11.73-121.683s55.707-58.651 64.492-38.136c8.785 20.516-24.921 45.461-24.921 65.977 0 13.413-12.992 202.187-13.562 336.466-0.297 71.322 9.8 128.835 12.102 133.042 3.514 6.41 15.442-42.145 26.851-92.085-0.223-3.316-0.495-6.137-0.841-7.969-3.588-18.585-5.865-55.731-16.111-83.572s-1.485-52.786 10.245-65.977c8.068-9.033 18.165-8.934 26.579-2.401 8.414-6.608 18.536-6.707 26.604 2.401 11.706 13.19 20.466 38.136 10.221 65.977-10.221 27.841-12.547 64.987-16.111 83.572-0.371 1.831-0.594 4.653-0.817 7.969 11.409 49.94 23.337 98.47 26.851 92.085 2.302-4.207 12.398-61.72 12.102-133.042-0.544-134.28-13.586-323.053-13.586-336.466 0-20.516-33.706-45.461-24.921-65.977 8.761-20.516 61.349 5.642 64.492 38.136 3.118 32.493 11.73 121.683 11.73 121.683l22.025 137.794 0.693-4.405 0.742 4.405 22-137.794c0 0 8.612-89.19 11.755-121.683 3.093-32.493 55.682-58.651 64.467-38.136s-24.921 45.461-24.921 65.977c0 13.413-13.017 202.187-13.562 336.466-0.346 71.322 9.8 128.835 12.077 133.042 6.657 12.077 43.259-171.673 49.841-190.951 6.632-19.254-22-30.761-13.19-48.381 8.785-17.595 24.945-23.461 36.626-10.27 11.805 13.19 20.54 38.136 10.295 65.977zM515.118 287.81c2.326-6.83 0.173-12.671-3.118-18.189-3.291 5.568-5.444 11.359-3.118 18.189 0.693 2.079 1.782 6.162 3.118 11.582 1.336-5.42 2.425-9.503 3.118-11.582z" />
<glyph unicode="&#xe602;" d="M52.192 725.184c54.496 0 89.248 42.048 117.184 76.032 27.936 33.824 46.56 54.336 69.792 54.336 12.224 0 22.016-13.184 43.392-50.368 24.8-43.2 62.208-108.352 143.552-108.352 83.936 0 118.592 65.952 141.44 109.504 9.984 19.072 22.496 42.752 30.304 42.752 13.504 0 33.76-32.192 48.512-55.584 27.744-43.936 62.176-98.752 127.616-98.752 63.808 0 111.36 53.216 153.504 100.224 15.136 16.896 37.664 41.984 48.448 47.776 26.912 2.048 48.064 24.576 48.064 52 0 28.768-23.328 52.224-52.16 52.224-48.352 0-84.16-40-122.016-82.368-20.512-22.912-58.624-65.44-75.936-65.44-9.056 2.144-29.376 34.496-39.2 49.984-27.712 44.032-65.696 104.384-136.8 104.384-70.88 0-102.016-59.328-122.656-98.528-23.2-44.16-31.872-53.696-49.056-53.696-17.952 0-28.96 14.016-53.056 55.904-24.992 43.36-59.168 102.816-133.952 102.816-74.112 0-118.176-53.408-150.304-92.448-10.944-13.184-29.12-35.328-37.216-38.016-28.544-0.32-51.648-23.584-51.648-52.192 0-28.832 23.36-52.192 52.192-52.192zM971.84 608.736c-48.352 0-84.16-40-122.016-82.336-20.512-22.944-58.624-65.472-75.936-65.472-9.056 2.176-29.376 34.496-39.2 49.984-27.712 44.032-65.696 104.384-136.8 104.384-70.88 0-102.016-59.328-122.656-98.56-23.2-44.128-31.872-53.664-49.056-53.664-17.952 0-28.96 14.016-53.056 55.904-24.928 43.36-59.136 102.848-133.92 102.848-74.080 0-118.144-53.408-150.272-92.448-10.944-13.248-29.12-35.328-37.216-38.016-28.608-0.32-51.712-23.552-51.712-52.16 0-28.768 23.36-52.192 52.192-52.192 54.496 0 89.248 42.080 117.184 76.032 27.936 33.824 46.56 54.368 69.792 54.368 12.224 0 22.016-13.216 43.392-50.4 24.8-43.2 62.208-108.32 143.552-108.32 83.936 0 118.592 65.92 141.44 109.44 9.984 19.104 22.496 42.784 30.304 42.784 13.504 0 33.76-32.192 48.512-55.584 27.744-43.968 62.176-98.752 127.616-98.752 63.808 0 111.36 53.216 153.504 100.192 15.136 16.896 37.664 41.984 48.448 47.808 26.912 2.048 48.064 24.576 48.064 52 0 28.832-23.328 52.16-52.16 52.16z" />
<glyph unicode="&#xe603;" d="M718.973 7.195c-20.398 11.643-10.913 40.157-15.929 58.671-117.645-77.549-197.535 54.658-203.31 85.148-27.572 13.102-219.331 321.016-219.331 321.016l-113.329-88.584 33.409 212.096-50.858 89.951c0 0 87.155 111.869 59.552 119.104-27.572 7.235-87.155-34.868-97.278-65.389-10.153-30.49 14.5-155.34 14.5-155.34s-59.552-90.073-63.93-124.941c-4.377-34.838-24.684-248.362 5.806-270.158s245.444 136.523 265.781 122.023c20.368-14.561 44.961-280.981 47.909-299.22 2.979-18.24-18.848-75.512-18.848-75.512s352.905 0 387.804 0c34.838 0 14.561 71.195 14.561 71.195s-26.143-11.673-46.511-0.061zM678.33 891.754c-136.523 72.624-186.226-118.618-186.226-118.618s201.547-139.958 201.912-135.581c0.304 4.377 120.868 181.575-15.686 254.199zM846.286 306.385c-24.715-5.806-152.361-64.811-162.849-80.771 9.789-22.313 31.858-103.236 40.309-128.559s217.477 175.921 217.477 175.921-70.283 39.245-94.937 33.409zM774.908 102.497c-11.917-2.098-25.019-14.257-25.019-14.257s-32.162-28.271-25.079-52.712c7.083-24.563 38.668-9.302 46.572 0 7.904 9.272 15.412 69.067 3.526 66.97zM799.744 120.128c0 0-3.253-149.929-17.145-178.292 18.939 0 41.495 0 63.17 0 21.644 0-15.899 191.607-20.854 195.407s-25.171-17.115-25.171-17.115zM869.724 179.863c-7.083 2.706-32.71-25.961-32.71-25.961s33.865-94.086 33.53-208.357c101.564 1.277 0 0 101.564 1.277 3.253 55.539-95.302 230.305-102.385 233.041zM918.818 220.142c-9.272 0.578-33.014-30.794-33.014-30.794s28.545-25.9 55.418-76.545c4.712 3.405 12.828 14.227 15.078 26.691s-28.241 80.133-37.482 80.649zM952.47 200.899c3.83 6.961 12.646 46.785 4.438 52.287-8.208 5.441-24.958-23.164-24.958-23.164s16.72-35.993 20.52-29.123zM576.705 442.543c-0.456 1.125-0.699 1.885-0.699 1.885s24.593 87.976 13.74 101.655c-13.558 17.176-65.328 82.808-65.328 82.808s-66.818-2.584-65.328-26.113c1.459-23.559 8.694-140.901 8.694-140.901l30.521-18.908c0 0 0-267.24 26.113-289.036 68.277-127.799 153.942-87.124 168.473-58.093 5.715 11.43-11.217 67.882-33.743 132.115v0c-1.003 2.858-2.006 5.715-3.070 8.633-3.162 8.725-6.262 17.419-9.515 26.295-0.638 1.854-1.307 3.587-1.946 5.441-26.63 72.411-55.539 144.184-65.115 167.622-0.638 1.581-1.216 3.010-1.702 4.134-0.638 1.307-0.821 1.733-1.094 2.462zM482.133 215.157c-5.502 42.985-9.667 109.316-10.032 213.221l-29.7 18.3-0.79 13.497-8.725 140.84c-0.638 10.366 3.010 20.428 10.214 28.454 18.939 20.915 62.44 24.745 80.285 25.475l13.315 0.578 8.238-10.457 65.358-82.808c5.928-7.6 18.27-23.225-6.809-116.186 35.081-85.483 59.613-149.868 77.001-199.237 44.109 32.527 122.631 63.808 159.475 77.579 37.33 13.953 91.897 130.717-25.14 211.488-120.503 61.011-421.152 294.843-467.632 299.22-46.511 4.317-169.962-126.431-165.585-154.003 3.83-24.35 185.071-297.275 300.527-465.96z" />
<glyph unicode="&#xe604;" d="M947.924 680.072c-36.623 36.593-181.921 169.614-213.567 201.26-22.915 22.915-1.579-36.861 11.949-71.606-85.79 30.395-190.89-0.179-258.205-82.691-19.28-23.66-30.335-51.611-35.758-80.963-6.347 28.368-14.154 59.12-18.237 69.49-6.049 15.257-25.388 6.675-18.058-7.599 7.33-14.244 22.289-164.608 13.409-155.787-55.336 19.935-53.697-34.715-28.219-80.099 7.211-12.843 20.77-29.322 37.308-46.814-45.771-72.738-337.231-158.827-361.696-270.959s91.035-149.381 267.949-135.047c98.723 10.817 314.763 12.724 321.259-83.228 52.505 103.61-167.915 133.468-301.383 114.218s-238.896 30.752-241.875 99.706c-2.98 68.894 304.81 208.978 343.608 247.567 6.824-6.764 13.469-12.724 20.144-18.833-56.826-28.011-282.193-144.643-263.718-222.298 21.127-88.83 269.29-52.237 357.554-56.439 88.293-4.172 147.265-61.594 139.696-116.364 68.924 55.872-36.623 156.085-133.17 151.794-96.548-4.351-270.482-0.864-284.636 48.9-12.098 42.672 154.536 148.636 202.601 178.166 25.329-21.604 48.244-37.963 64.603-46.426 38.768-19.935 66.809-6.556 55.604 40.049 76.344 15.525 131.054-9.714 142.706-7.211 6.198 1.818 11.681 5.185 10.549 15.644-2.294 6.854-36.444 12.605-69.133 16.955 39.275 13.35 76.523 38.887 107.841 77.298 60.193 73.781 73.394 168.63 42.016 243.634 27.474-11.145 106.381-41.986 88.86-22.319zM532.889 307.589c0 0-71.308 10.191-113.414-41.003-42.105-51.224 14.363-95.803 46.516-104.653 32.093-8.85 105.904-13.797 109.748 37.129 3.308 44.847-64.246 35.043-87.548 35.937-60.968 4.44 44.698 72.589 44.698 72.589zM551.811 274.185c-19.161 1.401 14.095 22.796 14.095 22.796s-22.409 3.188-35.609-12.873c-13.231-16.091 4.47-30.126 14.601-32.898 10.072-2.801 33.225-4.351 34.447 11.681 1.013 14.095-20.203 11.025-27.534 11.294z" />
<glyph unicode="&#xe607;" d="M895.981 267.668c-0.677 71.967 5.725 232.799 7.788 288.543 2.032 55.745-79.015 123.464-79.015 123.464s6.125 24.44 21.885 22.563 19.084-4.833 29.427 1.293c5.171 3.078 8.219 16.837 13.482 20.193 5.294 3.355-2.955 13.975-2.955 13.975s8.095-1.354 8.68 1.908c0.923 4.863-5.294 9.142-3.324 16.837 1.908 7.695 15.391 3.848 17.792 12.99-3.848 16.868-20.377 49.219-10.897 52.728 9.511 3.509 23.455-1.17 35.922 3.54 12.436 4.71 14.436 20.685 3.848 42.324s-55.776 50.020-96.684 50.020c-99.762 5.756-165.973-78.892-118.723-159.355 22.286-44.263 5.233-79.662-40.939-73.906s-229.967-125.618-285.127-118.908c-27.365 3.294-42.478 3.294-50.635-0.092-0.923-0.092-1.908-0.185-2.863-0.339l-31.335 80.37c15.237-0.308 44.787 1.97 64.117 22.070 26.934 27.949 41.555 71.659-46.972 108.873-11.543 4.279-12.682 37.676 2.309 62.424-36.137 9.265-45.187-37.799-31.735-62.486 13.421-24.687 29.642-39.338 36.507-57.684s-34.444-24.625-34.444-24.625l-25.979 38.138 34.475 11.451-82.802 78.738 0.123-0.308-0.708-114.045 32.228 16.93 9.388-45.125c0 0-33.151-25.395-41.647-7.757-8.434 17.607-7.726 39.492-16.191 66.303s-48.665 52.913-67.042 20.47c28.226-6.372 51.528-30.35 46.572-41.647-34.567-89.604 7.049-109.335 45.864-109.335 27.58 0 49.619 19.423 60.085 30.658l30.904-79.139c-5.664-3.755-9.265-8.65-9.265-14.129 0-9.019 9.388-16.53 22.378-19.485l60.424-154.984c-60.885 7.449-133.468-27.241-133.468-27.241s-152.398 118.508-225.781 24.009c134.022-46.572 158.062-94.56 158.062-165.080 0-70.581 16.93-261.025 249.728-266.689 232.768-5.664 287.928 233.507 290.606 337.947s84.679 262.656 85.603 217.5c11.882-18.869-7.511-304.365 52.759-309.844 32.443-5.664 74.737-3.817 102.933-3.355 11.574 49.496-84.648 17.33-85.356 89.296zM385.935 156.209c-79.139 13.821-64.087 102.532 35.737 161.663l50.173-128.666c-24.009-23.178-52.544-38.846-85.91-32.998zM590.969 358.38c-23.702-37.215-73.229-117.338-106.011-155.138l-48.080 123.187c8.003 4.125 16.345 8.095 25.241 11.789-10.773 14.713-25.056 23.548-40.97 28.596l-61.963 158.739c1.908 0.246 3.909 0.246 5.695 0.646 61.378-21.547 203.587 27.334 261.394 70.674 50.82 2.832-11.635-201.279-35.306-238.493z" />
<glyph unicode="&#xe608;" d="M869.505 23.794c0 0 14.025 50.728 8.543 69.011-4.397 14.581-43.799 103.544-67.174 160.589-7.068 19.59-12.383 36.759-12.55 45.72-0.557 28.3 36.537 100.427 28.272 148.595-8.32 48.113-94.611 111.224-82.98 121.158 11.632 9.962 120.156 5.092 128.643 16.613 8.543 11.52 23.263 24.933 13.329 42.325s-106.299 63.139-111.307 68.092c-4.953 4.981-12.439 91.272-70.541 82.952 18.254-115.37-4.118-157.695-102.931-194.204-14.108-14.164-10.101-67.591-3.757-91.467 23.235-127.948-160.283-71.32-218.274-72.183-59.382 3.367-90.688 10.324-144.95-25.545-39.987-26.38-69.845-8.404-90.716 8.988-36.537-57.379 64.642-54.513 59.132-70.402-16.279-31.667-6.678-93.582-1.753-103.516 6.094-12.188 8.265-30.804 6.372-36.954-7.458-24.070-66.367-81.755-66.367-111.808 0-30.081 4.258-103.349 4.258-103.349s-4.48-42.464 4.48-42.464c8.932 0 57.546 1.642 69.15 1.642s-5.816 38.512-29.636 40.961c0 9.155 5.454 99.397 5.454 99.397l70.040 84.204c0 0 8.070-82.59 19.228-99.008 11.186-16.39 50.116-90.743 50.116-90.743s-2.449-31.166 4.898-31.166 47.779 1.057 62.443 1.057c14.637 0-3.284 40.293-25.907 37.872-8.571 13.44-27.827 87.877-33.531 104.295s-7.235 73.602-6.456 98.145c0.723 24.571 25.35-18.143 140.887-17.392 115.481 0.751 153.048 17.392 153.048 17.392s25.155-193.313 26.909-207.31c2.337-15.249-2.504-31.75 5.371-31.75 7.903 0 54.735-0.306 68.259-0.306 13.552 0 2.616 44.606-28.968 44.551-6.15 14.86-10.992 106.521-10.992 106.521l50.422 92.58c0 0 77.915-79.167 88.907-99.954 11.019-20.759 5.816-76.691 5.816-76.691s-10.379-12.188-13.385-20.174c7.541-12.105 26.575-26.63 43.326-43.41 22.011 4.898 23.597 33.726 18.366 50.116-5.259 16.473-13.496 27.020-13.496 27.020zM586.033 639.518c62.777 33.837 18.421 105.547 5.148 97.255 7.207-28.272 3.284-73.045-38.151-70.263-41.518 2.811-42.909 85.484 26.269 103.766 69.122 18.227 126.417-114.841-11.353-159.643 90.215-6.651 137.27 34.867 127.864 143.893s-236.89 86.875-240.73-35.98c-3.951-122.883 104.935-90.66 130.953-79.028z" />
<glyph unicode="&#xe60d;" d="M965.184 840.288c-76.928 101.76-214.016 144.896-333.568 104.928-51.136-17.152-92.256-48.384-122.496-89.344-29.6 37.312-68.704 65.92-116.768 82.016-119.52 40.032-256.608-3.072-333.536-104.864-74.624-98.848-64.704-192.128-43.328-252.992 23.552-66.848 76.768-131.712 116.288-141.632 31.328-7.68 63.328 11.136 71.264 42.624 6.88 27.328-6.656 55.136-31.040 67.040-9.952 8.64-44.928 46.72-52.832 99.328-5.984 39.712 4.992 77.216 33.408 114.816 46.208 61.088 131.328 88.064 202.432 64.352 63.36-21.28 98.24-78.496 98.24-161.056v-482.24c0-32.48 26.272-58.72 58.752-58.72 32.512 0 58.752 26.24 58.752 58.72v489.44c0 82.624 34.88 139.808 98.24 161.088 71.2 23.744 156.224-3.232 202.432-64.32 28.416-37.632 39.328-75.2 33.376-114.784-7.936-52.672-42.88-90.752-52.8-99.328-24.384-11.936-37.952-39.68-31.072-67.072 7.936-31.552 39.808-50.592 71.296-42.624 39.52 9.92 92.704 74.784 116.288 141.632 21.376 60.928 31.296 154.24-43.328 252.992z" />
<glyph unicode="&#xe60e;" d="M685.336 257.92c0 0-63.765 14.762-70.574 36.361-6.781 21.599 11.916 49.449 26.957 41.914 15.013-7.535 20.287-38.649 48.249-49.421s93.373 79.978 100.181 103.223c6.865 23.245 10.772 36.612 10.772 36.612s232.371 151.723 0 379.769c-18.501 14.399-177.229 94.628-294.935-58.853-13.060-21.515-129.929-241.217 47.523-291.866 207.116-59.132 232.427 226.455 112.069 189.843 34.882-46.184 28.157-119.743-54.946-88.963-56.425 35.468 6.195 113.799 6.195 113.799s35.915 60.667 104.563 29.217c39.821-18.25 143.296-168.634-39.542-268.704-300.098-90.052-278.555 190.456-278.555 190.456s-38.119 54.891-72.555 29.078c29.050-25.841 55.979-61.337 16.129-60.248-54.863 21.515-199.749-44.761-227.013-70.992 94.824-21.906 303.837-399.805 322.757-583.146 18.306 1.088 31.924 209.935-11.665 301.382-21.683 30.054-110.953 90.247-27.041 191.377 17.19-2.149-79.336-72.778 82.852-156.495-16.129-31.171-36.612-141.51 17.19-172.708s100.712 142.235 181.387 158.365z" />
<glyph unicode="&#xe60f;" d="M924.448 129.536c20.8 2.24 102.56 105.696 99.456 127.232s-134.144 208.064-134.144 208.064-9.248 180.32-166.56 225.12c-206.592 479.648-565.888 220.576-519.616-13.792 283.712 251.328 355.424-65.504 355.424-65.504s-207.392 136.512-219.744 32.384c-12.352-104.128 171.168-156.544 252.864-178.208 1.568-9.184-181.92 38.464-206.592 39.424s-385.536-122.304-385.536-122.304l4.864-441.728 429.248 8.128c0 0 121.792 181.184 158.016 195.808 36.256 14.56 35.488-21.632 33.952-61.056 23.168 5.536 25.44 67.264 25.44 67.264s47.072-36.992 11.552-90.176c55.52 5.376 36.672 116 53.024 122.368 16.416 6.304 187.52-55.296 208.352-53.024z" />
<glyph unicode="&#xe610;" d="M1024 280.064c-118.112-60.896-271.008 43.232-271.008 43.232s271.008-62.208 240.512 140.992c-50.784-154.944-227.328-77.472-227.328-77.472s265.44 8.896 185.44 276.896c6.304-189.28-175.328-215.936-175.328-215.936s-17.984 75.584 24.128 142.24c42.112 66.656 102.944 143.52 77.504 191.808-25.376 48.288-42.432 58.112-42.432 58.112s29.76 156.544-169.696 112.064c-31.744-16.544 141.984-56.928 101.312-129.344-12.672-35.552-119.104 53.12-119.104 53.12s49.536-133.344 99.104-142.24c49.504-8.896 38.144-69.632 27.936-86.368-5.472-8.896-16.864-27.584-26.432-43.264-14.208 81.12-70.432 126.272-159.584 148.928 26.688 6.016 46.656 29.76 46.656 58.144 0 32.928-26.816 59.68-59.712 59.68-27.392 0-50.368-18.688-57.312-43.936-6.944 25.248-29.888 43.936-57.312 43.936-32.896 0-59.68-26.752-59.68-59.68 0-23.584 13.856-43.808 33.696-53.504-80.032-23.776-126.624-92.128-143.36-153.536-1.792-6.592-2.624-13.92-3.712-21.024-7.616 12.448-30.72 50.272-39.296 64.224-10.272 16.832-21.632 77.536 27.904 86.432s99.072 142.24 99.072 142.24-106.368-88.672-119.072-53.12c-40.672 72.416 133.024 112.8 101.28 129.344-199.392 44.48-169.664-112.064-169.664-112.064s-17.056-9.856-42.464-58.112 35.36-125.152 77.504-191.808c42.080-66.656 24.128-142.24 24.128-142.24s-181.632 26.656-175.296 215.936c-80.032-268 185.44-276.896 185.44-276.896s-176.576-77.472-227.328 77.472c-30.496-203.264 240.512-140.992 240.512-140.992s-152.864-104.128-271.008-43.264c83.84-146.112 317.536 15.52 317.536 15.52s-62.688-124.672-220.192-127.232c133.376-123.2 299.84 149.664 328.608 134.080 63.776-28.992 133.6-27.2 181.856-6.72 0.32 0.032 0.448-0.224 0.736-0.192 42.112 2.112 147.456-248.544 315.456-123.232-186.688 0.448-217.568 123.232-217.568 123.232s233.728-161.536 317.568-15.456zM575.936 830.112c10.528 0 19.072-8.576 19.072-19.040 0-10.496-8.544-19.072-19.072-19.072-10.496 0-19.072 8.576-19.072 19.072 0 10.464 8.576 19.040 19.072 19.040zM461.312 830.112c10.528 0 19.072-8.576 19.072-19.040 0-10.496-8.544-19.072-19.072-19.072s-19.072 8.576-19.072 19.072c0 10.464 8.544 19.040 19.072 19.040zM536.576 763.392c-12.672 1.952-24.672 2.592-36.384 2.72 8.768 7.584 15.264 17.664 18.432 29.184 3.68-13.44 11.872-25.024 22.944-32.864-1.76 0.224-3.232 0.704-4.992 0.96z" />
<glyph unicode="&#xe612;" d="M813.191 253.794c17.615 1.233 179.975 5.724 198.507 93.735 1.486 6.957-2.467 24.794-11.669 13.567-109.958-66-209.449 26.628-209.449 26.628s174.346 161.38 146.896 313.019c-27.45 151.703-261.408 285.6-330.792 237.215 106.511-58.094 166.851-198.475 166.851-198.475s-81.306-14.516-166.851 62.933c-30.676-172.638 176.306-183.959 211.41-188.798 23.276-3.194-48.986-134.309-74.539-159.609-3.036-2.973-4.586-6.135-5.123-9.456-30.518 17.678-124.632 67.613-226.368 67.613s-195.945-49.935-226.431-67.613c-0.601 3.289-2.119 6.483-5.092 9.456-25.647 25.3-97.909 156.415-74.602 159.609 35.072 4.807 242.022 16.16 211.378 188.798-85.481-77.448-166.819-62.933-166.819-62.933s60.339 140.381 166.819 198.475c-69.352 48.385-303.342-85.513-330.76-237.215-27.418-151.671 146.832-313.019 146.832-313.019s-99.491-92.628-209.417-26.628c-9.203 11.227-13.124-6.61-11.701-13.567 18.532-88.011 180.987-92.502 198.538-93.735 18.975-1.36 46.773-30.707 37.095-43.61-9.076-12.112-162.771-9.962-225.83 15.559-4.238 1.739-14.579 2.15-5.092-10.057 39.183-54.173 243.698-56.102 242.212-63.565-1.518-7.59-135.89-138.041-64.356-211.251 4.522-4.617 18.405-9.867 20.872 4.206 35.325 115.935 99.68 189.431 127.383 192.53 25.078 2.783 166.756-7.305 168.969-7.21 2.15-0.158 3.795 0.063 3.858 0.285 29.695 2.119 140.033 9.709 165.111 6.926 27.671-3.099 92.059-76.594 127.32-192.53 2.53-14.010 16.476-8.76 20.904-4.206 71.566 73.116-62.838 203.598-64.387 211.251-1.486 7.4 203.029 9.392 242.243 63.565 9.487 12.27-0.854 11.796-5.060 10.057-63.059-25.584-216.754-27.671-225.925-15.559-9.709 12.934 18.121 42.25 37.064 43.61z" />
<glyph unicode="&#xe615;" d="M894.56 385.728c-2.784-2.464-225.568-198.912-475.104-193.472 30.208 39.392 48.96 88.192 48.96 141.664 0 129.152-105.056 234.176-234.208 234.176-129.152 0.032-234.208-105.024-234.208-234.176 0-115.168 83.648-210.592 193.28-230.048 80.64-36.8 161.024-52.224 238.080-52.224 296.928 0 543.52 218.752 556.544 230.528 28.608 25.824 30.784 69.792 5.12 98.304-25.824 28.704-69.824 30.944-98.464 5.248zM234.208 239.136c-52.288 0-94.784 42.432-94.784 94.784 0 52.288 42.496 94.752 94.784 94.752s94.784-42.464 94.784-94.752c0-52.32-42.496-94.784-94.784-94.784zM129.44 625.92c2.784 2.464 225.568 198.88 475.136 193.44-30.208-39.392-48.992-88.16-48.992-141.632 0-129.152 105.056-234.176 234.24-234.176 129.12 0 234.176 105.024 234.176 234.176 0 115.136-83.68 210.56-193.28 230.016-80.672 36.896-161.024 52.256-238.080 52.256-296.96 0-543.552-218.752-556.544-230.528-28.64-25.824-30.784-69.792-5.12-98.272 25.856-28.768 69.856-31.008 98.464-5.28zM789.824 772.512c52.256 0 94.752-42.464 94.752-94.784s-42.496-94.784-94.752-94.784c-52.32 0-94.816 42.464-94.816 94.784 0 52.288 42.496 94.784 94.816 94.784z" />
<glyph unicode="&#xe617;" d="M808.435 743.314c-70.82 0-133.256-34.818-172.619-87.717-19.713 42.435-39.042 100.23-39.042 164.554 0 79.013-64.068 132.136-159.434 132.136-48.867 0-99.43-14.785-134.184-43.043-42.563 32.514-104.263 50.755-154.41 50.755-39.874 0-74.597-10.785-100.358-31.17-22.081-17.473-48.387-50.499-48.387-108.743 0-26.21 21.249-47.395 47.427-47.395s47.427 21.185 47.427 47.395c0 23.105 6.496 39.362 38.242 44.003 56.388 8.449 120.872-28.258 125.736-44.003v-387.384c0-26.178 21.249-47.395 47.427-47.395s47.395 21.217 47.395 47.395v387.384c0 16.705 38.594 37.282 83.653 37.282 20.769 0 39.49-4.544 51.331-12.321 9.409-6.24 13.217-13.537 13.217-24.962 0-137.129 67.044-246.575 91.942-282.514-0.192-3.328-0.992-6.528-0.992-9.921 0-33.794 8.481-65.284 22.305-93.766-29.058-44.195-110.503-144.841-251.568-147.881-26.178-0.576-46.979-22.177-46.435-48.451 0.576-25.858 21.697-46.403 47.427-46.403 0.32 0 0.672 0 0.992 0 161.77 3.424 262.896 102.438 311.635 166.538 36.514-28.194 81.637-45.731 131.208-45.731 118.951 0 215.629 96.71 215.629 215.597 0 118.951-96.614 215.757-215.565 215.757zM808.435 406.877c-66.564 0-120.744 54.179-120.744 120.776 0 66.564 54.179 120.744 120.744 120.744 66.628 0 120.808-54.179 120.808-120.744 0-66.596-54.179-120.776-120.808-120.776z" />
<glyph unicode="&#xe618;" d="M993.568 835.712c-122.496 312.192-367.552-62.112-392.736-62.112-16.704 0-54.816 0-78.624 0-12.032 0-20.448 0-20.448 0-23.776 0-61.888 0-78.592 0-25.152 0-270.208 374.304-392.736 62.112s164.512-339.072 164.512-339.072-142.688 142.688-78.912 231.68c63.776 88.928 214.848-68.832 214.848-68.832s-75.52-130.912-50.336-177.92c25.184-47.008 83.904-38.592 95.648-77.216 11.744-38.56 16.672-205.76 16.672-205.76 5.216-12.928 38.24-77.824 115.968-87.968 0.8-0.128 1.632-0.064 2.432-0.032 0.256-0.032 0.512 0.032 0.736 0 0.256 0.032 0.512-0.032 0.736 0 0.8-0.032 1.632-0.096 2.432 0.032 77.696 10.144 110.752 75.040 115.968 87.968 0 0 4.896 167.2 16.672 205.76 11.744 38.624 70.432 30.208 95.616 77.216s-50.304 177.92-50.304 177.92 151.072 157.792 214.848 68.832c63.776-88.96-78.912-231.648-78.912-231.648s287.040 26.848 164.512 339.040z" />
<glyph unicode="&#xe61a;" d="M916.613 608.84c13.175 44.519 54.626 113.915-42.203 229.785-96.919 115.93-328.298 55.679-236.222-111.358 15.221 118.457 123.902 106.786 184.634 33.901 22.801-30.441 5.715-79.443 5.715-79.443s-110.335 25.298-114.396-117.404c-1.624-30.712-40.338-77.247-43.587-79.563-68.734-48.159-243.020 9.686-404.252-1.775-143.664-1.534-210.142-81.789-180.363-178.829 18.62-8.663 27.794 72.855 37.45 68.764 9.686-4.061-16.815-49.663-11.461-68.764 5.354-19.131 25.207-79.232 17.567-103.928-7.64-24.726-68.072-83.864-68.072-114.697s4.392-105.943 4.392-105.943-4.632-43.587 4.572-43.587c9.205 0 59.048 1.654 70.93 1.654s-5.956 39.496-30.411 41.992c0 9.385 5.625 101.943 5.625 101.943l71.802 86.391c0 0 8.272-84.677 19.733-101.522 11.491-16.845 51.377-93.069 51.377-93.069s-2.497-31.976 5.023-31.976 48.881-0.632 63.921-0.632-3.249 43.075-26.441 40.579c-8.784 13.777-28.516 90.121-34.412 106.936-5.836 16.875-2.797 54.295-2.015 79.533s28.366 5.956 146.853 6.798c118.457 0.752 144.777 13.175 144.777 13.175s31.013-196.997 32.788-211.346c2.376-15.642-2.557-32.547 5.565-32.547 8.152 0 58.116 0.15 72.013 0.15s0.662 45.301-31.705 45.241c-6.317 15.13-11.28 109.132-11.28 109.132l51.708 94.934c0 0 79.894-81.187 91.174-102.454 11.28-21.327 5.956-78.66 5.956-78.66s-10.648-12.544-13.807-20.695c7.761-12.393 27.313-27.313 44.489-44.489 22.56 5.023 24.185 34.562 18.8 51.377-5.354 16.815-13.777 27.584-13.777 27.584s14.409 52.009 8.753 70.809-68.313 158.554-83.353 201.75c-15.040 43.256 72.133 187.371 72.133 187.371s119.991-66.508 152.267-36.157c20.906 19.101-55.408 114.486-42.263 159.036z" />
<glyph unicode="&#xe61c;" d="M729.301 621.259c0-49.503-40.13-89.633-89.633-89.633s-89.633 40.13-89.633 89.633c0 49.503 40.13 89.633 89.633 89.633s89.633-40.13 89.633-89.633zM346.139 469.626c208.385-218.028 435.298-36.043 463.405-6.892 57.795 69.999 62.474 245.883-6.323 333.303 15.619-297.955-141.263-339.31-246.136-267.951-130.45 101.553 33.292 310.475 198.268 171.52 1.929 40.058 11.983 210.693-5.944 228.588-295.711 105.347-611.656-240.508-403.27-458.568zM811.441 846.054c30.257-19.602 108.319-166.557 70.252-314.428-25.451-79.895-112.018-209.871-342.851-199.406-244.239 8.948-415.759 266.339-211.579 506.119-24.661-15.682-314.965-105.031-314.965-105.031v-705.81c0 0 289.039 112.081 345.064 194.948 0-44.832-2.245-156.85 22.416-203.896 24.598-47.014 156.819-107.497 187.234-71.707 30.384 35.885 162.288 235.259 162.288 235.259s80.654 38.066 125.803 176.516c100.003 54.254 317.083 310.444-43.663 487.434z" />
<glyph unicode="&#xe61f;" d="M749.953 531.775c5.008 68.272-188.141 131.536-188.141 131.536s-4.022 52.716 23.308 71.602c-18.327 33.297-51.624-86.572-51.624-86.572s-18.327 24.986-44.964 0c-9.989 0-13.319 96.561-39.956 94.91 11.667-39.956 6.659-96.561 6.659-96.561s-146.506-44.964-169.814-99.891 46.616-259.716 223.089-268.053 236.461 184.785 241.443 253.030zM720.572 612.673c12.52-5.008 32.738-36.786 41.874-36.786s124.877 90.727 133.188 115.713c8.311 24.986 0.053 30.393-10.762 48.693-28.316-16.648-176.793-122.613-164.3-127.62zM750.060 787.336c21.55-16.648 68.991-75.757 68.991-75.757h3.33c17.794 10.335 48.294 36.627 61.613 35.801s-125.729 241.416-276.364 209.771c121.52-44.964 133.987-107.376 99.891-127.354-34.123-19.978-96.561 21.656-128.206 63.264-11.641-103.22 149.223-89.076 170.747-105.724zM848.911 449.731c-19.419-9.483-37.932-17.101-52.289-20.138-14.571-3.037-22.828-0.986-28.769 1.545-3.063 1.412-3.862 1.785-7.086 3.649-2.477 1.359-3.783 2.078-3.783 2.078l-22.695-48.214c0 0 1.412-0.559 3.969-1.572 1.705-0.666 8.524-3.33 15.396-4.928 6.952-1.731 15.956-2.717 25.838-2.238 9.856 0.666 20.138 3.17 30.074 6.766 19.685 7.432 38.358 18.939 57.297 31.725 9.51 6.393 19.046 13.212 28.555 20.191 10.762 7.965 18.726 14.145 28.662 23.787 9.43 8.897 17.474 17.927 24.986 27.437 7.752 9.323 14.517 18.993 20.751 28.449 12.6 18.993 22.722 37.452 30.633 53.541 15.876 32.258 23.468 54.847 23.468 54.847s-10.655-21.363-30.527-50.718c-9.989-14.597-22.269-31.166-36.733-47.548-7.219-8.178-14.944-16.409-23.255-24.027-8.124-7.752-17.181-15.343-25.918-21.576-7.965-6.1-19.765-13.079-28.662-17.714-10.042-5.407-20.138-10.628-29.914-15.343zM996.19 411.453c-4.315-4.315-10.655-7.485-17.101-11.454-6.1-4.209-14.118-6.899-21.816-10.548-7.858-3.543-16.808-5.993-25.599-9.163-18.193-5.194-37.772-9.776-57.697-12.786-39.743-6.286-80.259-8.178-109.32-6.766-7.086 0.666-13.878 0.932-19.206 1.758-4.528 0.826-11.96 1.811-10.362 2.024-0.133 0-0.293-0.213-0.506-0.559-0.107-0.506-2.397 1.305-3.117 1.652-2.024 1.252-3.117 1.865-3.117 1.865l-26.797-46.056c0 0 1.199-0.533 3.436-1.412 1.545-0.559 1.678-0.826 5.008-1.838 3.223-0.986 7.032-1.971 11.348-2.797 10.389-2.051 13.931-0.906 21.896-1.199 7.192 0.053 14.517 0.986 22.882 1.652 32.524 3.703 73.946 12.546 114.115 25.812 20.085 6.446 39.69 14.571 57.537 22.988 8.737 4.848 17.368 8.79 25.013 13.798 7.538 5.194 15.050 9.217 20.964 14.731 6.047 5.194 11.827 9.43 15.769 14.784 3.889 5.088 8.311 8.577 10.096 13.052 4.209 8.018 6.606 12.6 6.606 12.6s-3.063-4.076-8.471-11.241c-2.078-3.942-7.139-6.739-11.561-10.895zM799.898 152.67c-2.903 8.258-5.008 17.474-9.323 25.758-3.676 8.631-8.045 17.101-13.052 25.119-19.286 32.897-45.79 60.041-64.41 79.806-4.528 4.848-8.684 9.217-12.386 13.079-3.33 3.676-6.899 7.618-6.899 8.151-0.426 0.559-0.799 0.986-1.252 1.359-0.693 1.332-1.359 2.451-1.785 3.33-1.039 1.865-1.598 2.85-1.598 2.85l-45.017-28.502c0 0 0.693-0.852 2.078-2.504 0.639-0.826 1.518-1.865 2.557-3.063 1.678-1.758 3.756-3.889 5.993-6.18 5.248-5.328 8.897-7.618 13.638-11.348 4.555-3.33 9.616-7.032 15.183-11.081 21.576-15.663 49.999-35.748 72.321-61.506 5.86-6.286 11.028-12.999 15.663-19.978 5.301-6.659 8.364-14.145 12.52-21.124 3.223-7.219 5.993-14.517 8.338-21.576 1.492-7.219 3.33-14.011 4.209-20.538 0.373-6.606 0.613-12.653 0.932-17.98 0.16-5.381-0.986-10.016-1.252-13.905-0.932-7.805-1.492-12.28-1.492-12.28s1.385 4.315 3.729 11.8c0.986 3.862 2.983 8.364 3.889 13.878 0.719 5.567 1.598 11.8 2.531 18.673 0.373 6.952-0.293 14.464-0.453 22.615-1.066 7.991-2.531 16.515-4.662 25.146zM633.467 238.842c-1.359 5.381-2.61 10.362-3.703 14.784-0.4 1.971-0.719 3.862-1.092 5.567-0.453 1.918-0.666 3.436-0.4 3.117 0.16 0.107-0.266 0.266 0 2.93 0.053 1.731 0.107 2.744 0.107 2.744l-53.222-1.758c0 0 0.186-0.932 0.506-2.717 0.107-0.879 0.932-5.834 2.77-12.12 0.986-3.49 1.918-5.461 2.797-7.352 0.879-2.051 1.918-4.289 2.957-6.633 2.131-4.262 4.528-9.057 7.139-14.304 10.362-20.298 23.521-46.349 32.684-74.186 4.768-13.852 8.098-28.049 10.442-41.608 2.024-13.638 2.717-26.531 2.451-37.719-0.666-11.081-1.518-20.538-3.117-26.957-1.305-6.5-2.024-10.282-2.024-10.282s1.545 3.516 4.209 9.59c3.010 6.1 5.967 15.13 9.243 26.371 2.77 11.348 5.061 24.879 6.1 39.637 0.666 14.731 0.559 30.607-1.199 46.349-3.063 31.565-10.975 62.492-16.648 84.548zM261.581 575.913c9.163 0 29.408 31.779 41.874 36.786s-135.985 110.945-164.274 127.594c-10.841-18.3-19.126-23.707-10.788-48.693 8.311-24.986 124.051-115.687 133.188-115.687zM201.646 711.578h3.33c0 0 47.441 59.109 68.991 75.757s182.414 2.504 170.747 105.724c-31.645-41.634-94.057-83.242-128.206-63.264-34.123 19.978-21.63 82.417 99.891 127.354-150.635 31.645-289.657-210.596-276.338-209.771s43.845-25.465 61.586-35.801zM54.048 518.296c6.286-9.456 13.052-19.152 20.751-28.449 7.512-9.51 15.61-18.513 25.039-27.463 9.936-9.563 17.847-15.823 28.609-23.734 9.563-7.006 19.046-13.825 28.555-20.218 18.993-12.759 37.665-24.293 57.351-31.699 9.936-3.623 20.165-6.1 30.020-6.766 9.883-0.506 18.966 0.479 25.838 2.184 6.926 1.625 13.745 4.235 15.45 4.955 2.61 1.012 3.916 1.572 3.916 1.572l-22.695 48.187c0 0-1.305-0.693-3.783-2.051-3.223-1.811-3.969-2.238-7.032-3.623-5.993-2.557-14.251-4.635-28.822-1.572-14.358 3.037-32.817 10.602-52.289 20.138-9.643 4.688-19.738 9.909-29.994 15.317-8.844 4.635-20.697 11.667-28.609 17.714-8.79 6.207-17.847 13.825-25.918 21.576-8.364 7.618-16.062 15.876-23.255 24.027-14.464 16.382-26.797 32.951-36.786 47.548-19.738 29.381-30.393 50.744-30.393 50.744s7.538-22.589 23.414-54.847c7.965-16.062 18.114-34.549 30.633-53.541zM280.786 314.2c7.911 0.293 11.534-0.852 21.843 1.199 4.315 0.826 8.124 1.811 11.348 2.797 3.33 1.012 3.49 1.332 5.008 1.838 2.291 0.879 3.49 1.412 3.49 1.412l-26.797 46.056c0 0-1.092-0.613-3.17-1.865-0.719-0.346-2.957-2.078-3.117-1.652-0.213 0.346-0.32 0.559-0.479 0.559 1.652-0.213-5.807-1.199-10.335-2.024-5.354-0.826-12.12-1.092-19.206-1.758-29.141-1.412-69.551 0.479-109.32 6.766-19.978 3.010-39.503 7.592-57.75 12.786-8.764 3.17-17.741 5.621-25.545 9.163-7.752 3.703-15.716 6.34-21.869 10.548-6.34 3.916-12.759 7.139-17.101 11.454-4.369 4.155-9.43 6.979-11.667 10.815-5.354 7.192-8.471 11.294-8.471 11.294s2.451-4.582 6.659-12.653c1.705-4.422 6.18-7.938 10.096-13.052 3.889-5.274 9.723-9.51 15.769-14.757 5.914-5.541 13.452-9.483 20.91-14.731 7.645-5.008 16.276-8.95 25.013-13.825 17.9-8.391 37.452-16.489 57.537-22.962 40.169-13.265 81.591-22.109 114.142-25.838 8.444-0.586 15.823-1.518 23.015-1.572zM377.773 281.143c1.359 1.652 2.051 2.504 2.051 2.504l-45.017 28.502c0 0-0.559-0.986-1.518-2.85-0.559-0.879-1.172-1.998-1.865-3.33-0.453-0.373-0.826-0.772-1.252-1.359 0.053-0.533-3.543-4.475-6.819-8.151-3.729-3.889-7.885-8.311-12.413-13.079-18.593-19.765-45.124-46.909-64.463-79.806-5.008-8.071-9.376-16.489-13.026-25.119-4.262-8.284-6.34-17.501-9.35-25.758-2.078-8.631-3.543-17.181-4.688-25.066-0.16-8.124-0.719-15.663-0.426-22.589 0.906-6.872 1.731-13.132 2.557-18.7 0.826-5.487 2.824-10.042 3.862-13.878 2.344-7.538 3.729-11.8 3.729-11.8s-0.559 4.475-1.492 12.28c-0.266 3.889-1.412 8.524-1.199 13.878 0.293 5.328 0.559 11.401 0.879 17.954 0.879 6.5 2.797 13.372 4.209 20.538 2.451 7.032 5.141 14.304 8.338 21.55 4.155 6.979 7.219 14.517 12.573 21.177 4.582 6.979 9.776 13.665 15.61 19.925 22.322 25.758 50.771 45.843 72.321 61.533 5.567 4.022 10.708 7.752 15.237 11.081 4.741 3.729 8.311 6.020 13.638 11.348 2.238 2.344 4.209 4.422 5.993 6.207 1.012 1.119 1.838 2.158 2.531 3.010zM395.754 265.24c0.266-2.744-0.213-2.824 0-2.93 0.266 0.32 0.053-1.199-0.4-3.117-0.373-1.705-0.693-3.596-1.145-5.567-1.092-4.422-2.291-9.403-3.649-14.784-5.727-22.056-13.638-52.955-16.702-84.521-1.678-15.743-1.865-31.645-1.145-46.323 1.039-14.837 3.383-28.316 6.127-39.637 3.197-11.294 6.1-20.351 9.217-26.398 2.664-6.1 4.155-9.59 4.155-9.59s-0.719 3.756-1.971 10.309c-1.678 6.34-2.451 15.849-3.17 26.904-0.213 11.214 0.479 24.134 2.451 37.719 2.397 13.612 5.674 27.81 10.495 41.634 9.11 27.863 22.269 53.888 32.684 74.186 2.61 5.248 5.008 10.042 7.165 14.304 1.012 2.344 1.998 4.582 2.93 6.633 0.826 1.865 1.758 3.889 2.77 7.379 1.838 6.26 2.717 11.188 2.824 12.067 0.346 1.758 0.506 2.744 0.506 2.744l-53.222 1.731c0 0 0-0.959 0.080-2.744z" />
<glyph unicode="&#xe620;" d="M772.345 244.258c-31.827 31.802-111.701 107.979-110.222 173.678 1.405 44.695-43.98 119.171-58.895 125.951-3.353 1.504-6.681 3.353-9.836 5.251-9.886 5.35-6.681 16.172-6.237 16.986 1.060 2.416 2.589 3.649 4.511 4.191 25.836-6.114 32.813-6.311 29.78 11.365 0.986 0.518 6.188 2.293 7.618 4.043 1.43 1.726-0.814 2.687-0.814 2.687s1.676-0.444 3.303 1.109-0.32 9.269-0.32 9.269 8.949-0.074 11.464 2.49-10.798 24.11-9.541 27.241c1.356 3.106 4.536 4.043 5.522 4.684 0.961 0.641 4.684 9.097-2.884 25.343-2.441 5.202-5.621 10.872-10.305 16.221 7.914 3.994 18.465 20.93 19.278 29.14 1.035 10.97-54.704 40.455-116.336 1.159-6.903-3.575-12.302-8.678-16.419-14.693-4.117 6.015-9.491 11.118-16.419 14.693-61.632 39.296-117.347 9.812-116.312-1.159 0.814-8.209 11.34-25.146 19.278-29.14-4.709-5.35-7.889-11.020-10.305-16.221-7.618-16.221-3.846-24.653-2.884-25.318 0.986-0.641 4.166-1.578 5.498-4.684 1.257-3.156-12.031-24.702-9.516-27.266s11.464-2.49 11.464-2.49-1.948-7.716-0.32-9.245c1.578-1.553 3.303-1.109 3.303-1.109s-2.243-0.961-0.838-2.712 6.607-3.525 7.593-4.043c-3.032-17.651 3.944-17.479 29.78-11.365 1.874-0.518 3.451-1.775 4.487-4.191 0.444-0.814 3.673-11.636-6.212-16.986-3.205-1.898-6.533-3.747-9.861-5.251-14.89-6.779-60.251-81.28-58.92-125.951 1.553-65.699-78.346-141.876-110.173-173.678-31.802-31.827-10.034-78.938 2.046-84.312 12.055-5.374 112.195-66.291 112.195-66.291s49.429-114.463 38.582-111.751c-11.759-0.764-48.073-18.218-48.073-18.218s-9.467-20.314-6.755-25.762c2.712-5.424 105.834 2.12 110.814 5.793 4.955 3.649-1.134 17.923-1.134 17.923s-29.016 102.555-16.739 98.808c4.98-1.553 12.178 6.755 13.559-4.068-0.69-18.243 11.759-31.531 28.918-33.158 4.832 0.419 18.268 34.637 26.945 65.921 8.678-31.284 22.089-65.502 26.945-65.921 17.134 1.553 29.608 14.89 28.918 33.158 1.381 10.823 8.604 2.564 13.559 4.068 12.277 3.747-16.739-98.833-16.739-98.833s-6.089-14.225-1.134-17.923 108.102-11.217 110.789-5.793c2.687 5.448-6.73 25.762-6.73 25.762s-36.363 17.454-48.073 18.218c-10.798-2.662 38.557 111.751 38.557 111.751s100.164 60.966 112.219 66.291c12.055 5.399 33.824 52.51 2.022 84.337zM497.936 590.061c0 0 0 0 4.561-2.169 3.008-0.838 6.36 2.022 9.516 7.371 3.156-5.35 6.508-8.209 9.516-7.371 4.561 2.169 4.561 2.169 4.561 2.169 2.49-4.807 5.892-24.949 8.604-38.729-10.477-3.402-18.342-14.866-22.631-28.819-4.29 13.953-12.154 25.417-22.656 28.819 2.638 13.806 6.065 33.922 8.53 38.729zM603.351 156.568c0-9.91-48.097-17.405-60.005-10.058-7.297 4.857-22.631 0.099-31.334-4.24-8.727 4.339-24.061 9.097-31.334 4.24-11.858-7.347-60.005 0.148-60.005 10.058 0 13.559 0 52.831 0 52.831s40.209-9.491 50.859 27.784c10.65 37.275-30.964 148.261 33.848 226.805 2.835 3.55 4.98 7.741 6.632 12.351 1.627-4.61 3.772-8.801 6.632-12.351 64.812-78.568 23.198-189.53 33.848-226.805 10.699-37.275 50.834-27.784 50.834-27.784s0.025-39.272 0.025-52.831z" />
<glyph unicode="&#xe622;" d="M908.525 864.286c-92.241 156.924-211.6 46.121-234.897 12.375-23.266-33.746-37.755-127.029-37.755-127.029s54.455-15.626 55.37-27.022c0.979-11.459-61.842-24.307-61.842-24.307s-0.947-9.502-8.081-26.17c-9.028-22.35-95.146-65.282-98.965-91.326-5.682-38.513 49.057-29.958 49.435-47.541-0.379-9.407-1.136-27.969-1.357-32.925-2.967-1.2-16.889-14.332-15.216-25.949 1.957-13.322 15.153-17.678 15.153-17.678s-17.583-17.552-13.132-26.612c4.451-9.060 27.401-7.608 31.694-11.428s4.861-23.55-1.926-29.958c-6.819-6.377-28.506-20.93-17.11-53.255 11.364-32.326 22.855-43.785 145.497-28.537 44.069-118.569-94.136-165.479-143.666-182.62-21.813-7.576-44.763-45.994-59.853-86.149-15.089 40.154-37.976 78.604-59.853 86.149-49.435 17.11-187.671 64.020-143.634 182.62 122.704-15.216 134.132-3.82 145.497 28.537 11.396 32.357-10.291 46.847-17.11 53.255-6.787 6.408-6.156 26.17-1.926 29.958s27.243 2.368 31.694 11.428c4.451 9.060-13.132 26.612-13.132 26.612s13.259 4.356 15.153 17.678c1.673 11.649-12.311 24.781-15.216 25.949-0.221 4.956-0.979 23.518-1.389 32.925 0.474 17.615 55.149 9.060 49.467 47.541-3.82 26.012-89.937 68.976-98.965 91.326-7.134 16.636-8.113 26.17-8.113 26.17s-62.757 12.848-61.778 24.244c0.915 11.428 55.37 27.022 55.37 27.022s-14.269 93.315-37.566 127.061c-23.297 33.778-142.719 144.581-234.897-12.375-124.662-212.073-116.044-344.943-72.291-534.508 8.46-36.493 31.978-101.838 47.573-136.942 24.307 27.938 100.133 86.843 167.342 497.731-13.89-385.507-158.345-511.4-153.957-518.692 72.070-120.4 202.098-222.459 405.016-235.465 0.663-0.063 1.136-0.442 1.894-0.379 0.379 0 0.663 0.063 1.010 0.063s0.663-0.063 0.979-0.063c0.694-0.063 1.168 0.316 1.894 0.379 202.919 13.038 332.947 115.097 405.016 235.465 4.388 7.261-140.067 133.185-153.957 518.692 67.208-410.888 143.003-469.794 167.342-497.731 15.595 35.135 39.144 100.449 47.573 136.942 43.658 189.597 52.276 322.466-72.385 534.539z" />
<glyph unicode="&#xe624;" d="M661.105 149.659v412.491c58.697 13.085 104.679 35.772 136.864 68.326 44.584 45.138 46.351 91.7 46.246 100.59-0.343 26.566-21.5 46.879-48.040 47.829-26.829 0.765-49.148-20.524-51.232-46.984-2.242-28.966-50.599-83.654-217.22-83.654-170.104 0-225.82 57.721-231.571 88.481-3.43 26.46-27.014 46.272-53.975 43.133-27.304-2.559-47.354-26.75-44.795-54.081 0.554-5.514 12.716-106.658 158.523-153.405v-423.519c-162.269-43.951-175.327-152.772-175.881-158.549-2.506-26.486 16.488-49.148 42.869-52.709 26.302-3.561 51.073 15.301 55.769 41.471 5.487 30.734 61.019 88.772 231.624 88.772 166.622 0 214.978-54.688 217.22-81.675-0.343-27.383 21.632-49.913 49.042-50.203 0.185 0 0.422 0 0.58 0 27.12 0 49.332 21.87 49.649 49.068 0.079 8.864-1.662 55.426-46.246 100.564-28.834 29.256-69.039 50.493-119.426 64.053zM455.202 165.25v387.561c22.397-2.295 46.008-3.878 72.468-3.878 11.766 0 22.951 0.501 34.137 0.976v-384.554c-16.514 1.134-33.556 1.847-51.495 1.847-19.495 0.026-37.857-0.66-55.11-1.952z" />
<glyph unicode="&#xe628;" d="M807.175 573.036c0 0 21.567 82.973 0 118.364-21.503 35.327-147.547 93.789-147.547 93.789s58.43 130.716-126.044 139.932c101.501-53.854 70.718-115.324 70.718-115.324l-119.932-39.999c0 0-49.182 127.58-289.015 143.004 135.324-7.68 247.736-13.472 304.598-107.261 29.919 9.28 41.919 20.319 73.598 26.463-8.032 72.83-103.709 103.133-139.996 111.549-36.319 8.48-239.801 37.887-303.831-11.36-29.247-13.856-123.484-142.332-123.996-210.009-0.608-67.678-5.728-574.926-5.728-614.925s49.246-169.147 81.533-169.147c32.287 0 396.628 0 481.201 0 49.214 1.504-378.164 495.921-167.547 627.276-113.82-195.258 130.652-430.515 172.155-464.337 41.503-33.791 179.866-49.214 198.298-46.111 18.431 3.136 73.822 115.324 73.822 129.148 0 13.856-118.364 83.101-127.58 95.325s-110.141-10.304-110.141 34.303c0 44.607 96.317 67.134 133.212 54.846 36.895-12.32 129.116-93.789 150.651-95.325 21.567-1.568 133.692 138.396 138.332 172.219s-216.761 127.58-216.761 127.58zM329.43 605.643c-7.328-4.288-16.127-9.6-24.927-17.151-9.152-7.168-17.567-16.959-26.015-27.551-7.296-11.424-14.496-24.095-17.663-38.943-4.352-14.464-3.904-30.783-2.912-47.327 1.824-16.671 6.496-33.791 12.352-51.038 5.76-18.719 11.616-37.695 17.503-56.67 6.208-18.335 8.416-39.647 12.576-59.102 4.512-19.839 5.344-39.327 7.072-58.046 2.144-18.687 2.592-36.831 2.208-54.046 0.256-17.215 0-33.471-1.44-48.382-1.504-29.951-6.144-54.59-8.672-71.742-3.136-17.151-5.824-26.783-5.824-26.783s-0.512 9.92-1.344 27.263c-0.672 17.279-2.752 41.887-5.344 71.102-2.88 29.119-5.696 63.23-11.904 99.005-2.496 17.983-5.504 36.511-9.664 54.59-4.448 18.367-6.24 36.639-12.992 55.614-5.376 18.783-10.688 37.599-15.968 56.062-6.4 19.583-9.792 40.031-10.88 60.158-0.384 20.191 1.92 40.223 9.088 57.758 5.824 18.015 17.055 32.447 27.711 44.223 22.879 22.879 47.711 32.159 64.222 37.727 16.927 5.12 27.039 5.44 27.039 5.44s-9.44-3.648-24.223-12.16zM286.775 693.832c-21.247-9.696-45.823-22.015-66.814-39.423-10.368-8.672-20.031-18.687-26.367-29.823-4.32-5.152-5.024-11.68-8-17.311-0.992-6.848-2.304-11.2-3.104-20.031-1.536-15.392-3.968-33.023-7.136-48.734-2.752-16.031-7.36-31.327-11.52-46.079-8.704-29.535-19.487-56.222-30.655-78.142-10.912-22.047-22.399-39.359-31.999-50.366-4.736-5.6-9.44-9.184-12.64-11.328-3.616-1.568-5.536-2.304-5.536-2.304s1.44 1.312 4.192 3.808c2.304 3.008 4.864 7.68 7.808 13.888 5.696 12.576 11.904 31.327 18.463 54.078 6.272 22.815 12.928 49.566 18.847 78.334 3.104 14.368 5.408 29.375 7.968 44.447 2.624 15.328 4.16 29.567 5.472 46.015 0.8 7.136 3.072 18.495 5.184 27.295 4.064 8.576 6.592 18.271 12.512 25.471 9.696 16.191 23.839 27.263 37.023 36.895 13.504 9.44 27.679 15.808 41.055 21.407 13.472 5.28 26.495 9.024 38.527 11.904 48.446 11.232 81.277 8.416 81.277 8.416s-31.391-9.632-74.558-28.415z" />
<glyph unicode="&#xe62a;" d="M984.864 317.308c47.14 57.615 112.632 460.922-214.748 597.103-327.338 136.181-484.47-68.091-481.872-151.895-109.993-39.262-133.583-162.37-133.583-162.37s-159.772-78.566-154.534-172.846c5.238-94.279 120.468-99.517 120.468-99.517l34.946-48.020 6.956 48.020c0 0 172.175 79.446 180.053 10.015s-151.182-93.818-151.182-93.818l-32.306 23.549 9.847-43.955c0 0-35.156-11.062-19.443-45.045 31.426-52.377 136.181 18.353 136.181 18.353s-81.122-306.136 151.853-238.338c-144.059 73.328-13.115 185.961-13.115 185.961s28.829-293.314 314.265-115.23c-225.223-23.591-173.6 89.922-149.255 115.23 24.303 25.309 149.255 155.247 149.255 155.247s65.493-97.632-94.279-217.304c209.51-55.855 219.985 326.5 219.985 326.5s49.78-183.321-81.206-306.429c298.551 65.493 149.255 439.971 149.255 439.971s55.059-18.269 52.461-225.181zM196.394 610.621c-5.028 18.982 9.386 34.066 24.429 36.664s69.851-13.576 85.731-22.082c15.881-8.506-105.132-33.563-110.16-14.582z" />
<glyph unicode="&#xe62c;" d="M524.951 540.24c-41.003-96.33 168.053-104.512 262.346-151.658s137.333-145.547 159.839-145.547c116.832 155.797-65.546 368.959-65.546 368.959s-69.653 20.501-84.075 88.149c-14.357 67.648 49.184 168.085 38.933 116.832-10.186-51.221 63.574-77.899 71.787-112.725 8.181-34.826-2.037-92.256-2.037-92.256s198.805-120.939 75.861-405.855c47.147-190.656-57.333-190.656-57.333-190.656s34.794-67.648-63.574-67.648c-98.4 0-155.733 0-243.914 0s-24.64 73.792 14.293 73.792 70.623-1.229 86.080 0c-5.142-0.323-118.19 8.763-94.132 84.786-144.318-11.835-332.161 46.403-332.161 46.403s-91.286-218.853-158.934-216.816c-67.648 2.037-122.264-4.042-117.22 32.337 11.124 72.757 111.173 3.040 120.356 141.472 6.144 79.936 51.221 139.403 51.221 139.403s-125.013 84.075-84.010 325.887c-14.163-1.164-53.291-8.181-65.611 16.427-12.288 24.576 0 53.258 0 53.258s-52.223 70.785-29.685 111.787c22.506 41.035 114.956 53.161 157.996 57.268 17.526 167.083 91.351 164.237 206.145 115.021 188.522 22.506 237.091-268.684 153.372-388.62z" />
<glyph unicode="&#xe62d;" d="M929.921 158.828c-6.993 34.024-40.341 56.118-74.247 49.067-34.082-6.934-56.001-40.194-49.008-74.247 1.557-7.962-66.402-98.986-114.822-77.273-48.391 21.742-52.034 110.21-20.714 150.609 68.576 88.203 223.416 311.795 179.902 481.649-17.217 67.195-63.111 118.583-134.067 149.316-107.477 43.543-198.295 40.811-270.103-8.315-100.719-68.87-126.604-206.845-133.098-282.296-0.411 0-0.735 0.147-1.146 0.147-122.021 0-221.301-99.28-221.301-221.301 0-121.992 99.28-221.271 221.301-221.271 121.992 0 221.271 99.28 221.271 221.271 0 75.54-38.166 142.265-96.136 182.223 1.087 53.18 16.454 173.967 80.241 217.452 34.905 23.564 85.735 22.154 150.227-4.055 44.689-19.304 56.118-46.041 60.819-64.463 20.009-78.008-41.751-224.503-157.308-373.173-86.793-111.679-71.691-233.2 40.282-325.105 66.343-41.604 167.239-18.657 206.581 5.112 62.083 37.344 128.455 110.797 111.326 194.652zM312.618 230.813c-52.622 0-95.401 42.809-95.401 95.372 0 52.622 42.779 95.431 95.401 95.431s95.401-42.809 95.401-95.431c-0.029-52.563-42.809-95.372-95.401-95.372z" />
<glyph unicode="&#xe630;" d="M944.414 607.829h52.994v66.978c11.552 13.12 18.817 30.177 18.817 49.058 0 41.217-33.441 74.594-74.626 74.594s-74.594-33.377-74.594-74.594c0-2.016 0.48-3.84 0.608-5.856h-249.448v127.62h-0.896c0.256 2.976 0.896 5.824 0.896 8.864-0.096 58.274-47.265 105.507-105.571 105.507-0.192 0-0.384-0.064-0.576-0.064s-0.384 0.064-0.576 0.064c-58.242 0-105.507-47.265-105.507-105.507 0-3.104 0.64-5.952 0.864-8.864h-0.864v-127.556h-249.448c0.16 1.984 0.608 3.808 0.608 5.856 0 41.217-33.409 74.594-74.626 74.594-41.185 0-74.562-33.377-74.562-74.594 0-18.881 7.264-35.937 18.817-49.058v-66.978h52.962c-31.361-70.434-88.387-217.831-78.562-338.731 13.44-165.349 181.478-165.349 256.744-155.909 75.266 9.408 189.958 100.771 164.005 232.551-17.697 89.699-117.828 200.486-179.942 262.088h540.145c-62.114-61.666-162.213-172.453-179.878-262.088-25.985-131.716 88.675-223.143 163.941-232.551 75.33-9.44 243.336-9.44 256.712 155.909 9.856 120.868-47.137 268.232-78.434 338.667zM351.947 347.085c1.376-69.922-209.703-134.436-256.68-84.675-41.889 44.225 24.193 291.273 39.329 345.451h58.242c43.169-54.37 158.053-204.070 159.109-260.776zM928.829 262.378c-47.073-49.794-258.056 14.784-256.744 84.675 1.12 56.706 115.972 206.406 159.205 260.744h58.178c15.2-54.146 81.187-301.193 39.361-345.419z" />
<glyph unicode="&#xe631;" d="M968.672 335.392l-105.792 329.856h-26.816v18.048c52.448 12.928 53.344 64.64 53.344 64.64s-19.872-23.328-53.344-32.384v14.304h-20.928v-17.76c-0.864-0.032-1.664-0.256-2.56-0.288-47.68-1.152-69.184 77.952-129.184 77.952-55.872 0-118.304-33.248-158.624-37.856v90.016c28.512 4.448 50.368 28.832 50.368 58.592 0.064 32.832-26.624 59.488-59.488 59.488s-59.52-26.656-59.52-59.488c0-31.36 24.384-56.8 55.2-59.104v-88.832c-40.352 6.368-100.224 37.184-154.112 37.184-60 0-81.44-79.104-129.152-77.952-3.872 0.128-7.424 0.736-11.072 1.216v16.832h-20.928v-11.936c-28.384 10.304-44.8 30.016-44.8 30.016s0.896-45.792 44.8-61.888v-20.768h-26.784l-107.68-329.92h-61.6c0 0 44.192-84.416 202.464-84.416s202.464 84.416 202.464 84.416h-55.328l-105.76 329.888h-26.848v15.872c4.224-0.448 8.64-0.704 13.408-0.704 77.984 0 89.6 49.44 132.672 49.44 38.752 0 84.16-48.128 140.128-57.856 2.4-0.672 14.144 0.128 10.592-0.736l-1.792-184.864-35.552-72 1.216-216.896h-97.728v-38.4l-78.56-129.152h446.816l-96 130.912v36.672h-85.504v214.912l-36 75.648-0.032 183.584c3.232 0.032 3.104-0.672 6.816 0.32 55.968 9.728 101.376 57.856 140.128 57.856 43.104 0 54.688-49.44 132.672-49.44 1.76 0 3.232 0.192 4.864 0.256v-15.36h-26.752l-107.68-329.888h-61.632c0 0 44.192-84.416 202.464-84.416s202.464 84.384 202.464 84.384h-55.328zM196.064 335.392h-112.416l100.8 308.896h11.616v-308.896zM228.576 644.32l99.072-308.896h-110.656v308.896h11.584zM815.136 335.392h-112.448l100.8 308.896h11.616v-308.896zM836.064 335.392v308.928h11.552l99.072-308.896-110.624-0.032z" />
<glyph unicode="&#xe634;" d="M56.96 551.84h223.040c31.456 0 56.96 25.472 56.96 56.896l-0.064 11.264c-0.48 43.552-1.472 134.272 48.736 185.088 27.264 27.552 67.232 40.96 122.176 40.96 79.904 0 130.112-28.32 158.112-89.024 24.672-53.696 24.672-118.112 24.64-148.256 0-31.424 25.504-56.896 56.928-56.896h219.424c31.456 0 56.96 25.472 56.96 56.896s-25.504 56.928-56.96 56.928h-164.224c-2.944 39.616-11.104 90.4-33.376 138.944-32.608 70.912-104.48 155.36-261.536 155.36-85.76 0-154.112-25.152-203.2-74.816-64.672-65.344-78.528-156.352-81.184-219.424h-166.432c-31.456 0-56.96-25.472-56.96-56.928 0-31.52 25.504-56.992 56.96-56.992zM967.072 466.368h-910.112c-31.456 0-56.96-25.504-56.96-56.896 0-31.456 25.504-56.96 56.96-56.96h910.112c31.424 0 56.928 25.504 56.928 56.96s-25.504 56.896-56.928 56.896z" />
<glyph unicode="&#xe637;" d="M557.013 213.989c0 0-16.916-14.573-35.171-14.573-18.285 0-35.201 14.573-35.201 14.573v-131.1l-173.816-146.89h418.034l-173.816 146.89-0.030 131.1zM563.433 334.501c0-21.575-18.621-39.065-41.59-39.065s-41.59 17.49-41.59 39.065c0 21.575 18.621 39.065 41.59 39.065s41.59-17.49 41.59-39.065zM560.36 256.127c0-21.575-18.621-39.065-41.59-39.065s-41.59 17.49-41.59 39.065c0 21.575 18.621 39.065 41.59 39.065s41.59-17.49 41.59-39.065zM555.553 874.477c0-19.391-15.719-35.11-35.11-35.11s-35.11 15.719-35.11 35.11c0 19.391 15.719 35.11 35.11 35.11s35.11-15.719 35.11-35.11zM558.352 839.367c0 0-14.056-18.559-37.939-18.559s-39.065 18.559-39.065 18.559v-100.614h76.974l0.030 100.614zM557.226 373.566v209.017c0 0-20.202 20.232-38.487 20.232s-38.487-17.433-38.487-17.433v-211.816c0 0 21.906 16.277 40.465 16.277s36.509-16.277 36.509-16.277zM268.984 666.312c0 0 73.293-100.371 104.204-103.2 28.356-2.556 115.978 63.983 147.62 76.548 31.672-12.565 124.467-80.382 152.823-77.826 30.911 2.829 99.428 99.945 99.428 99.945s38.913-32.037 48.497-22.453c9.553 9.584-33.71 67.421-47.189 67.421s-91.030-55.068-106.79-55.068c-33.984 0-112.541 64.561-142.478 71.65-1.095 0.365-7.424 0.365-8.519 0-29.907-7.089-108.494-71.65-142.478-71.65-15.73 0-95.533 57.868-109.011 57.868s-54.49-60.667-44.968-70.25c9.523-9.523 48.862 27.017 48.862 27.017zM50.413 266.228l203.966-197.76 203.966 197.76zM251.581 571.904v-276.681h26.956v274.643l168.248-281.336 31.946-0.517-213.398 356.515-211.147-356.759h30.272zM767.551 63.236l203.966 197.821h-407.933zM791.769 289.929v274.704l150.084-281.032 31.733-0.548-195.052 356.241-224.716-356.576h32.433l178.501 283.953v-276.742z" />
<glyph unicode="&#xe638;" d="M954.368 519.072h-242.88c22.432 223.264 147.392 307.392 154.688 312.128 32.544 20.032 42.752 62.592 23.008 95.328-20 32.896-62.752 43.232-95.648 23.424-8.608-5.152-196.672-123.2-221.984-430.88h-156.832c-25.376 307.68-213.408 425.696-221.984 430.88-32.672 19.712-74.88 9.312-94.912-23.040-20.16-32.384-10.144-75.136 22.080-95.648 5.856-3.808 132.224-87.552 154.72-312.192h-204.992c-38.496 0-69.632-31.168-69.632-69.664 0-38.432 31.136-69.632 69.632-69.632h204.576c-23.36-199.072-143.584-235.552-148.288-236.8-37.376-8.992-60.448-46.592-51.456-83.968 7.68-31.904 36.192-53.408 67.648-53.408 5.376 0 10.816 0.672 16.32 1.952 9.856 2.432 227.616 58.528 256.096 372.32h157.248c28.448-313.792 246.208-369.888 256.128-372.32 5.44-1.28 10.88-1.952 16.16-1.952 30.944 0 58.752 20.992 66.848 52.384 9.536 36.736-12.768 74.528-49.44 84.672-5.632 1.568-125.984 38.048-149.344 237.12h242.272c38.464 0 69.632 31.2 69.632 69.632 0 38.496-31.168 69.664-69.664 69.664z" />
<glyph unicode="&#xe639;" d="M690.806 513.17c-101.443 1.056-286.857-84.003-332.682-64.386s-7.616 197.414-190.886 187.59c34.881-97.059-9.856-111.267-9.856-111.267s-62.146-52.418-145.061 91.587c-81.827-257.448 269.416-211.591 269.416-211.591s22.945-90.531 160.389-107.971c10.496-7.136 28.065-72.802 36.929-84.227s92.835 3.456 92.835 3.456 50.114 2.176 51.298 46.913c149.445-18.561 314.282 119.972 320.842 146.149 6.496 26.177-1.76 33.825-1.76 33.825s-150.021 68.834-251.464 69.922zM771.512 352.333c-20.513 0-37.057 15.488-37.057 34.657s16.641 34.689 37.057 34.689c20.513 0 37.121-15.52 37.121-34.689s-16.609-34.657-37.121-34.657zM742.199 763.482c0 0-22.881 90.531-160.325 107.971-10.56 7.136-28.065 72.802-36.929 84.259-8.864 11.392-92.867-3.488-92.867-3.488s-50.178-2.176-51.266-46.913c-149.445 18.561-314.314-119.972-320.874-146.149-6.56-26.209 1.728-33.857 1.728-33.857s150.053-68.706 251.528-69.858c101.443-1.056 286.857 84.003 332.682 64.386s7.616-197.414 190.886-187.59c-34.913 97.059 9.824 111.235 9.824 111.235s62.178 52.418 145.061-91.587c81.795 257.416-269.448 211.591-269.448 211.591zM252.456 747.001c-20.513 0-37.057 15.52-37.057 34.689s16.577 34.657 37.057 34.657c20.481 0 37.089-15.488 37.089-34.657s-16.609-34.689-37.089-34.689z" />
<glyph unicode="&#xe63a;" d="M371.104 250.72c0 0-17.568 115.328-68.928 122.816 24.448-58.272 0-88.96 0-88.96l-68.928 38.88c0 0 24.448 55.136 0 81.44-9.376-18.144-36.32-30.048-36.32-30.048s15.008 75.2-12.576 85.216c-3.68-23.264-27.552-55.2-27.552-55.2l-27.552 132.832c0 0 152.256 100.864 48.864 254.368-13.12-134.72-95.264-159.136-105.248-161.664-51.392 11.328-6.272 150.368-6.272 150.368s-161.632-148.512 18.752-249.344c-101.44-196.736 62.688-343.328 62.688-343.328s-47.008 3.168-56.384 27.552c-34.432-34.464 53.888-83.968 53.888-83.968s-14.432-8.192-26.304-26.304c-11.936-18.112 89.568-133.28 205.504-57.664 8.64 5.664 85.248-72.672 288.192-56.416 31.008 2.336 104.512-14.688 117.824 6.24 13.312 20.992-8.32 66.368-36.064 77.888 22.112 9.376 73.824-67.488 72.384-45.248-23.040 161.312-395.968 220.544-395.968 220.544zM615.328 25.664c-13.856 0-24.928 11.168-24.928 24.864 0 13.76 11.136 24.896 24.928 24.896 13.76 0 24.832-11.2 24.832-24.896s-11.136-24.864-24.832-24.864zM938.624 415.552c101.504 196.736-62.656 343.328-62.656 343.328s47.008-3.168 56.416-27.584c34.432 34.464-53.92 84-53.92 84s14.4 8.16 26.272 26.304c11.872 18.112-89.632 133.248-205.504 57.632-8.64-5.664-85.248 72.672-288.16 56.384-31.072-2.304-104.512 14.784-117.824-6.208s8.32-66.336 36-77.888c-22.016-9.376-73.728 67.584-72.352 45.312 23.072-161.376 396-220.576 396-220.576s17.6-115.328 68.928-122.816c-24.448 58.304 0 88.96 0 88.96l68.928-38.848c0 0-24.448-55.136 0-81.44 9.312 18.176 36.32 30.048 36.32 30.048s-15.008-75.2 12.512-85.184c3.744 23.168 27.616 55.136 27.616 55.136l27.488-132.8c0 0-152.256-100.864-48.8-254.4 13.12 134.72 95.264 159.168 105.248 161.664 51.328-11.328 6.272-150.368 6.272-150.368s161.664 148.512-18.784 249.344zM408.704 871.52c-13.76 0-24.928 11.2-24.928 24.928s11.2 24.864 24.928 24.864 24.864-11.168 24.864-24.864c0.032-13.728-11.104-24.928-24.864-24.928z" />
<glyph unicode="&#xe63f;" d="M485.34 479.090c0 0 4.901-9.866 9.457-10.965 33.054-7.792 180.318-41.286 222.672-14.799 22.622 15.050-60.263 85.87-60.263 85.87s97.872-45.182 114.525-28.655c60.577 97.527-95.547 257.956-135.23 295.817-9.96 11.217-17.312 2.796-17.312 2.796l-185.251-128.35 51.403-201.715zM656.452 661.23c16.244 0 29.377-13.165 29.377-29.377 0-16.244-13.133-29.409-29.377-29.409-16.213 0-29.377 13.165-29.377 29.409 0 16.213 13.165 29.377 29.377 29.377zM437.834 487.667c20.297-1.131 14.453 21.397 14.453 21.397l-46.658 185.251 198.070 129.669c0 0 13.196 8.735 0.66 16.621-31.545 26.895-123.919 103.245-155.025 100.732-37.672-3.016-28.623-102.428-55.739-96.396-283.186-13.51-383.698-502.118-370.533-518.111 13.165-16.024 23.91-27.304 48.166-9.080 24.727-53.696-32.457-175.385-51.528-225.154-4.964-15.050 7.666-11.060 16.37-3.645 43.736 43.705 74.716 59.226 92.248 57.53 17.501-1.728 57.938-17.061 81.408-30.163 11.217-8.263 24.225-5.97 12.348 10.965-183.051 385.331 129.732 369.245 215.759 360.384zM538.66 398.373c0 0-4.839 9.834-9.457 10.965-32.991 7.792-180.255 41.286-222.64 14.83-22.591-15.050 60.232-85.87 60.232-85.87s-97.872 45.119-114.462 28.592c-60.64-97.527 95.516-257.956 135.199-295.817 9.96-11.217 17.312-2.796 17.312-2.796l185.251 128.381-51.434 201.715zM367.548 216.232c-16.213 0-29.377 13.165-29.377 29.377 0 16.244 13.165 29.44 29.377 29.44 16.244 0 29.377-13.196 29.377-29.44 0-16.213-13.133-29.377-29.377-29.377zM987.993 788.511c-43.736-43.705-74.748-59.226-92.28-57.53s-57.938 17.061-81.377 30.163c-11.248 8.263-24.225 5.97-12.379-10.965 182.988-385.363-129.795-369.276-215.822-360.384-20.297 1.1-14.422-21.428-14.422-21.428l46.627-185.251-198.070-129.669c0 0-13.196-8.735-0.66-16.621 31.545-26.864 123.951-103.245 155.025-100.763 37.609 3.079 28.592 102.491 55.707 96.396 283.217 13.573 383.729 502.118 370.533 518.143-13.196 15.993-23.942 27.272-48.166 9.049-24.727 53.696 32.457 175.416 51.591 225.154 4.964 15.081-7.635 11.060-16.307 3.708z" />
<glyph unicode="&#xe642;" d="M1024 464.513l-75.576 38.514v-29.281h-29.378c-1.872 380.17-430.177 410.259-430.177 410.259l-51.46 75.995-35.254-17.336 67.537-97.335-104.34-168.778c-4.778 0.484-9.459 1.259-14.398 1.259-72.702 0-131.652-52.622-131.652-117.544 0-36.803 19.338-69.248 48.974-90.781-31.573-12.203-268.276-108.117-268.276-108.117v-66.569l149.731-22.050c0 0 49.2-130.554 33.801-193.766s-138.884-88.198-138.884-88.198l0.065-45.939c0 0 268.34 0 305.337 0s71.314 83.614 36.997 161.934c10.363 19.661 20.597 41.71 30.734 64.018l57.723-101.435c-19.273-26.505-59.176-81.387-59.176-81.387l24.697-36.997 53.978 80.16c0 0 411.711 26.214 424.076 424.044h29.313v-29.249l75.608 38.579zM500.491 842.359c85.454-8.135 325.514-58.853 349.727-368.613l-412.486-1.227c27.312 21.533 44.874 52.687 44.874 87.779 0 51.234-36.965 94.365-88.166 110.442l106.051 171.619zM503.461 93.027l-67.247 119.255c24.439 52.073 26.246 105.406 26.246 105.406l353.311 43.583c0 0 8.781-9.943 29.281-12.332-46.295-251.166-305.563-267.21-341.592-255.911zM772.608 393.618l-371.422 23.857-5.424 32.735c1.582 0.581 3.325 0.775 4.875 1.356l450.807 3.68c0.549-11.235 0.775-22.211 0.678-32.768-29.927-7.49-79.514-28.861-79.514-28.861z" />
<glyph unicode="&#xe643;" d="M1023.456 895.554c-0.32 7.776-1.632 15.648-4.672 22.975-3.328 8.032-8.096 15.168-14.048 21.247-0.128 0.192-0.192 0.384-0.32 0.544v0c-6.176 6.208-13.6 11.104-21.759 14.496-8.192 3.392-16.799 5.184-25.567 5.184-0.032 0-0.032 0-0.064 0h-357.141c-36.959 0-66.974-29.983-66.974-66.974 0-37.023 30.015-66.974 66.974-66.974h195.162l-319.926-318.934-114.972 119.324c-25.663 26.559-68.094 27.391-94.685 1.696-26.655-25.631-27.455-67.998-1.792-94.685l116.54-120.86-360.533-359.445c-26.175-26.047-26.239-68.51-0.128-94.685 13.056-13.152 30.207-19.679 47.391-19.679 17.087 0 34.207 6.528 47.295 19.551l358.869 357.781 131.548-136.476c13.12-13.632 30.623-20.511 48.254-20.511 16.671 0 33.471 6.176 46.431 18.751 26.623 25.631 27.391 68.062 1.76 94.685l-133.052 138.108 321.974 320.95v-190.202c0-37.023 30.015-67.006 67.038-67.006 36.959 0 66.942 29.983 66.942 67.006v351.605c-0.032 0.928-0.48 1.632-0.544 2.528z" />
<glyph unicode="&#xe644;" d="M94.578 87.274c0-12.648-12.648-131.088 20.436-131.088s15.046 69.033 35.046 61.37c20-7.726 207.348-83.955 244.98-81.463s38.13 52.74 37.974 63.457c26.604-20.934 66.541-12.212 67.507-1.464 0.966 28.722-51.588 45.264-52.896 69.126-1.34 23.862 188.875 51.899 144.733 131.057-38.94 76.603-163.237 96.416-173.953 124.608-10.716 28.224-14.922 118.035-14.922 118.035s40.124 13.24 49.407 34.454c9.283 21.215-18.567 39.376-18.567 39.376s10.031 0.498 25.451 1.308l205.136-265.883 0.779 22.741c10.779 99.811 118.721 106.789 121.15 176.072 2.679 74.235-34.423 63.613-34.423 108.253 0 0.125 0 0.312 0 0.467h0.187c0 0.436 0 0.872-0.093 1.308h96.229v-29.439l83.051 35.794-83.051 26.947v-20.56h-95.357c5.67 32.274 35.887 29.937 33.457 97.257-2.554 74.173-126.291 76.821-121.836 198.781-0.654-0.903-1.153-1.776-1.807-2.648l0.436 2.648-223.142-278.78-43.114 4.517c-17.414 11.931-35.171 24.112-46.79 32.087 0.405 0.498-1.931 16.916 4.517 19.377 29.345-0.903 37.009 0.592 29.719 20.903 0.935 0.841 6.168 4.268 7.29 6.698s-1.495 3.022-1.495 3.022 1.931-0.093 3.302 2.118c1.402 2.212-2.43 10.934-2.43 10.934s9.751 2.149 11.869 5.794c2.118 3.645-17.134 26.043-16.417 30.124 0.716 4.050 3.956 5.95 4.86 6.978s3.084 12.025-8.816 29.501c-3.801 5.576-8.505 11.589-14.828 16.76 7.695 6.729 22.741 21.277 21.775 31.246-1.308 13.333-75.793 42.928-133.736-19.159-57.943-62.117 14.081-125.574 14.081-125.574l4.424 3.676c6.729-9.128 13.24-15.358 11.028-18.567 0 0-63.768-25.919-70.435-55.264s-16.23-97.724-16.23-112.303c0-14.579-26.728-23.426-20.124-51.276s86.198-86.198 89.749-90.466c3.551-4.268-29.626-28.909-19.314-78.254 13.645-65.232 68.784-73.768 84.703-100.279 15.919-26.542 28.037-117.35 17.539-130.808 0 0-182.364 29.096-201.834 59.75-19.034 21.9-55.201 9.408-55.201-3.271zM433.357 207.366c29.221-4.86 80.808-35.545 80.808-35.545s-62.366-16.479-69.126-25.794c-4.922 14.704-10.218 53.55-11.682 61.338zM642.076 810.719c-2.087-66.541 98.004-92.802 98.004-141.773 0-40.996-12.056-53.083-20-73.862-16.698-4.081-36.386-13.458-48.473-17.726-14.050-4.953-102.615-7.352-174.888-3.302 0 0-8.878 2.554-16.012 6.448s-21.183 6.48-21.183 6.48l182.551 223.734zM642.107 304.716l-163.268 212.27c59.376 3.115 159.841 8.629 182.582 11.371 14.641 1.776 35.171 8.629 52.772 17.912 4.86-39.594 25.856-43.364 25.856-97.35 0-49.563-102.646-75.793-97.942-144.203z" />
<glyph unicode="&#xe647;" d="M893.048 653.037c-101.126 6.88-78.309-103.494-66.948-145.673 11.329-42.115-99.686 47.843-126.76 17.217-17.057 47.715-261.296-26.274-310.259 37.058-10.817 19.905 0 56.58 0 56.58s72.645 23.425 70.82 61.508c13.185-17.569 103.494-38.306 111.687-22.657 8.193 15.617 0 27.074 0 27.074s-90.886 63.332-118.247 106.791c49.539 34.914 36.002 52.675 32.45 76.901-12.801 61.956-100.39 49.091-100.39 49.091s54.243-45.571 42.051-57.7c-10.497-10.433-40.291 2.496-54.883 22.433-3.616-0.192-6.592-8.161-10.305-9.985-27.074-13.281-11.425-63.716-11.585-78.021-31.458 0.704-94.854-72.645-137.577-72.645s-123.88 41.443-123.88 41.443 6.4 79.013 19.233 103.942c12.801 24.866 96.806 78.277 96.806 78.277l-2.368 15.329c0 0-102.246-61.572-114.375-99.334-12.097-37.762-17.825-90.438-17.825-90.438s-27.746 20.705-32.706 5.056c-4.96-15.681 27.042-39.874 27.042-39.874s-32.002-59.812-14.945-112.519c17.089-52.675 56.932-98.246 56.932-98.246l3.392 21.857c0 0-36.162 38.018-43.971 80.005-7.808 41.955 16.385 101.798 16.385 101.798s91.142-63.364 178.251-41.283c-0.096-13.569 3.328-189.388-68.644-209.037-12.929 9.729-43.267 46.083-52.515 42.179-9.217-3.968-70.948-105.479-110.791-108.999 19.201-16.385 18.401-16.673 22.145-22.433 11.585 17.025 94.918 89.222 94.918 89.222s6.752-34.37 20.641-57.252c15.809-25.986 43.875-41.187 42.723-47.203-2.112-11.201-85.413 0-85.413 0s-88.582-123.336-92.454-138.441c-3.936-15.137-1.568-55.747-1.568-55.747h31.33l11.393 46.307c0 0 59.204 116.071 78.341 103.942 138.825-29.186 415.77 0.672 430.011 4.288-10.657-52.675 34.146-80.453 37.026-91.142 2.848-10.657-4.32-29.186-9.985-37.026-5.728-7.808-119.463-9.249-131.016-18.497s-33.41-36.322-40.611-47.683c13.473-7.136 19.265-9.985 27.778-14.625 3.552 16.417 49.859 38.114 49.859 38.114l116.743 8.545c0 0 24.93 49.123 36.994 38.434 23.489-21.345-108.871-166.634-108.871-166.634s24.93-0.352 37.026 0.416c9.249 19.233 122.6 119.175 124.712 151.913 2.080 32.706-36.546 52.067-30.050 101.158 6.368 49.123 96.102 103.942 38.434 184.204 25.634 14.433 43.427-45.699 89.702-46.211 46.275-0.544 56.964 37.698 56.964 54.179s-36.354 107.591 0 101.158c8.193-2.56 34.562-66.692 56.228-76.837 44.003-20.673 73.317-7.168 91.878 7.264-61.892-2.336-29.89 125.576-130.952 132.456zM413.146 112.555l43.619-21.761 5.216 28.834-28.642 14.273zM555.523 35.686l-10.113-28.162 58.34 0.256-9.889 28.066zM28.642 171.503l-8.897-28.162 51.235 0.288-8.705 28.034zM48.899 384.316l-23.585 21.665-25.314-14.913 35.906-33.026z" />
<glyph unicode="&#xe649;" d="M250.696 425.711c6.432 1.504 12.928 2.592 19.617 3.264 13.184 1.728 26.689 1.664 40.193 1.248l17.121-0.512 1.44 17.505c0.352 4.224 1.824 10.624 4.128 16.609 2.24 6.080 5.152 12.288 8.512 18.209 6.72 11.936 15.072 23.201 24.641 32.929 18.593 20.001 42.849 33.697 68.45 33.761h10.944l3.136 8.992c4.16 11.936 13.184 22.305 25.505 30.017 12.224 7.808 26.881 13.376 42.113 17.185 30.657 7.904 63.458 10.368 96.387 10.88-32.129 7.872-65.698 10.624-99.651 7.232-16.961-2.048-34.177-5.92-50.786-13.888-13.504-6.656-26.241-17.409-35.137-31.329-14.912-0.192-29.697-3.712-43.041-9.664-15.968-7.2-30.017-17.377-42.145-29.025-12-11.84-22.209-25.121-30.721-39.617-4.256-7.296-8.032-14.848-11.264-23.009-1.344-3.52-2.528-7.168-3.616-10.88-25.569-0.608-51.426-4.256-75.97-13.152-29.281-11.232-56.354-28.929-76.61-52.45-20.833-22.913-35.073-50.306-44.865-78.306-9.312-28.289-14.816-57.57-14.24-86.691 7.072 28.129 17.025 55.074 30.113 79.874 12.864 24.897 29.057 47.649 48.738 65.986 19.681 18.241 42.657 32.033 67.81 39.905 6.464 1.632 12.64 3.776 19.201 4.928zM142.596 440.336c19.009 12.64 39.457 22.273 61.314 27.617 21.857 5.28 44.513 7.584 67.426 6.272l16.257-0.896 2.24 17.953c0.384 2.944 1.696 8.256 3.712 13.248 2.080 5.12 4.8 10.272 7.808 15.36 6.112 10.144 13.664 19.777 22.145 28.033 8.32 8.48 17.601 15.808 27.553 20.993 2.528 1.184 4.992 2.752 7.616 3.488 2.592 0.736 5.12 2.144 7.776 2.592 5.28 1.408 10.56 1.984 15.968 2.368l11.616 1.056 2.4 7.968c5.216 17.537 20.865 30.657 41.441 37.409 20.449 7.168 43.681 8.992 67.106 8.96-22.113 8.352-46.241 11.936-71.202 8.96-12.448-1.792-25.185-5.6-36.929-12.864-8.736-5.632-16.449-13.472-22.209-22.497-5.024-0.096-10.016-0.448-14.912-1.504-4-0.512-7.616-2.016-11.424-3.008-3.872-0.992-7.328-2.72-10.912-4.224-14.144-6.336-26.657-15.136-37.665-25.121-10.848-10.208-20.193-21.697-28.193-34.273-3.936-6.304-7.552-12.928-10.688-20.129-1.056-2.816-2.176-5.568-3.136-8.48-8.064-0.192-16.129-0.576-24.193-1.568-13.088-1.376-26.145-4.096-38.849-8-25.217-8.16-49.218-20.769-69.026-38.081-19.937-17.121-35.809-38.081-47.777-60.546-11.552-22.625-20.097-46.657-22.849-71.33 20.385 44.961 50.146 84.131 87.587 110.243zM52.002 447.216c-9.28-22.337-15.008-45.921-14.72-69.442 14.688 44.097 40.033 83.267 74.69 107.715 17.441 11.968 36.673 20.801 57.25 25.345 10.24 2.272 20.737 4.128 31.361 4.896 10.624 0.928 21.441 0.8 32.257 0.416l16.065-0.64 2.464 17.665c0.224 1.44 1.728 7.808 3.872 12.48 2.016 4.96 4.768 9.952 7.648 14.752 5.92 9.536 13.312 18.113 21.825 25.121 4.256 3.456 8.512 7.072 13.344 9.632 4.608 3.040 9.728 4.96 14.784 7.136 5.248 1.632 10.496 3.328 16.097 4 5.472 1.344 11.264 0.96 16.897 1.696l11.68 1.504 2.112 6.944c3.808 12.544 19.969 22.369 38.433 27.265 18.465 5.344 38.753 7.328 59.33 8.608-19.585 7.104-40.481 10.304-62.242 9.6-10.848-0.672-22.081-2.496-33.313-7.296-8.224-3.52-16.481-9.472-22.785-17.313-4.672 0.192-9.312 0.288-14.016-0.512-7.424-0.576-14.688-2.208-22.017-4.128-7.104-2.336-14.304-4.736-20.865-8.48-3.424-1.632-6.752-3.36-9.824-5.568-3.136-2.080-6.464-3.936-9.248-6.464-5.376-4.288-10.304-9.024-14.976-14.016-45.889 14.976-232.551 83.843-144.709 189.51 99.683 120.036 214.919 112.292 214.919 112.292s77.346-60.962 104.099-43.873c-55.010 44.673-14.88 49.89-14.88 49.89s46.113 2.976 90.019-45.377c6.688 43.905-89.955 93.539-107.811 95.939-17.889 2.4-41.665 11.904-75.138-15.584-58.754 17.057-212.679-27.521-290.025-133.124-80.835-147.557 59.010-244.488 110.979-274.089-14.848-6.912-28.865-15.52-40.865-26.561-18.817-16.865-33.057-37.825-42.689-59.938zM934.653 609.845c-58.498 32.193-92.675 11.872-127.364-4.544-9.984-2.912-107.171 17.921-167.141 7.52-57.986-10.016-180.614-63.458-188.646-66.978-0.096-0.064-0.256-0.128-0.352-0.192-0.096 0-0.448-0.192-0.448-0.192h0.032c-17.953-7.808-106.019-60.994-104.035-114.020-4.736-4.096-10.976-9.088-16.577-13.6-43.905-35.297-117.444-94.243-103.235-165.445 18.081-90.627 123.14-136.132 127.588-138.020 0 0-1.984-83.875 131.716-113.156 144.773-31.713 234.023 98.147 234.023 98.147s-185.446-84.259-212.199-24.769c-13.92 27.777 97.155 50.594 91.203 70.402-48.674 16.673-124.932-2.976-122.948-16.865-11.904 39.681-102.115 30.753-102.115 30.753s-87.555 37.729-100.643 102.851c-8.576 42.881 50.882 90.531 86.371 119.012 17.729 14.208 28.097 22.817 33.569 31.937 22.689-5.312 44.577-8.64 48.514-9.408 0.032 0.16 0.064 0.32 0.128 0.48 4.832-14.016 17.569-24.993 43.201-28.929 57.25-5.184 67.65 27.169 72.834 21.601 50.178-68.066 153.989-11.936 153.989-11.936s-126.020 13.792-108.899 68.066c17.025 54.274 92.579 34.945 108.899 22.689 11.872 49.442-114.148 49.026-116.388 34.561-29.537 33.985-57.602 36.257-82.435 23.041-3.936 1.216-8.512 2.528-13.536 3.872 19.841 8.416 84.419 34.529 144.741 44.833 72.386 12.448 174.021-19.329 173.573-41.057-0.512-21.761 62.978-71.938 109.507-68.546-36.673 38.689-42.081 66.498-22.753 77.442 19.329 10.912 88.707-26.305 117.988-77.442 8.48 38.209-29.665 105.635-88.163 137.892z" />
<glyph unicode="&#xe64d;" d="M559.328 539.552c192.576 249.12 385.728-64.352 415.808-45.12 30.048 19.264-4.8 285.248-237.12 280.448-232.224-4.8-299.648-280.448-299.648-280.448l-79.424-9.632c0 0 25.28 93.888 46.944 96.288-25.664 16.832-32.32 8.832-46.944 3.616-24.48-7.616-66.208-99.904-66.208-99.904h-46.944c0 0 9.248 58.592 37.312 80.64-6.304 12.352-23.168 12.384-37.312 9.664-34.912-7.616-51.744-89.504-77.024-103.552-52.544-38.048-156.064 120.736 38.528 160.128 224.256 46.528 371.904 119.52 245.504 279.2-108.736 137.184-336.608-44.928-291.264-156.48 15.648-12.832 190.56 138.816 198.592 33.696 9.632-61.792-231.072-97.088-276.8-143.232-219.84-150.432 64.992-302.048 64.992-302.048s25.888-118.56 85.44-139.616c15.968-2.048 26.784 10.24 36.096 13.248-55.68 61.984-48.736 102.624-43.328 105.92 5.408 3.328 59.584-9.312 66.176-15.648 6.624-6.304 5.728-66.784 66.208-103.488 12.32-6.016 40.928-6.016 44.544 0-34.624 49.696-28.608 82.144-25.28 86.688s95.2 3.168 97.472-3.616c2.272-6.752 63.808-223.84 341.792-169.696s201.76 316.544 182.112 312.896c-19.648-3.584-56.96-193.792-212-213.024-87.84-8.448-180.704 88.512-186.752 98.080-6.016 9.632 148.672-9.344 135.392 82.816 9.728 25.504 87.84 31.456 83.040 47.168-4.768 15.68-89.664-3.328-88.448 34.016-9.632 139.52-190.752 32.128-171.456 60.992z" />
<glyph unicode="&#xe64e;" d="M1006.623 390.204l-144.233 103.334c-12.769 9.153-29.474 10.433-43.331 3.296-13.921-7.136-22.625-21.441-22.625-37.090v-63.492c-27.618 6.624-64.324 20.769-64.324 42.659v385.016c0 92.934-96.198 136.073-156.874 136.073-40.675 0-78.533-15.329-106.663-43.235-0.032-0.032-0.096-0.096-0.16-0.128-29.794 28.45-69.348 43.363-107.751 43.363-40.611 0-78.469-15.329-106.567-43.235-0.224-0.16-0.416-0.48-0.64-0.672-28.738 24.002-64.644 36.994-99.846 36.994-40.643 0-78.501-15.329-106.599-43.235-21.441-21.249-47.011-59.844-47.011-122.568 0-28.642 23.169-51.747 51.779-51.747s51.747 23.169 51.747 51.747c0 57.796 38.338 62.244 50.083 62.244 24.642 0 53.411-16.289 53.411-62.244v-437.947c0-28.61 23.137-51.747 51.747-51.747s51.747 23.201 51.747 51.747v444.828c0 57.796 38.37 62.276 50.115 62.276 70.148 0 60.9-67.364 60.9-87.493s0-419.61 0-419.61c0-28.61 23.169-51.747 51.747-51.747 28.642 0 51.779 23.201 51.779 51.747v444.828c0 57.796 38.274 62.276 50.083 62.276 24.642 0 53.379-16.321 53.379-62.276v-355.35c0-98.63 100.454-138.313 167.786-147.913v-60.58c0-16.385 9.601-31.202 24.482-37.986 5.568-2.528 11.361-3.744 17.185-3.744 9.953 0 19.713 3.52 27.458 10.273l144.233 125.992c9.633 8.353 14.881 20.673 14.241 33.41-0.512 12.865-6.912 24.578-17.281 31.938z" />
<glyph unicode="&#xe64f;" d="M666.56 600.672c-60.224 51.072-151.872 1.504-184.352-20.128-27.040 23.968-90.144 57.696-136.096 14.624-2.88-2.72-4.352-6.368-4.352-10.016 0-3.36 1.216-6.752 3.744-9.408 5.184-5.6 13.92-5.856 19.456-0.64 33.088 31.008 79.776-0.32 94.208-11.392-12.864-10.144-25.408-21.312-37.568-33.28-26.592 19.008-80.224 39.584-123.136-0.672-2.88-2.72-4.352-6.368-4.352-9.984 0-3.36 1.216-6.752 3.744-9.44 5.216-5.6 13.92-5.856 19.456-0.64 31.392 29.44 69.376 10.496 84.8 0.672-11.84-12.864-23.264-26.24-34.176-39.872-25.344 14.752-80.928 30.304-124.576-10.56-2.88-2.688-4.352-6.368-4.352-10.016 0-3.328 1.216-6.784 3.744-9.44 5.216-5.536 13.92-5.856 19.456-0.608 34.016 31.872 75.136 15.328 88.672 8.544-13.856-18.624-26.656-37.408-38.368-55.648-27.232 13.824-78.528 25.024-119.424-13.312-2.88-2.72-4.352-6.368-4.352-9.984 0-3.36 1.216-6.752 3.744-9.44 5.184-5.568 13.92-5.856 19.456-0.64 32 30.016 70.080 17.184 85.888 9.888-36.704-60.672-58.624-110.496-58.624-117.632 0-18.368 58.624-82.816 81.568-82.816 7.136 0 56.928 21.952 117.632 58.624 7.328-15.744 20.096-53.888-9.888-85.888-5.216-5.568-4.928-14.24 0.64-19.456 2.656-2.496 6.048-3.712 9.408-3.712 3.68 0 7.328 1.504 10.048 4.384 38.336 40.864 27.072 92.192 13.312 119.392 18.24 11.68 37.024 24.544 55.648 38.336 6.848-13.568 23.36-54.624-8.544-88.672-5.216-5.568-4.928-14.24 0.64-19.424 2.656-2.496 6.048-3.744 9.408-3.744 3.68 0 7.328 1.504 10.048 4.384 40.864 43.616 25.344 99.2 10.496 124.576 13.728 10.912 27.072 22.304 39.872 34.176 9.92-15.424 28.768-53.44-0.672-84.8-5.216-5.568-4.896-14.24 0.672-19.456 2.624-2.464 6.016-3.712 9.376-3.712 3.68 0 7.328 1.504 10.048 4.384 40.256 42.912 19.68 96.576 0.672 123.136 11.936 12.16 23.104 24.672 33.248 37.6 11.136-14.464 42.432-61.152 11.392-94.208-5.216-5.568-4.896-14.272 0.672-19.456 2.624-2.496 6.016-3.712 9.408-3.712 3.648 0 7.328 1.472 10.016 4.384 43.072 45.984 9.312 109.024-14.624 136.064 19.904 29.664 77.088 137.6 16.864 188.64zM938.336 866.24c-37.856-27.2-32.864-193.216-32.864-193.216s-29.856 54.176 0.544 166.816c0.512 0.96 1.12 1.76 1.696 2.72-0.448-0.096-0.736-0.128-1.152-0.256 0.032 0.096 0.032 0.128 0.032 0.192-0.16-0.064-0.32-0.192-0.448-0.288-113.44-30.816-167.936-0.736-167.936-0.736s166.016-4.992 193.184 32.864c-182.144 169.248-386.048 44.896-432.192-10.432-69.728-73.76-64.992-204.992-5.344-263.232 25.312 19.232 53.344 35.008 80.896 33.28 23.488 4.256-94.688 29.824-69.344 156.64l190.528-29.632c0 0 81.728-15.712 148.64 19.2-35.424-67.040-19.552-149.408-19.552-149.408l29.6-190.496c-126.816-25.376-145.92 86.4-150.144 62.944 1.696-27.488-13.792-52.736-32.992-78.048 58.208-59.616 182.752-60.8 256.512 8.896 55.264 46.144 179.552 250.048 10.336 432.192zM209.312 235.776c-31.552 12.064-103.84-71.136-81.472-88.352s134.464-25.856 146.88-4c12.384 21.792-43.616 85.472-65.408 92.352zM153.28 236.96c0 0-32.896 83.744-53.536 94.048s-68.832-3.424-86.048-21.824c-17.216-18.368 66.624-144.928 95.232-132.544 28.608 12.512 44.352 60.32 44.352 60.32zM91.104 349.984c4 4.608 1.152 62.528 0 73.44s-73.472 16.064-79.776 10.304c-6.304-5.728-20.064-95.584-3.424-99.168 16.672-3.52 79.2 10.816 83.2 15.424zM89.984 440c7.456 3.424 14.336 70.56 18.912 78.016s-35.52 28.8-48.704 25.952c-13.216-2.88-51.712-77.536-41.376-86.72s63.68-20.64 71.168-17.248zM118.656 531.264c108.448 56.8 88.352 144 88.352 144s-5.728 32.128 12.608 55.072c-11.488 17.792-60.256-21.792-60.256-21.792s-112.448-14.912-84.32-148c8.032-14.368 32.128-26.976 43.616-29.28z" />
<glyph unicode="&#xe650;" d="M749.675 775.77c34.038-209.004-39.733-200.501-39.733-200.501l-199.557 7.427-196.329-7.427c0 0-73.771-8.503-39.733 200.501-241.126-341.403 77.55-289.362 82.3-301.67s-48.262-84.19-44.43-126.73c3.805-42.541 78.022-65.242 87.969-93.585 32.621-96.472-70.937-190.083 25.456-214.305 3.858-0.971 7.926-1.89 11.993-2.729-1.207-5.669-1.837-11.495-1.837-17.504 0-45.874 37.318-83.219 83.219-83.219 45.874 0 83.219 37.345 83.219 83.219 0 7.112-0.971 13.962-2.677 20.549 94.53 24.617-8.109 117.886 24.433 213.991 9.946 28.343 84.163 51.044 87.969 93.585 3.832 42.541-49.181 114.422-44.43 126.73 4.619 12.308 323.295-39.733 82.169 301.67zM518.915-41.325c-33.356 0-60.57 27.11-60.57 60.518 0 4.645 0.63 9.159 1.653 13.463 22.307-3.385 42.803-5.065 50.388-5.669v-0.21c0 0 0.63 0.026 1.627 0.105 0.919-0.079 1.601-0.105 1.601-0.105v0.21c9.080 0.656 36.584 2.913 63.536 7.873 1.338-4.986 2.309-10.209 2.309-15.667 0-33.408-27.188-60.518-60.544-60.518z" />
<glyph unicode="&#xe652;" d="M399.454 675.572c-19.491 17.731-116.69 111.217-192.254 127.7-23.3 56.297-50.76 57.673-50.76 57.673s43.943 104.336-129.044 98.863c107.825-52.296 86.317-65.322 71.371-101.616-61.578-16.227-33.829-97.263-46.695-112.594-12.834-15.33-60.393-31.589-50.792-60.393 9.634-28.805 109.841-39.814 126.324-46.695 63.146-24.676 24.676-127.668 45.287-166.074 20.611-38.438 28.837-127.7 28.837-127.7s-22.019-68.715-24.356-89.422c-4.193-27.332 0.256-46.119-3.201-65.354-13.346-15.97-24.516-40.55-24.516-40.55l63.018-1.024c0 0 6.017 28.228 0 41.158 1.376 15.138 33.637 138.006 59.337 135.285 12.706 4.129 32.645-138.006 14.786-138.006-21.443-6.881-23.332-42.503-23.332-42.503l56.681-0.864c0 0-1.824 28.324 9.505 30.501 8.257 16.515 4.353 68.203 3.809 74.668s-6.881 83.757-6.881 83.757 71.403 50.792 93.359 43.911c94.767-23.332 261.577 31.557 277.355 42.535-9.249-3.201 34.309-93.359 32.933-108.465s-42.247-84.333-49.704-101.872c-22.884-12.642-8.001-38.182-8.001-38.182l51.144-1.408c0 0 0.608 28.772 9.313 28.901 8.673 0.128 16.579 56.393 27.428 74.092 10.882 17.763 52.2 80.109 32.933 87.406s104.368-131.349 113.97-147.831c5.505-9.377 2.048-42.567-1.952-69.259-14.018-8.385-6.273-36.454-6.273-36.454h39.814c0 0 2.464 25.412 10.402 28.58 2.048 5.665 6.049 16.707 6.049 16.707s-3.329 118.803-68.683 188.125c27.428 86.478-15.138 234.757-15.138 234.757s53.576-26.052 46.695-48.040c-6.881-60.457 41.19-44.839 37.062-105.777-9.634-49.416 45.319-67.275 68.683-82.317 0 21.955-9.602 63.146-42.087 78.22 5.025 70.027-36.166 87.854-34.789 111.249 4.161 115.346-64.074 90.062-101.584 100.24-34.117 23.332-327.987 6.881-327.987 6.881s-84.749 24.772-118.066 41.19z" />
<glyph unicode="&#xe653;" d="M674.327 373.788c143.823 113.166 143.823 113.166 85.684 220.206s-275.266 143.726-36.75 318.076c-180.443 113.198-365.196-5.218-343.775-38.856 24.467-94.856-117.217-236.021-117.217-236.021s18.699-172.86 14.454-190.975c-4.245-18.083-45.921-197.878-70.356-277.437-24.435-79.462 91.777-73.402 100.948-122.304s275.266-39.731 269.206 15.361c3.046 100.916 197.262 254.525 220.206 253.845s-59.824-133.485-59.824-133.485l276.951-1.069v345.589c-0.032 0-192.725-241.595-339.529-152.929zM656.892 745.238c52.046-26.12 131.703-127.101 167.901-193.957 36.134-66.856-35.097-116.115-87.888-162.813 108.888-37.56 306.215 192.077 285.604 295.326-17.597 121.527-257.248 220.304-277.21 204.619s-110.93-75.865-88.407-143.175zM258.9 677.053c0 0 105.323 128.948 90.124 195.804-199.563 146.804-552.476-418.019-196.938-387.557-66.499 141.619 106.814 191.753 106.814 191.753z" />
<glyph unicode="&#xe657;" d="M959.616 960h-0.16c-8.832 0-206.72-3.776-351.52-251.456-29.12 7.2-59.36 11.488-90.688 11.488-34.752 0-68.32-5.12-100.288-13.984-145.056 250.048-344.064 253.952-352.928 253.952-0.064 0-0.128 0-0.192 0-35.136 0-63.2-28.128-63.84-63.2-0.576-35.136 27.584-64.288 62.784-65.472 5.792-0.192 132.48-6.912 237.344-180.64-96.352-68.32-159.552-180.512-159.552-307.36 0-207.68 168.96-376.672 376.672-376.672 207.744 0 376.768 168.96 376.768 376.672 0 130.208-66.464 245.184-167.168 312.864 103.392 166.976 226.176 174.816 233.792 175.136 35.232 0.512 63.456 29.216 63.36 64.544-0.064 35.424-28.864 64.128-64.384 64.128zM517.216 95.36c-136.704 0-247.968 111.232-247.968 247.936 0 136.736 111.264 248.032 247.968 248.032 136.8 0 248.064-111.296 248.064-248.032 0.032-136.704-111.264-247.936-248.064-247.936z" />
<glyph unicode="&#xe658;" d="M769.936 487.832c-26.368 96.148-63.814 230.642-262.513 227.234-37.836-12.466 106.787-25.954 94.882-73.188-66.395 38.298-105.521 63.839-152.341 59.578s-66.931-45.676-65.275-75.623c37.86-19.916 86.725-176.883 102.454-210.069s43.095-83.877 71.167-99.191c28.048-15.314-38.858-112.752-95.782-115.26-56.9-2.556-200.354-64.545-217.665-145.524 34.963 41.001 172.501 113.045 231.762 110.902 59.286-2.191 116.064 65.811 125.535 85.167 2.581-87.577-84.437-121.785-145.719-123.271-88.162-1.51-220.514-85.483-204.785-136.881 16.507 44.215 127.142 96.099 200.33 99.532 73.188 3.384 141.215 41.098 176.080 71.971-16.921-68.733-80.444-93.421-153.632-106.447-73.188-13.075-220.222-53.467-217.982-120.763 28.413 41.829 158.793 81.685 299.521 90.791s257.4 293.385 213.964 461.041zM605.664 674.771c0 0 115.382-64.447 58.312-167.875 12.661 101.309-58.312 167.875-58.312 167.875zM686.327 602.776c0 0 125.705-173.183-22.4-258.276 91.619 115.723 22.4 258.276 22.4 258.276zM325.28 378.026c1.144-10.202-5.551-23.398-7.231-30.629s-11.492-4.65-10.202-14.876c1.266-10.202 13.61-14.073 13.61-14.073s-9.349-5.551-8.935-13.196c2.143-13.196 26.368-2.143 28.072-7.256 1.704-5.089 1.315-1.023-0.195-11.589-1.51-10.542-20.647-13.927-9.155-40.709 15.095-35.231 174.473-14.925 212.771 55.707-137.027 123.441-139.997 304.707-167.266 301.298-27.22-3.384-51.056-117.427-51.884-143.82-0.852-26.368-28.511-42.973-31.944-63.4-3.384-20.427 25.54-11.906 32.358-17.457zM332.925 472.201c1.729 4.796 40.417-7.377 40.417-12.88 0-5.551-28.511-6.379-35.304-5.551-2.362 0.317-10.737 3.287-5.113 18.431z" />
<glyph unicode="&#xe659;" d="M990.133 579.314c0 0 17.473 4.852 16.299 12.748-7.579-4.693-25.527 10.591-25.527 10.591s-8.816 50.61-9.45 69.383c-0.634 18.804-2.473 36.848-2.473 36.848s10.686-12.462 24.354-0.381c-26.859 13.16-25.21 30.918-22.293 42.334 2.917 11.479 24.227 92.5-20.136 133.216-29.142 25.337-45.346 2.6-45.346 2.6s-4.281 7.515-9.672 7.103c-5.391-0.317-9.291-6.12-9.291-6.12s-3.076 9.355-7.928 8.023c-4.82-1.268-6.12-5.898-6.12-5.898s-5.296 28.222-64.214 52.988c-59.014 24.766-136.514-14.619-152.718-28.73-16.299-14.048-22.483-18.456-17.219-35.167 1.903-5.866 4.947-7.991 8.181-8.403-12.304-27.208-3.234-70.778-0.476-75.725 2.854-4.883 0.381-16.236-3.456-21.975-8.435-12.589-17.821-18.392-20.834-26.827-4.281-11.828 18.36-13.889 18.36-13.889l0.032-4.503c0 0-7.262-7.008-5.74-12.494 2.093-7.357 16.648-4.757 16.648-4.757s-13.984-5.169-13.318-11.987c0.666-6.786 6.469-9.767 6.469-9.767s-13.477-26.637 6.469-32.567c19.978-5.898 68.273 26.51 73.6-1.934 3.774-14.714 6.691-38.592 4.598-53.496-1.617-1.015-3.298-1.934-5.137-2.22-139.59 33.804-276.073-158.426-344.885-163.405-62.787-4.566-369.651-54.225-369.651-54.225v-444.678c0 0 693.829 0 715.138 0s5.074 103.694 6.754 158.553 114.063 216.806 129.918 218.518c15.887 1.649 1.3-377.071 1.3-377.071h72.998c0 0 2.473 434.214 0.793 559.407 26.637-9.355 40.368 6.437 39.416 13.509-19.978-12.494-24.195 11.416-24.195 11.416s33.264-10.369 34.311 10.147c-27.113-8.816-33.455 41.795-33.455 41.795s52.671-54.764 62.502 2.632c-17.155-19.248-24.607 4.408-24.607 4.408zM554.936 348.365c29.237-56.794-9.672-138.734-12.145-167.908-2.537-29.174-89.709-37.482-155.636-32.44-51.752 3.9-177.833 123.893-241.001 172.538 51.213 13.889 223.592 36.055 263.801 37.609 43.539 1.712 140.002 108.387 168.384 99.571 28.381-8.879-55.938-44.268-23.402-109.37zM830.311 598.086c0 24.861 7.896 48.866 38.37 49.691 11.955 2.6 17.917-38.56 25.908-77.945-27.81 15.919-59.997 26.859-64.277 28.254z" />
<glyph unicode="&#xe65b;" d="M1020.224 479.616c15.936 95.328-19.136 184.96-93.792 239.84-39.2 28.8-84.192 43.648-124.448 43.328v48.128c0 127.584-105.344 149.088-171.872 149.088-44.576 0-86.016-16.768-116.8-47.328-0.064-0.064-0.096-0.128-0.16-0.192-32.672 31.168-75.968 47.52-118.048 47.52-44.48 0-85.952-16.768-116.736-47.328-0.256-0.224-0.448-0.576-0.672-0.8-31.52 26.304-70.848 40.544-109.376 40.544-44.544 0-86.016-16.768-116.8-47.328-23.488-23.328-51.52-65.6-51.52-134.336 0-31.328 25.344-56.672 56.704-56.672 31.328 0 56.704 25.344 56.704 56.672 0 63.328 41.984 68.256 54.88 68.256 26.976 0 58.464-17.856 58.464-68.256v-479.68c0-31.328 25.376-56.672 56.704-56.672s56.704 25.376 56.704 56.672v487.264c0 63.328 49.408 68.128 62.976 68.128s60.064-3.616 60.064-77.12c0-91.872-1.44-478.272-1.44-478.272 0-31.328 25.344-56.672 56.704-56.672 31.328 0 56.704 25.376 56.704 56.672v487.264c0 63.328 41.984 68.224 54.88 68.224 26.976 0 58.496-17.824 58.496-68.224 0 0 1.632-517.536 1.568-551.2-46.080-27.008-90.816-44.672-124.544-51.072-30.784-5.824-51.040-35.456-45.248-66.24 5.152-27.2 28.928-46.176 55.68-46.176 3.456 0 7.040 0.384 10.56 0.992 45.504 8.64 108.896 33.44 173.376 72.864 60.672-31.072 143.584-46.048 185.568-52.064 30.592-4.128 59.744 17.184 64.128 48.128 4.416 31.040-17.088 59.744-48.128 64.192-32.256 4.64-65.824 11.968-94.464 20.064 74.176 67.936 135.52 156.16 153.184 261.792zM803.84 313.824c0.064 24.992 0.16 52.672 0.288 81.536 0.32 91.744 0.672 194.272 0.672 254.592 12.736-0.64 36.672-7.008 60.064-26.208 21.184-17.376 54.976-56.8 43.488-125.376-11.712-70.464-52.864-133.344-104.512-184.544z" />
<glyph unicode="&#xe65c;" d="M250.88 372.608c8-27.424 25.952-6.4 49.44-10.688 10.016-3.488 14.496-5.504 16-15.488 2.944-18.624-24.352-22.112-24.8-42.688-0.384-13.632 12.128-13.76 21.76-12.608-7.616-1.376-22.784-5.728-21.44-18.4 5.92-26.944 33.728-9.984 34.176-17.824 4.736-35.264-3.072-55.808 15.552-84.256 14.944-22.816 94.56 3.872 137.568 21.568 10.56 4.352 22.176-40.864 25.056-38.176 14.72 13.76 240.128 122.496 210.688 220.512-12.672 46.048-207.744 96.032-207.744 96.032s-48.992 237.152-225.344 238.112c-30.368-0.96 0.96-155.808 2.912-205.792 1.952-50.016-41.76-102.88-33.824-130.304zM830.496 871.328c-402.72 260.64-528.128-136.192-528.128-136.192s233.184-34.304 240.064-237.152c179.328-52.864 224.384-88.16 210.688-147.936-82.304-259.68-520.352-313.6-605.632-276.352-58.752 25.504-196.928 160.704 17.664 224.384-148.96 41.152-288.096-193.024 14.72-287.104 302.784-94.048 610.432 70.56 660.448 120.544 50.016 49.952 392.928 479.168-9.824 739.808zM762.048 637.024c-10.496 0-20.416 0.576-29.312 1.632 6.56-5.344 13.504-11.552 20.384-18.432 27.616-27.616 44.352-55.616 37.408-62.592-6.976-6.976-34.976 9.792-62.624 37.376-5.792 5.792-10.912 11.52-15.616 17.152 0.672-7.2 1.024-14.72 1.024-22.688 0-39.072-8-70.72-17.824-70.72-9.92 0-17.888 31.648-17.888 70.72 0 9.888 0.576 19.328 1.504 27.872-5.6-6.944-12-14.176-19.328-21.472-27.616-27.616-55.648-44.384-62.624-37.408-7.008 6.976 9.824 35.008 37.408 62.592 5.984 5.92 11.84 11.232 17.568 16-7.968-0.768-16.608-1.248-25.632-1.248-39.104 0-70.72 8-70.72 17.856 0 9.888 31.616 17.856 70.72 17.856 9.568 0 18.688-0.512 27.040-1.376-7.2 5.696-14.72 12.32-22.304 19.84-27.552 27.648-44.352 55.68-37.376 62.656 7.008 6.944 35.008-9.792 62.624-37.408 8.768-8.768 16.32-17.536 22.464-25.76-1.536 10.464-2.464 22.464-2.464 35.488 0 39.040 8 70.72 17.856 70.72s17.856-31.68 17.856-70.72c0-10.112-0.64-19.68-1.536-28.384 5.504 6.816 11.808 14.016 19.008 21.12 27.616 27.616 55.648 44.352 62.624 37.408 6.976-6.976-9.824-35.008-37.44-62.624-8.512-8.512-16.96-15.808-24.896-21.92 9.696 1.28 20.512 2.048 32.192 2.048 39.072 0 70.688-8 70.688-17.856-0.096-9.76-31.712-17.728-70.784-17.728z" />
</font>
</defs>
</svg>
